# Blender v2.92.0 OBJ File: ''
# www.blender.org
mtllib Camera Base.mtl
o camera_base
v -0.124500 9.897700 2.468500
v -0.124500 8.582300 2.468500
v -0.124500 9.897700 3.128599
v -1.899700 7.579000 0.585900
v -1.899700 8.172800 0.585900
v 1.899700 8.172800 0.585900
v -0.656100 7.579000 0.585900
v 1.899700 7.579000 0.585900
v -1.735200 8.582300 -2.021300
v -2.378100 9.897700 -2.311900
v -2.201900 9.897700 -2.488000
v -1.911300 8.582300 -1.845200
v -2.578500 8.582300 -0.234500
v -3.238500 9.897700 0.014600
v -3.238500 9.897700 -0.234500
v -2.578500 8.582300 0.014600
v -1.911300 8.582300 1.625300
v -2.201900 9.897700 2.268100
v -2.378100 9.897700 2.092000
v -1.735200 8.582300 1.801400
v 0.124500 8.582300 -2.688499
v -0.124500 9.897700 -3.348500
v 0.124500 9.897700 -3.348500
v -0.124500 8.582300 -2.688499
v 1.911300 8.582300 -1.845200
v 2.201900 9.897700 -2.488000
v 2.378100 9.897700 -2.311900
v 1.735200 8.582300 -2.021300
v 2.578500 8.582300 0.014600
v 3.238500 9.897700 -0.234500
v 3.238500 9.897700 0.014600
v 2.578500 8.582300 -0.234500
v 1.735200 8.582300 1.801400
v 2.378100 9.897700 2.092000
v 2.201900 9.897700 2.268100
v 1.911300 8.582300 1.625300
v -1.911300 9.897700 -1.845200
v -1.735200 9.897700 -2.021300
v 0.656100 7.579000 0.585900
v 0.124500 9.897700 3.128599
v 0.124500 8.582300 2.468500
v -0.704800 12.246300 3.050900
v -0.704800 11.336600 4.312200
v -0.704800 12.246300 4.312200
v -0.704800 11.337500 2.164500
v 0.704800 11.336600 4.312200
v 0.704800 12.246300 4.312200
v 0.704800 11.337500 2.164500
v 0.704800 12.246300 3.050900
v -2.578500 9.897700 0.014600
v -2.578500 9.897700 -0.234500
v -1.735200 9.897700 1.801400
v -1.911300 9.897700 1.625300
v -0.124500 9.897700 -2.688499
v 0.124500 9.897700 -2.688499
v -1.432800 13.072900 -1.470000
v -1.432800 13.072900 0.729200
v 1.432800 13.072900 0.729200
v 1.432800 13.072900 -1.470000
v -1.432800 12.576300 -1.999000
v 1.432800 12.576300 -1.999000
v -1.432800 11.337500 -1.999000
v 1.432800 11.337500 -1.999000
v 1.432800 11.337500 2.164500
v -1.432800 12.140500 3.050900
v -1.432800 11.337500 2.164500
v 1.432800 12.140500 3.050900
v -1.432800 12.140500 4.138100
v 1.432800 12.140500 4.138100
v 1.432800 12.327800 4.708100
v -1.432800 12.327800 4.708100
v 1.432800 12.909200 5.155700
v -1.432800 12.909200 5.155700
v 1.432800 13.516800 5.155700
v -1.432800 13.516800 5.155700
v 1.432800 14.098200 4.708100
v -1.432800 14.098200 4.708100
v 1.432800 14.285400 4.138100
v -1.432800 14.285400 4.138100
v 1.432800 14.285400 1.945600
v -1.432800 14.285400 1.945600
v 1.735200 9.897700 -2.021300
v 1.840800 9.897700 1.730800
v 0.996200 9.897700 2.295100
v 0.996200 6.828600 2.295100
v 1.840800 6.828600 1.730800
v 2.405100 9.897700 0.886300
v 2.405100 6.828600 0.886300
v 2.603300 9.897700 -0.110000
v 2.603300 6.828600 -0.110000
v 2.405100 9.897700 -1.106200
v 2.405100 6.828600 -1.106200
v 1.840800 9.897700 -1.950800
v 1.840800 6.828600 -1.950800
v 0.996200 9.897700 -2.515100
v 0.996200 6.828600 -2.515100
v 0.000000 9.897700 -2.713200
v 0.000000 6.828600 -2.713200
v -0.996200 9.897700 -2.515100
v -0.996200 6.828600 -2.515100
v -1.840800 9.897700 -1.950800
v -1.840800 6.828600 -1.950800
v -2.405100 9.897700 -1.106200
v -2.405100 6.828600 -1.106200
v -2.603300 9.897700 -0.110000
v -2.603300 6.828600 -0.110000
v -2.405100 9.897700 0.886300
v -2.405100 6.828600 0.886300
v -1.840800 9.897700 1.730800
v -1.840800 6.828600 1.730800
v -0.996200 9.897700 2.295100
v -0.996200 6.828600 2.295100
v 0.000000 9.897700 2.493299
v 0.000000 6.828600 2.493299
v 1.911300 9.897700 -1.845200
v 1.329200 9.897700 3.099000
v 2.456000 11.337500 2.346100
v 1.329200 11.337500 3.099000
v 2.456000 9.897700 2.346100
v 3.209000 11.337500 1.219200
v 3.209000 9.897700 1.219200
v 3.473400 11.337500 -0.110000
v 3.473400 9.897700 -0.110000
v 3.209000 11.337500 -1.439200
v 3.209000 9.897700 -1.439200
v 2.456000 11.337500 -2.566000
v 2.456000 9.897700 -2.566000
v 1.329200 11.337500 -3.318900
v 1.329200 9.897700 -3.318900
v 0.000000 11.337500 -3.583300
v 0.000000 9.897700 -3.583300
v -1.329200 11.337500 -3.318900
v -1.329200 9.897700 -3.318900
v -2.456000 11.337500 -2.566000
v -2.456000 9.897700 -2.566000
v -3.209000 11.337500 -1.439200
v -3.209000 9.897700 -1.439200
v -3.473400 11.337500 -0.110000
v -3.473400 9.897700 -0.110000
v -3.209000 11.337500 1.219200
v -3.209000 9.897700 1.219200
v -2.456000 11.337500 2.346100
v -2.456000 9.897700 2.346100
v -1.329200 11.337500 3.099000
v -1.329200 9.897700 3.099000
v 0.000000 11.337500 3.363400
v 0.000000 9.897700 3.363400
v -1.910900 6.195400 -0.110000
v -1.765500 6.195400 0.621300
v -1.351200 6.195400 1.241300
v -0.731300 6.195400 1.655500
v 0.000000 6.195400 1.801000
v 0.731300 6.195400 1.655500
v 1.351200 6.195400 1.241300
v 1.765500 6.195400 0.621300
v 1.910900 6.195400 -0.110000
v 0.000000 6.195400 -0.110000
v 1.351200 6.195400 -1.461200
v 1.765500 6.195400 -0.841200
v 0.731300 6.195400 -1.875400
v 0.000000 6.195400 -2.020900
v -0.731300 6.195400 -1.875400
v -1.351200 6.195400 -1.461200
v -1.765500 6.195400 -0.841200
v 2.578500 9.897700 -0.234500
v 0.000000 11.337500 -0.110000
v 0.000000 9.897700 -0.110000
v 2.578500 9.897700 0.014600
v 1.911300 9.897700 1.625300
v 1.735200 9.897700 1.801400
v 0.124500 9.897700 2.468500
vt 0.164100 0.180200
vt 0.164100 0.152800
vt 0.171400 0.180200
vt 0.273900 0.151400
vt 0.276600 0.180200
vt 0.273900 0.180200
vt 0.276600 0.151400
vt 0.294400 0.151400
vt 0.297100 0.180200
vt 0.294400 0.180200
vt 0.297100 0.151400
vt 0.314700 0.151400
vt 0.317600 0.180200
vt 0.314700 0.180200
vt 0.317600 0.151400
vt 0.252900 0.151400
vt 0.255600 0.180200
vt 0.252900 0.180200
vt 0.255600 0.151400
vt 0.232800 0.151400
vt 0.235800 0.180200
vt 0.232800 0.180200
vt 0.235800 0.151400
vt 0.212300 0.151400
vt 0.215200 0.180200
vt 0.212300 0.180200
vt 0.215200 0.151400
vt 0.191900 0.151400
vt 0.194700 0.180200
vt 0.191900 0.180200
vt 0.194700 0.151400
vt 0.283400 0.151400
vt 0.283400 0.180200
vt 0.267100 0.180200
vt 0.267100 0.151400
vt 0.367200 0.258300
vt 0.367200 0.238300
vt 0.373000 0.258300
vt 0.367200 0.211400
vt 0.373000 0.191400
vt 0.367200 0.191400
vt 0.171400 0.152800
vt 0.173700 0.180200
vt 0.173700 0.152800
vt 0.150400 0.237800
vt 0.163100 0.272900
vt 0.150400 0.272900
vt 0.163100 0.211900
vt 0.163100 0.298800
vt 0.183000 0.272900
vt 0.183000 0.298800
vt 0.196200 0.272900
vt 0.183000 0.211900
vt 0.196200 0.237800
vt 0.304000 0.151400
vt 0.304000 0.180200
vt 0.287600 0.180200
vt 0.287600 0.151400
vt 0.324500 0.151400
vt 0.324500 0.180200
vt 0.307900 0.180200
vt 0.307900 0.151400
vt 0.262500 0.151400
vt 0.262500 0.180200
vt 0.246100 0.180200
vt 0.246100 0.151400
vt 0.400900 0.681600
vt 0.400900 0.631800
vt 0.430400 0.631800
vt 0.430400 0.681600
vt 0.400900 0.693400
vt 0.430400 0.693400
vt 0.400900 0.721700
vt 0.430400 0.721700
vt 0.430400 0.445800
vt 0.400900 0.465800
vt 0.400900 0.445800
vt 0.430400 0.465800
vt 0.400900 0.490200
vt 0.430400 0.490200
vt 0.430400 0.502900
vt 0.400900 0.502900
vt 0.430400 0.515600
vt 0.400900 0.515600
vt 0.430400 0.529300
vt 0.400900 0.529300
vt 0.430400 0.543000
vt 0.400900 0.543000
vt 0.430400 0.555700
vt 0.400900 0.555700
vt 0.430400 0.604500
vt 0.400900 0.604500
vt 0.242700 0.151400
vt 0.242700 0.180200
vt 0.302000 0.132300
vt 0.293700 0.132300
vt 0.293700 0.071300
vt 0.302000 0.071300
vt 0.310500 0.132300
vt 0.310500 0.071300
vt 0.318800 0.132300
vt 0.318800 0.071300
vt 0.327600 0.132300
vt 0.327600 0.071300
vt 0.335900 0.132300
vt 0.335900 0.071300
vt 0.344000 0.132300
vt 0.344000 0.071300
vt 0.352300 0.132300
vt 0.352300 0.071300
vt 0.218300 0.132300
vt 0.218300 0.071300
vt 0.226600 0.132300
vt 0.226600 0.071300
vt 0.234700 0.132300
vt 0.234700 0.071300
vt 0.243000 0.132300
vt 0.243000 0.071300
vt 0.251700 0.132300
vt 0.251700 0.071300
vt 0.260300 0.132300
vt 0.260300 0.071300
vt 0.268600 0.132300
vt 0.268600 0.071300
vt 0.276600 0.132300
vt 0.276600 0.071300
vt 0.284900 0.132300
vt 0.284900 0.071300
vt 0.226000 0.180200
vt 0.226000 0.151400
vt 0.305400 0.012200
vt 0.320300 0.043000
vt 0.305400 0.043000
vt 0.320300 0.012200
vt 0.335000 0.043000
vt 0.335000 0.012200
vt 0.350100 0.043000
vt 0.350100 0.012200
vt 0.364500 0.043000
vt 0.364500 0.012200
vt 0.379900 0.043000
vt 0.379900 0.012200
vt 0.394300 0.043000
vt 0.394300 0.012200
vt 0.409700 0.043000
vt 0.409700 0.012200
vt 0.171400 0.043000
vt 0.171400 0.012200
vt 0.186400 0.043000
vt 0.186400 0.012200
vt 0.201200 0.043000
vt 0.201200 0.012200
vt 0.216300 0.043000
vt 0.216300 0.012200
vt 0.230800 0.043000
vt 0.230800 0.012200
vt 0.246100 0.043000
vt 0.246100 0.012200
vt 0.260500 0.043000
vt 0.260500 0.012200
vt 0.275900 0.043000
vt 0.275900 0.012200
vt 0.290300 0.043000
vt 0.290300 0.012200
vt 0.210700 0.080600
vt 0.212600 0.099100
vt 0.206200 0.099100
vt 0.204800 0.085400
vt 0.205600 0.064500
vt 0.200900 0.073700
vt 0.197600 0.054200
vt 0.195200 0.065900
vt 0.188500 0.050300
vt 0.188500 0.063500
vt 0.179200 0.054200
vt 0.181600 0.065900
vt 0.171300 0.064500
vt 0.175900 0.073700
vt 0.166100 0.080600
vt 0.172000 0.085400
vt 0.164200 0.099100
vt 0.170700 0.099100
vt 0.166100 0.117200
vt 0.188500 0.099100
vt 0.175900 0.124000
vt 0.172000 0.112300
vt 0.181600 0.131800
vt 0.188500 0.134300
vt 0.195200 0.131800
vt 0.200900 0.124000
vt 0.204800 0.112300
vt 0.171300 0.133300
vt 0.179200 0.143600
vt 0.188500 0.147500
vt 0.197600 0.143600
vt 0.205600 0.133300
vt 0.210700 0.117200
vt 0.222200 0.151400
vt 0.222200 0.180200
vt 0.000500 0.079600
vt 0.003400 0.050300
vt 0.039600 0.079600
vt 0.012200 0.024400
vt 0.024900 0.007800
vt 0.039600 0.001500
vt 0.054700 0.007800
vt 0.067400 0.024400
vt 0.075700 0.050300
vt 0.078600 0.079600
vt 0.075700 0.109400
vt 0.067400 0.135300
vt 0.054700 0.151400
vt 0.039600 0.157700
vt 0.024900 0.151400
vt 0.012200 0.135300
vt 0.003400 0.109400
vt 0.085400 0.108400
vt 0.082500 0.079600
vt 0.121500 0.079600
vt 0.085400 0.048800
vt 0.093800 0.023900
vt 0.106400 0.007300
vt 0.121500 0.001500
vt 0.136100 0.007300
vt 0.148900 0.023900
vt 0.157200 0.048800
vt 0.160000 0.079600
vt 0.157200 0.108400
vt 0.148900 0.133800
vt 0.136100 0.150900
vt 0.121500 0.156300
vt 0.106400 0.150900
vt 0.093800 0.133800
vt 0.451200 0.532200
vt 0.457500 0.543000
vt 0.444300 0.532200
vt 0.437500 0.543000
vt 0.459500 0.555700
vt 0.435500 0.555700
vt 0.435500 0.604500
vt 0.459500 0.580100
vt 0.449200 0.631800
vt 0.468800 0.599600
vt 0.468800 0.693400
vt 0.454600 0.693400
vt 0.449200 0.681600
vt 0.382800 0.681600
vt 0.376700 0.693400
vt 0.382800 0.631800
vt 0.363000 0.693400
vt 0.363000 0.599600
vt 0.371800 0.580100
vt 0.396200 0.604500
vt 0.371800 0.555700
vt 0.396200 0.555700
vt 0.374500 0.543000
vt 0.394000 0.543000
vt 0.380600 0.532200
vt 0.387500 0.532200
vt 0.205400 0.180200
vt 0.205400 0.151400
vt 0.201500 0.151400
vt 0.201500 0.180200
vt 0.185100 0.180200
vt 0.185100 0.151400
vt 0.180500 0.152800
vt 0.180500 0.180200
vn -1.0000 0.0000 0.0000
vn -0.6320 -0.4485 -0.6320
vn -0.6319 -0.4485 -0.6322
vn -0.6318 -0.4485 -0.6322
vn -0.8938 -0.4485 0.0000
vn -0.6320 -0.4485 0.6320
vn -0.6318 -0.4485 0.6322
vn 0.0000 -0.4485 -0.8938
vn 0.6320 -0.4485 -0.6320
vn 0.6318 -0.4485 -0.6322
vn 0.8938 -0.4485 0.0000
vn 0.6320 -0.4485 0.6320
vn 0.6318 -0.4485 0.6322
vn -0.7070 0.0000 0.7072
vn 0.7071 0.0000 -0.7071
vn 0.0000 0.0000 1.0000
vn 0.0000 -0.4485 0.8938
vn 1.0000 0.0000 0.0000
vn 0.0000 -1.0000 -0.0004
vn 0.0000 0.0000 -1.0000
vn 0.7071 0.0000 0.7071
vn -0.7070 0.0000 -0.7072
vn 0.0000 0.9298 -0.3680
vn 0.0000 0.9242 -0.3819
vn 0.0000 0.3972 -0.9177
vn -0.0003 0.3972 -0.9177
vn 0.0000 -0.7411 0.6714
vn 0.0000 -0.9330 0.3598
vn 0.0000 -0.9874 0.1581
vn 0.0000 -0.8161 0.5778
vn 0.0000 -0.3222 0.9467
vn 0.0000 0.3222 0.9467
vn 0.0000 0.8162 0.5778
vn 0.0000 0.9874 0.1580
vn -0.7071 0.0000 -0.7071
vn 0.3827 0.0000 0.9239
vn 0.3531 -0.3858 0.8524
vn 0.6524 -0.3858 0.6524
vn 0.9239 0.0000 0.3827
vn 0.8524 -0.3858 0.3531
vn 0.9226 -0.3858 -0.0000
vn 0.9239 0.0000 -0.3827
vn 0.8524 -0.3858 -0.3531
vn 0.6524 -0.3858 -0.6524
vn 0.3826 0.0000 -0.9239
vn 0.3530 -0.3858 -0.8524
vn 0.0000 -0.3858 -0.9226
vn -0.3826 0.0000 -0.9239
vn -0.3530 -0.3858 -0.8524
vn -0.6524 -0.3858 -0.6524
vn -0.9239 0.0000 -0.3827
vn -0.8524 -0.3858 -0.3531
vn -0.9226 -0.3858 -0.0000
vn -0.9239 0.0000 0.3827
vn -0.8524 -0.3858 0.3531
vn -0.7071 0.0000 0.7071
vn -0.6524 -0.3858 0.6524
vn -0.3827 0.0000 0.9239
vn -0.3531 -0.3858 0.8524
vn -0.0000 -0.3858 0.9226
vn 0.7070 0.0000 0.7072
vn 0.3827 0.0000 -0.9239
vn -0.3827 0.0000 -0.9239
vn -0.4000 -0.9165 0.0000
vn -0.3696 -0.9165 0.1531
vn -0.2828 -0.9165 0.2828
vn -0.1531 -0.9165 0.3696
vn -0.0000 -0.9165 0.4000
vn 0.1531 -0.9165 0.3695
vn 0.2828 -0.9165 0.2828
vn 0.3695 -0.9165 0.1531
vn 0.4000 -0.9165 -0.0000
vn 0.0000 -1.0000 -0.0000
vn 0.2828 -0.9165 -0.2828
vn 0.3696 -0.9165 -0.1531
vn 0.1531 -0.9165 -0.3695
vn 0.0000 -0.9165 -0.4000
vn -0.1531 -0.9165 -0.3695
vn -0.2828 -0.9165 -0.2828
vn -0.3695 -0.9165 -0.1531
vn 0.0000 1.0000 0.0000
vn 0.7070 0.0000 -0.7072
usemtl GC_D
s 1
f 1/1/1 2/2/1 3/3/1
f 9/4/2 10/5/3 11/6/4
f 9/4/2 12/7/2 10/5/3
f 13/8/5 14/9/5 15/10/5
f 13/8/5 16/11/5 14/9/5
f 17/12/6 18/13/7 19/14/7
f 17/12/6 20/15/6 18/13/7
f 21/16/8 22/17/8 23/18/8
f 21/16/8 24/19/8 22/17/8
f 25/20/9 26/21/10 27/22/10
f 25/20/9 28/23/9 26/21/10
f 29/24/11 30/25/11 31/26/11
f 29/24/11 32/27/11 30/25/11
f 33/28/12 34/29/13 35/30/13
f 33/28/12 36/31/12 34/29/13
f 12/32/14 37/33/14 10/5/14
f 38/34/15 9/35/15 11/6/15
f 4/36/16 7/37/16 5/38/16
f 5/38/16 7/37/16 39/39/16
f 5/38/16 39/39/16 6/40/16
f 39/39/16 8/41/16 6/40/16
f 2/42/17 40/43/17 3/3/17
f 2/42/17 41/44/17 40/43/17
f 42/45/1 43/46/1 44/47/1
f 42/45/1 45/48/1 43/46/1
f 44/49/16 46/50/16 47/51/16
f 44/49/16 43/46/16 46/50/16
f 47/52/18 48/53/18 49/54/18
f 47/52/18 46/50/18 48/53/18
f 43/46/19 48/53/19 46/50/19
f 43/46/19 45/48/19 48/53/19
f 16/55/16 50/56/16 14/9/16
f 51/57/20 13/58/20 15/10/20
f 20/59/21 52/60/21 18/13/21
f 53/61/22 17/62/22 19/14/22
f 24/63/1 54/64/1 22/17/1
f 55/65/18 21/66/18 23/18/18
f 56/67/23 57/68/24 58/69/24
f 56/67/23 58/69/24 59/70/23
f 60/71/25 56/67/23 59/70/23
f 61/72/25 60/71/25 59/70/23
f 61/72/25 62/73/20 60/71/25
f 63/74/20 62/73/20 61/72/26
f 64/75/27 65/76/28 66/77/27
f 64/75/27 67/78/28 65/76/28
f 68/79/29 65/76/28 67/78/28
f 69/80/29 68/79/29 67/78/28
f 69/80/29 70/81/30 68/79/29
f 71/82/30 68/79/29 70/81/30
f 71/82/30 70/81/30 72/83/31
f 72/83/31 73/84/31 71/82/30
f 74/85/32 73/84/31 72/83/31
f 74/85/32 75/86/32 73/84/31
f 76/87/33 75/86/32 74/85/32
f 76/87/33 77/88/33 75/86/32
f 78/89/34 77/88/33 76/87/33
f 79/90/34 77/88/33 78/89/34
f 80/91/24 79/90/34 78/89/34
f 81/92/24 79/90/34 80/91/24
f 81/92/24 80/91/24 58/69/24
f 81/92/24 58/69/24 57/68/24
f 28/93/35 82/94/35 26/21/35
f 83/95/21 84/96/36 85/97/37
f 86/98/38 83/95/21 85/97/37
f 87/99/39 83/95/21 86/98/38
f 88/100/40 87/99/39 86/98/38
f 89/101/18 87/99/39 88/100/40
f 90/102/41 89/101/18 88/100/40
f 91/103/42 89/101/18 90/102/41
f 92/104/43 91/103/42 90/102/41
f 93/105/15 91/103/42 92/104/43
f 94/106/44 93/105/15 92/104/43
f 95/107/45 93/105/15 94/106/44
f 96/108/46 95/107/45 94/106/44
f 97/109/20 95/107/45 96/108/46
f 97/109/20 96/108/46 98/110/47
f 97/111/20 98/112/47 99/113/48
f 100/114/49 99/113/48 98/112/47
f 101/115/35 99/113/48 100/114/49
f 102/116/50 101/115/35 100/114/49
f 103/117/51 101/115/35 102/116/50
f 104/118/52 103/117/51 102/116/50
f 105/119/1 103/117/51 104/118/52
f 105/119/1 104/118/52 106/120/53
f 106/120/53 107/121/54 105/119/1
f 108/122/55 107/121/54 106/120/53
f 109/123/56 107/121/54 108/122/55
f 110/124/57 109/123/56 108/122/55
f 111/125/58 109/123/56 110/124/57
f 112/126/59 111/125/58 110/124/57
f 113/127/16 111/125/58 112/126/59
f 114/128/60 113/127/16 112/126/59
f 84/96/36 113/127/16 114/128/60
f 85/97/37 84/96/36 114/128/60
f 115/129/61 25/130/61 27/22/61
f 116/131/36 117/132/21 118/133/36
f 119/134/21 117/132/21 116/131/36
f 119/134/21 120/135/39 117/132/21
f 121/136/39 120/135/39 119/134/21
f 121/136/39 122/137/18 120/135/39
f 123/138/18 122/137/18 121/136/39
f 123/138/18 124/139/42 122/137/18
f 125/140/42 124/139/42 123/138/18
f 125/140/42 126/141/15 124/139/42
f 127/142/15 126/141/15 125/140/42
f 128/143/62 126/141/15 127/142/15
f 129/144/62 128/143/62 127/142/15
f 129/144/62 130/145/20 128/143/62
f 129/144/62 131/146/20 130/145/20
f 130/147/20 131/148/20 132/149/63
f 131/148/20 133/150/63 132/149/63
f 132/149/63 133/150/63 134/151/35
f 133/150/63 135/152/35 134/151/35
f 134/151/35 135/152/35 136/153/51
f 135/152/35 137/154/51 136/153/51
f 136/153/51 137/154/51 138/155/1
f 137/154/51 139/156/1 138/155/1
f 139/156/1 140/157/54 138/155/1
f 139/156/1 141/158/54 140/157/54
f 142/159/56 140/157/54 141/158/54
f 143/160/56 142/159/56 141/158/54
f 143/160/56 144/161/58 142/159/56
f 145/162/58 144/161/58 143/160/56
f 145/162/58 146/163/16 144/161/58
f 147/164/16 146/163/16 145/162/58
f 147/164/16 118/133/36 146/163/16
f 116/131/36 118/133/36 147/164/16
f 108/165/55 106/166/53 148/167/64
f 149/168/65 108/165/55 148/167/64
f 110/169/57 108/165/55 149/168/65
f 150/170/66 110/169/57 149/168/65
f 150/170/66 112/171/59 110/169/57
f 151/172/67 112/171/59 150/170/66
f 114/173/60 112/171/59 151/172/67
f 151/172/67 152/174/68 114/173/60
f 85/175/37 114/173/60 152/174/68
f 153/176/69 85/175/37 152/174/68
f 86/177/38 85/175/37 153/176/69
f 153/176/69 154/178/70 86/177/38
f 88/179/40 86/177/38 154/178/70
f 155/180/71 88/179/40 154/178/70
f 90/181/41 88/179/40 155/180/71
f 156/182/72 90/181/41 155/180/71
f 92/183/43 90/181/41 156/182/72
f 157/184/73 158/185/74 159/186/75
f 160/187/76 158/185/74 157/184/73
f 161/188/77 160/187/76 157/184/73
f 162/189/78 161/188/77 157/184/73
f 157/184/73 163/190/79 162/189/78
f 164/191/80 163/190/79 157/184/73
f 148/167/64 164/191/80 157/184/73
f 157/184/73 149/168/65 148/167/64
f 150/170/66 149/168/65 157/184/73
f 157/184/73 151/172/67 150/170/66
f 152/174/68 151/172/67 157/184/73
f 157/184/73 153/176/69 152/174/68
f 154/178/70 153/176/69 157/184/73
f 157/184/73 155/180/71 154/178/70
f 156/182/72 155/180/71 157/184/73
f 159/186/75 156/182/72 157/184/73
f 159/186/75 92/183/43 156/182/72
f 94/192/44 92/183/43 159/186/75
f 158/185/74 94/192/44 159/186/75
f 96/193/46 94/192/44 158/185/74
f 158/185/74 160/187/76 96/193/46
f 96/193/46 160/187/76 98/194/47
f 160/187/76 161/188/77 98/194/47
f 98/194/47 161/188/77 100/195/49
f 100/195/49 161/188/77 162/189/78
f 102/196/50 100/195/49 162/189/78
f 163/190/79 102/196/50 162/189/78
f 104/197/52 102/196/50 163/190/79
f 163/190/79 164/191/80 104/197/52
f 104/197/52 164/191/80 106/166/53
f 106/166/53 164/191/80 148/167/64
f 32/198/20 165/199/20 30/25/20
f 138/200/81 140/201/81 166/202/81
f 142/203/81 166/202/81 140/201/81
f 144/204/81 166/202/81 142/203/81
f 146/205/81 166/202/81 144/204/81
f 118/206/81 166/202/81 146/205/81
f 117/207/81 166/202/81 118/206/81
f 120/208/81 166/202/81 117/207/81
f 122/209/81 166/202/81 120/208/81
f 124/210/81 166/202/81 122/209/81
f 124/210/81 126/211/81 166/202/81
f 126/211/81 128/212/81 166/202/81
f 128/212/81 130/213/81 166/202/81
f 130/213/81 132/214/81 166/202/81
f 132/214/81 134/215/81 166/202/81
f 134/215/81 136/216/81 166/202/81
f 136/216/81 138/200/81 166/202/81
f 141/217/73 139/218/73 167/219/73
f 137/220/73 167/219/73 139/218/73
f 135/221/73 167/219/73 137/220/73
f 133/222/73 167/219/73 135/221/73
f 131/223/73 167/219/73 133/222/73
f 129/224/73 167/219/73 131/223/73
f 127/225/73 167/219/73 129/224/73
f 125/226/73 167/219/73 127/225/73
f 123/227/73 167/219/73 125/226/73
f 123/227/73 121/228/73 167/219/73
f 121/228/73 119/229/73 167/219/73
f 119/229/73 116/230/73 167/219/73
f 116/230/73 147/231/73 167/219/73
f 147/231/73 145/232/73 167/219/73
f 145/232/73 143/233/73 167/219/73
f 143/233/73 141/217/73 167/219/73
f 72/234/18 70/235/18 74/236/18
f 76/237/18 74/236/18 70/235/18
f 76/237/18 70/235/18 69/238/18
f 76/237/18 69/238/18 78/239/18
f 78/239/18 69/238/18 80/240/18
f 69/238/18 67/241/18 80/240/18
f 67/241/18 58/242/18 80/240/18
f 64/243/18 58/242/18 67/241/18
f 63/244/18 58/242/18 64/243/18
f 63/244/18 61/245/18 58/242/18
f 59/246/18 58/242/18 61/245/18
f 56/247/1 60/248/1 57/249/1
f 62/250/1 57/249/1 60/248/1
f 62/250/1 66/251/1 57/249/1
f 66/251/1 65/252/1 57/249/1
f 81/253/1 57/249/1 65/252/1
f 68/254/1 81/253/1 65/252/1
f 68/254/1 79/255/1 81/253/1
f 71/256/1 79/255/1 68/254/1
f 71/256/1 77/257/1 79/255/1
f 71/256/1 73/258/1 77/257/1
f 75/259/1 77/257/1 73/258/1
f 168/260/16 29/261/16 31/26/16
f 36/262/82 169/263/82 34/29/82
f 170/264/56 33/265/56 35/30/56
f 41/266/18 171/267/18 40/43/18
