# Blender v3.6.0 OBJ File: ''
# www.blender.org
mtllib GnellHeadOutside.mtl
o Outside_Outside.002
v 0.096875 0.195927 0.096875
v 0.096875 0.195927 -0.096875
v 0.096875 0.002177 0.096875
v 0.096875 0.002177 -0.096875
v -0.096875 0.195927 -0.096875
v -0.096875 0.195927 0.096875
v -0.096875 0.002177 -0.096875
v -0.096875 0.002177 0.096875
vt 0.000000 0.812500
vt 0.187500 0.812500
vt 0.187500 1.000000
vt 0.000000 1.000000
vt 0.000000 0.625000
vt 0.187500 0.625000
vt 0.187500 0.812500
vt 0.000000 0.812500
vt 0.187500 0.812500
vt 0.375000 0.812500
vt 0.375000 1.000000
vt 0.187500 1.000000
vt 0.187500 0.625000
vt 0.375000 0.625000
vt 0.375000 0.812500
vt 0.187500 0.812500
vt 0.187500 0.625000
vt 0.000000 0.625000
vt 0.000000 0.437500
vt 0.187500 0.437500
vt 0.562500 0.812500
vt 0.375000 0.812500
vt 0.375000 1.000000
vt 0.562500 1.000000
vn 0.0000 -0.0000 -1.0000
vn 1.0000 0.0000 0.0000
vn 0.0000 0.0000 1.0000
vn -1.0000 0.0000 0.0000
vn 0.0000 1.0000 0.0000
vn 0.0000 -1.0000 0.0000
usemtl m_0.001
s off
f 4/1/1 7/2/1 5/3/1 2/4/1
f 3/5/2 4/6/2 2/7/2 1/8/2
f 8/9/3 3/10/3 1/11/3 6/12/3
f 7/13/4 8/14/4 6/15/4 5/16/4
f 6/17/5 1/18/5 2/19/5 5/20/5
f 7/21/6 4/22/6 3/23/6 8/24/6
