# Blender v3.6.0 OBJ File: ''
# www.blender.org
mtllib GnellHornPartTwo.mtl
o Horn2_Horn2.002
v 0.018750 0.210802 -0.080933
v 0.018750 0.258680 -0.121107
v 0.018750 0.174645 -0.124023
v 0.018750 0.222523 -0.164197
v -0.018750 0.258680 -0.121107
v -0.018750 0.210802 -0.080933
v -0.018750 0.222523 -0.164197
v -0.018750 0.174645 -0.124023
vt 0.250000 0.750000
vt 0.375000 0.750000
vt 0.375000 1.000000
vt 0.250000 1.000000
vt 0.000000 0.750000
vt 0.000000 1.000000
vt 0.250000 0.500000
vt 0.375000 0.500000
vt 0.375000 0.750000
vt 0.250000 0.750000
vt 0.000000 0.500000
vt 0.000000 0.750000
vt 0.125000 0.500000
vt 0.000000 0.500000
vt 0.000000 0.250000
vt 0.125000 0.250000
vt 0.625000 0.750000
vt 0.500000 0.750000
vt 0.500000 1.000000
vt 0.625000 1.000000
vn 0.0000 0.7660 -0.6428
vn 1.0000 0.0000 0.0000
vn 0.0000 -0.7660 0.6428
vn -1.0000 0.0000 0.0000
vn 0.0000 0.6428 0.7660
vn 0.0000 -0.6428 -0.7660
usemtl m_4.001
s off
f 4/1/1 7/2/1 5/3/1 2/4/1
f 3/5/2 4/1/2 2/4/2 1/6/2
f 8/7/3 3/8/3 1/9/3 6/10/3
f 7/11/4 8/7/4 6/10/4 5/12/4
f 6/13/5 1/14/5 2/15/5 5/16/5
f 7/17/6 4/18/6 3/19/6 8/20/6
