# Blender 3.6.0
# www.blender.org
mtllib GnellTest.mtl
o Outside.001
v 0.096875 0.362500 0.096875
v 0.096875 0.362500 -0.096875
v 0.096875 0.168750 0.096875
v 0.096875 0.168750 -0.096875
v -0.096875 0.362500 -0.096875
v -0.096875 0.362500 0.096875
v -0.096875 0.168750 -0.096875
v -0.096875 0.168750 0.096875
v -0.096875 0.362500 -0.096875
v 0.096875 0.362500 -0.096875
v -0.096875 0.362500 0.096875
v 0.096875 0.362500 0.096875
v -0.096875 0.168750 0.096875
v 0.096875 0.168750 0.096875
v -0.096875 0.168750 -0.096875
v 0.096875 0.168750 -0.096875
v -0.096875 0.362500 0.096875
v 0.096875 0.362500 0.096875
v -0.096875 0.168750 0.096875
v 0.096875 0.168750 0.096875
v 0.096875 0.362500 -0.096875
v -0.096875 0.362500 -0.096875
v 0.096875 0.168750 -0.096875
v -0.096875 0.168750 -0.096875
vn 1.0000 -0.0000 -0.0000
vn -1.0000 -0.0000 -0.0000
vn -0.0000 1.0000 -0.0000
vn -0.0000 -1.0000 -0.0000
vn -0.0000 -0.0000 1.0000
vn -0.0000 -0.0000 -1.0000
vt 0.000000 0.546875
vt 0.000000 0.593750
vt 0.046875 0.546875
vt 0.046875 0.593750
vt 0.093750 0.546875
vt 0.093750 0.593750
vt 0.046875 0.640625
vt 0.000000 0.640625
vt 0.140625 0.500000
vt 0.140625 0.546875
vt 0.093750 0.500000
vt 0.046875 0.500000
vt 0.000000 0.500000
s 0
usemtl Material_0.001
f 1/1/1 3/2/1 2/3/1
f 3/2/1 4/4/1 2/3/1
f 5/3/2 7/4/2 6/5/2
f 7/4/2 8/6/2 6/5/2
f 9/7/3 11/4/3 10/8/3
f 11/4/3 12/2/3 10/8/3
f 13/9/4 15/10/4 14/11/4
f 15/10/4 16/5/4 14/11/4
f 17/12/5 19/3/5 18/11/5
f 19/3/5 20/5/5 18/11/5
f 21/13/6 23/1/6 22/12/6
f 23/1/6 24/3/6 22/12/6
o Left_Arm.001
v -0.046875 0.168731 0.018747
v -0.046875 0.168769 -0.018753
v -0.046875 0.081231 0.018658
v -0.046875 0.081269 -0.018842
v -0.081250 0.168769 -0.018753
v -0.081250 0.168731 0.018747
v -0.081250 0.081269 -0.018842
v -0.081250 0.081231 0.018658
v -0.081250 0.168769 -0.018753
v -0.046875 0.168769 -0.018753
v -0.081250 0.168731 0.018747
v -0.046875 0.168731 0.018747
v -0.081250 0.081231 0.018658
v -0.046875 0.081231 0.018658
v -0.081250 0.081269 -0.018842
v -0.046875 0.081269 -0.018842
v -0.081250 0.168731 0.018747
v -0.046875 0.168731 0.018747
v -0.081250 0.081231 0.018658
v -0.046875 0.081231 0.018658
v -0.046875 0.168769 -0.018753
v -0.081250 0.168769 -0.018753
v -0.046875 0.081269 -0.018842
v -0.081250 0.081269 -0.018842
vn 1.0000 -0.0000 -0.0000
vn -1.0000 -0.0000 -0.0000
vn -0.0000 1.0000 0.0010
vn -0.0000 -1.0000 -0.0010
vn -0.0000 -0.0010 1.0000
vn -0.0000 0.0010 -1.0000
vt 0.406250 0.250000
vt 0.406250 0.343750
vt 0.375000 0.250000
vt 0.375000 0.343750
vt 0.343750 0.250000
vt 0.343750 0.343750
vt 0.312500 0.250000
vt 0.312500 0.343750
vt 0.312500 0.406250
vt 0.312500 0.375000
vt 0.343750 0.406250
vt 0.343750 0.375000
vt 0.375000 0.375000
vt 0.375000 0.406250
vt 0.406250 0.375000
vt 0.406250 0.406250
vt 0.281250 0.375000
vt 0.281250 0.468750
vt 0.250000 0.375000
vt 0.250000 0.468750
vt 0.281250 0.250000
vt 0.281250 0.343750
vt 0.250000 0.250000
vt 0.250000 0.343750
s 0
usemtl Material_0.001
f 25/14/7 27/15/7 26/16/7
f 27/15/7 28/17/7 26/16/7
f 29/18/8 31/19/8 30/20/8
f 31/19/8 32/21/8 30/20/8
f 33/22/9 35/23/9 34/24/9
f 35/23/9 36/25/9 34/24/9
f 37/26/10 39/27/10 38/28/10
f 39/27/10 40/29/10 38/28/10
f 41/30/11 43/31/11 42/32/11
f 43/31/11 44/33/11 42/32/11
f 45/34/12 47/35/12 46/36/12
f 47/35/12 48/37/12 46/36/12
o Right_Arm.001
v 0.081250 0.168939 0.018781
v 0.081250 0.168561 -0.018718
v 0.081250 0.081444 0.019663
v 0.081250 0.081066 -0.017835
v 0.046875 0.168561 -0.018718
v 0.046875 0.168939 0.018781
v 0.046875 0.081066 -0.017835
v 0.046875 0.081444 0.019663
v 0.046875 0.168561 -0.018718
v 0.081250 0.168561 -0.018718
v 0.046875 0.168939 0.018781
v 0.081250 0.168939 0.018781
v 0.046875 0.081444 0.019663
v 0.081250 0.081444 0.019663
v 0.046875 0.081066 -0.017835
v 0.081250 0.081066 -0.017835
v 0.046875 0.168939 0.018781
v 0.081250 0.168939 0.018781
v 0.046875 0.081444 0.019663
v 0.081250 0.081444 0.019663
v 0.081250 0.168561 -0.018718
v 0.046875 0.168561 -0.018718
v 0.081250 0.081066 -0.017835
v 0.046875 0.081066 -0.017835
vn 1.0000 -0.0000 -0.0000
vn -1.0000 -0.0000 -0.0000
vn -0.0000 0.9999 -0.0101
vn -0.0000 -0.9999 0.0101
vn -0.0000 0.0101 0.9999
vn -0.0000 -0.0101 -0.9999
vt 0.312500 0.250000
vt 0.312500 0.343750
vt 0.343750 0.250000
vt 0.343750 0.343750
vt 0.375000 0.250000
vt 0.375000 0.343750
vt 0.406250 0.250000
vt 0.406250 0.343750
vt 0.343750 0.406250
vt 0.343750 0.375000
vt 0.312500 0.406250
vt 0.312500 0.375000
vt 0.406250 0.375000
vt 0.406250 0.406250
vt 0.375000 0.375000
vt 0.375000 0.406250
vt 0.250000 0.375000
vt 0.250000 0.468750
vt 0.281250 0.375000
vt 0.281250 0.468750
vt 0.250000 0.250000
vt 0.250000 0.343750
vt 0.281250 0.250000
vt 0.281250 0.343750
s 0
usemtl Material_0.001
f 49/38/13 51/39/13 50/40/13
f 51/39/13 52/41/13 50/40/13
f 53/42/14 55/43/14 54/44/14
f 55/43/14 56/45/14 54/44/14
f 57/46/15 59/47/15 58/48/15
f 59/47/15 60/49/15 58/48/15
f 61/50/16 63/51/16 62/52/16
f 63/51/16 64/53/16 62/52/16
f 65/54/17 67/55/17 66/56/17
f 67/55/17 68/57/17 66/56/17
f 69/58/18 71/59/18 70/60/18
f 71/59/18 72/61/18 70/60/18
o LegRight.001
v 0.037500 0.062484 0.015625
v 0.037500 0.062516 -0.015625
v 0.037500 -0.000016 0.015562
v 0.037500 0.000016 -0.015688
v 0.006250 0.062516 -0.015625
v 0.006250 0.062484 0.015625
v 0.006250 0.000016 -0.015688
v 0.006250 -0.000016 0.015562
v 0.006250 0.062516 -0.015625
v 0.037500 0.062516 -0.015625
v 0.006250 0.062484 0.015625
v 0.037500 0.062484 0.015625
v 0.006250 -0.000016 0.015562
v 0.037500 -0.000016 0.015562
v 0.006250 0.000016 -0.015688
v 0.037500 0.000016 -0.015688
v 0.006250 0.062484 0.015625
v 0.037500 0.062484 0.015625
v 0.006250 -0.000016 0.015562
v 0.037500 -0.000016 0.015562
v 0.037500 0.062516 -0.015625
v 0.006250 0.062516 -0.015625
v 0.037500 0.000016 -0.015688
v 0.006250 0.000016 -0.015688
vn 1.0000 -0.0000 -0.0000
vn -1.0000 -0.0000 -0.0000
vn -0.0000 1.0000 0.0010
vn -0.0000 -1.0000 -0.0010
vn -0.0000 -0.0010 1.0000
vn -0.0000 0.0010 -1.0000
vt 0.000000 0.312500
vt 0.000000 0.375000
vt 0.031250 0.312500
vt 0.031250 0.375000
vt 0.062500 0.312500
vt 0.062500 0.375000
vt 0.093750 0.312500
vt 0.093750 0.375000
vt 0.031250 0.406250
vt 0.000000 0.406250
vt 0.156250 0.250000
vt 0.156250 0.281250
vt 0.125000 0.250000
vt 0.125000 0.281250
vt 0.062500 0.250000
vt 0.093750 0.250000
vt 0.000000 0.250000
vt 0.031250 0.250000
s 0
usemtl Material_0.001
f 73/62/19 75/63/19 74/64/19
f 75/63/19 76/65/19 74/64/19
f 77/66/20 79/67/20 78/68/20
f 79/67/20 80/69/20 78/68/20
f 81/70/21 83/65/21 82/71/21
f 83/65/21 84/63/21 82/71/21
f 85/72/22 87/73/22 86/74/22
f 87/73/22 88/75/22 86/74/22
f 89/76/23 91/66/23 90/77/23
f 91/66/23 92/68/23 90/77/23
f 93/78/24 95/62/24 94/79/24
f 95/62/24 96/64/24 94/79/24
o LegLeft.001
v -0.006250 0.062516 0.015625
v -0.006250 0.062484 -0.015625
v -0.006250 0.000016 0.015688
v -0.006250 -0.000016 -0.015562
v -0.037500 0.062484 -0.015625
v -0.037500 0.062516 0.015625
v -0.037500 -0.000016 -0.015562
v -0.037500 0.000016 0.015688
v -0.037500 0.062484 -0.015625
v -0.006250 0.062484 -0.015625
v -0.037500 0.062516 0.015625
v -0.006250 0.062516 0.015625
v -0.037500 0.000016 0.015688
v -0.006250 0.000016 0.015688
v -0.037500 -0.000016 -0.015562
v -0.006250 -0.000016 -0.015562
v -0.037500 0.062516 0.015625
v -0.006250 0.062516 0.015625
v -0.037500 0.000016 0.015688
v -0.006250 0.000016 0.015688
v -0.006250 0.062484 -0.015625
v -0.037500 0.062484 -0.015625
v -0.006250 -0.000016 -0.015562
v -0.037500 -0.000016 -0.015562
vn 1.0000 -0.0000 -0.0000
vn -1.0000 -0.0000 -0.0000
vn -0.0000 1.0000 -0.0010
vn -0.0000 -1.0000 0.0010
vn -0.0000 0.0010 1.0000
vn -0.0000 -0.0010 -1.0000
vt 0.093750 0.312500
vt 0.093750 0.375000
vt 0.062500 0.312500
vt 0.062500 0.375000
vt 0.031250 0.312500
vt 0.031250 0.375000
vt 0.000000 0.312500
vt 0.000000 0.375000
vt 0.000000 0.406250
vt 0.031250 0.406250
vt 0.125000 0.250000
vt 0.125000 0.281250
vt 0.156250 0.250000
vt 0.156250 0.281250
vt 0.093750 0.250000
vt 0.062500 0.250000
vt 0.031250 0.250000
vt 0.000000 0.250000
s 0
usemtl Material_0.001
f 97/80/25 99/81/25 98/82/25
f 99/81/25 100/83/25 98/82/25
f 101/84/26 103/85/26 102/86/26
f 103/85/26 104/87/26 102/86/26
f 105/88/27 107/87/27 106/89/27
f 107/87/27 108/85/27 106/89/27
f 109/90/28 111/91/28 110/92/28
f 111/91/28 112/93/28 110/92/28
f 113/94/29 115/80/29 114/95/29
f 115/80/29 116/82/29 114/95/29
f 117/96/30 119/84/30 118/97/30
f 119/84/30 120/86/30 118/97/30
o Torso.001
v 0.046875 0.171875 0.031250
v 0.046875 0.171875 -0.031250
v 0.046875 0.062500 0.031250
v 0.046875 0.062500 -0.031250
v -0.046875 0.171875 -0.031250
v -0.046875 0.171875 0.031250
v -0.046875 0.062500 -0.031250
v -0.046875 0.062500 0.031250
v -0.046875 0.171875 -0.031250
v 0.046875 0.171875 -0.031250
v -0.046875 0.171875 0.031250
v 0.046875 0.171875 0.031250
v -0.046875 0.062500 0.031250
v 0.046875 0.062500 0.031250
v -0.046875 0.062500 -0.031250
v 0.046875 0.062500 -0.031250
v -0.046875 0.171875 0.031250
v 0.046875 0.171875 0.031250
v -0.046875 0.062500 0.031250
v 0.046875 0.062500 0.031250
v 0.046875 0.171875 -0.031250
v -0.046875 0.171875 -0.031250
v 0.046875 0.062500 -0.031250
v -0.046875 0.062500 -0.031250
vn 1.0000 -0.0000 -0.0000
vn -1.0000 -0.0000 -0.0000
vn -0.0000 1.0000 -0.0000
vn -0.0000 -1.0000 -0.0000
vn -0.0000 -0.0000 1.0000
vn -0.0000 -0.0000 -1.0000
vt 0.562500 0.250000
vt 0.562500 0.312500
vt 0.593750 0.250000
vt 0.593750 0.312500
vt 0.562500 0.375000
vt 0.593750 0.375000
vt 0.640625 0.281250
vt 0.640625 0.250000
vt 0.593750 0.281250
vt 0.640625 0.312500
vt 0.500000 0.312500
vt 0.500000 0.375000
vt 0.546875 0.312500
vt 0.546875 0.375000
vt 0.500000 0.250000
vt 0.546875 0.250000
s 0
usemtl Material_0.001
f 121/98/31 123/99/31 122/100/31
f 123/99/31 124/101/31 122/100/31
f 125/99/32 127/102/32 126/101/32
f 127/102/32 128/103/32 126/101/32
f 129/104/33 131/105/33 130/106/33
f 131/105/33 132/100/33 130/106/33
f 133/104/34 135/107/34 134/106/34
f 135/107/34 136/101/34 134/106/34
f 137/108/35 139/109/35 138/110/35
f 139/109/35 140/111/35 138/110/35
f 141/112/36 143/108/36 142/113/36
f 143/108/36 144/110/36 142/113/36
o HornBase.001
v 0.031250 0.356566 -0.036977
v 0.031250 0.392415 -0.088174
v 0.031250 0.305369 -0.072826
v 0.031250 0.341218 -0.124023
v -0.031250 0.392415 -0.088174
v -0.031250 0.356566 -0.036977
v -0.031250 0.341218 -0.124023
v -0.031250 0.305369 -0.072826
v -0.031250 0.392415 -0.088174
v 0.031250 0.392415 -0.088174
v -0.031250 0.356566 -0.036977
v 0.031250 0.356566 -0.036977
v -0.031250 0.305369 -0.072826
v 0.031250 0.305369 -0.072826
v -0.031250 0.341218 -0.124023
v 0.031250 0.341218 -0.124023
v -0.031250 0.356566 -0.036977
v 0.031250 0.356566 -0.036977
v -0.031250 0.305369 -0.072826
v 0.031250 0.305369 -0.072826
v 0.031250 0.392415 -0.088174
v -0.031250 0.392415 -0.088174
v 0.031250 0.341218 -0.124023
v -0.031250 0.341218 -0.124023
vn 1.0000 -0.0000 -0.0000
vn -1.0000 -0.0000 -0.0000
vn -0.0000 0.8192 0.5736
vn -0.0000 -0.8192 -0.5736
vn -0.0000 -0.5736 0.8192
vn -0.0000 0.5736 -0.8192
vt 0.000000 0.062500
vt 0.000000 0.125000
vt 0.062500 0.062500
vt 0.062500 0.125000
vt 0.125000 0.062500
vt 0.125000 0.125000
vt 0.062500 0.187500
vt 0.000000 0.187500
vt 0.187500 0.000000
vt 0.187500 0.062500
vt 0.125000 0.000000
vt 0.062500 0.000000
vt 0.000000 0.000000
s 0
usemtl Material_0.001
f 145/114/37 147/115/37 146/116/37
f 147/115/37 148/117/37 146/116/37
f 149/116/38 151/117/38 150/118/38
f 151/117/38 152/119/38 150/118/38
f 153/120/39 155/117/39 154/121/39
f 155/117/39 156/115/39 154/121/39
f 157/122/40 159/123/40 158/124/40
f 159/123/40 160/118/40 158/124/40
f 161/125/41 163/116/41 162/124/41
f 163/116/41 164/118/41 162/124/41
f 165/126/42 167/114/42 166/125/42
f 167/114/42 168/116/42 166/125/42
o Horn2.001
v 0.018750 0.377375 -0.080933
v 0.018750 0.425253 -0.121107
v 0.018750 0.341218 -0.124023
v 0.018750 0.389096 -0.164197
v -0.018750 0.425253 -0.121107
v -0.018750 0.377375 -0.080933
v -0.018750 0.389096 -0.164197
v -0.018750 0.341218 -0.124023
v -0.018750 0.425253 -0.121107
v 0.018750 0.425253 -0.121107
v -0.018750 0.377375 -0.080933
v 0.018750 0.377375 -0.080933
v -0.018750 0.341218 -0.124023
v 0.018750 0.341218 -0.124023
v -0.018750 0.389096 -0.164197
v 0.018750 0.389096 -0.164197
v -0.018750 0.377375 -0.080933
v 0.018750 0.377375 -0.080933
v -0.018750 0.341218 -0.124023
v 0.018750 0.341218 -0.124023
v 0.018750 0.425253 -0.121107
v -0.018750 0.425253 -0.121107
v 0.018750 0.389096 -0.164197
v -0.018750 0.389096 -0.164197
vn 1.0000 -0.0000 -0.0000
vn -1.0000 -0.0000 -0.0000
vn -0.0000 0.6428 0.7660
vn -0.0000 -0.6428 -0.7660
vn -0.0000 -0.7660 0.6428
vn -0.0000 0.7660 -0.6428
vt 0.250000 0.000000
vt 0.250000 0.062500
vt 0.312500 0.000000
vt 0.312500 0.062500
vt 0.250000 0.125000
vt 0.312500 0.125000
vt 0.281250 0.187500
vt 0.281250 0.125000
vt 0.250000 0.187500
vt 0.406250 0.000000
vt 0.406250 0.062500
vt 0.375000 0.000000
vt 0.375000 0.062500
vt 0.343750 0.062500
vt 0.343750 0.125000
vt 0.343750 0.000000
s 0
usemtl Material_0.001
f 169/127/43 171/128/43 170/129/43
f 171/128/43 172/130/43 170/129/43
f 173/128/44 175/131/44 174/130/44
f 175/131/44 176/132/44 174/130/44
f 177/133/45 179/134/45 178/135/45
f 179/134/45 180/131/45 178/135/45
f 181/136/46 183/137/46 182/138/46
f 183/137/46 184/139/46 182/138/46
f 185/130/47 187/132/47 186/140/47
f 187/132/47 188/141/47 186/140/47
f 189/129/48 191/130/48 190/142/48
f 191/130/48 192/140/48 190/142/48
o Horn3.001
v 0.012500 0.407585 -0.124546
v 0.012500 0.464230 -0.150960
v 0.012500 0.389096 -0.164197
v 0.012500 0.445740 -0.190611
v -0.012500 0.464230 -0.150960
v -0.012500 0.407585 -0.124546
v -0.012500 0.445740 -0.190611
v -0.012500 0.389096 -0.164197
v -0.012500 0.464230 -0.150960
v 0.012500 0.464230 -0.150960
v -0.012500 0.407585 -0.124546
v 0.012500 0.407585 -0.124546
v -0.012500 0.389096 -0.164197
v 0.012500 0.389096 -0.164197
v -0.012500 0.445740 -0.190611
v 0.012500 0.445740 -0.190611
v -0.012500 0.407585 -0.124546
v 0.012500 0.407585 -0.124546
v -0.012500 0.389096 -0.164197
v 0.012500 0.389096 -0.164197
v 0.012500 0.464230 -0.150960
v -0.012500 0.464230 -0.150960
v 0.012500 0.445740 -0.190611
v -0.012500 0.445740 -0.190611
vn 1.0000 -0.0000 -0.0000
vn -1.0000 -0.0000 -0.0000
vn -0.0000 0.4226 0.9063
vn -0.0000 -0.4226 -0.9063
vn -0.0000 -0.9063 0.4226
vn -0.0000 0.9063 -0.4226
vt 0.500000 0.000000
vt 0.500000 0.046875
vt 0.562500 0.000000
vt 0.562500 0.046875
vt 0.500000 0.062500
vt 0.500000 0.109375
vt 0.562500 0.062500
vt 0.562500 0.109375
vt 0.593750 0.062500
vt 0.593750 0.000000
vt 0.593750 0.125000
vt 0.562500 0.125000
vt 0.625000 0.000000
vt 0.625000 0.046875
vt 0.656250 0.000000
vt 0.656250 0.046875
vt 0.500000 0.125000
vt 0.500000 0.171875
vt 0.531250 0.125000
vt 0.531250 0.171875
s 0
usemtl Material_0.001
f 193/143/49 195/144/49 194/145/49
f 195/144/49 196/146/49 194/145/49
f 197/147/50 199/148/50 198/149/50
f 199/148/50 200/150/50 198/149/50
f 201/151/51 203/152/51 202/149/51
f 203/152/51 204/145/51 202/149/51
f 205/151/52 207/153/52 206/149/52
f 207/153/52 208/154/52 206/149/52
f 209/155/53 211/156/53 210/157/53
f 211/156/53 212/158/53 210/157/53
f 213/159/54 215/160/54 214/161/54
f 215/160/54 216/162/54 214/161/54
o Inside.001
v 0.093750 0.359375 0.093750
v 0.093750 0.359375 -0.093750
v 0.093750 0.171875 0.093750
v 0.093750 0.171875 -0.093750
v -0.093750 0.359375 -0.093750
v -0.093750 0.359375 0.093750
v -0.093750 0.171875 -0.093750
v -0.093750 0.171875 0.093750
v -0.093750 0.359375 -0.093750
v 0.093750 0.359375 -0.093750
v -0.093750 0.359375 0.093750
v 0.093750 0.359375 0.093750
v -0.093750 0.171875 0.093750
v 0.093750 0.171875 0.093750
v -0.093750 0.171875 -0.093750
v 0.093750 0.171875 -0.093750
v -0.093750 0.359375 0.093750
v 0.093750 0.359375 0.093750
v -0.093750 0.171875 0.093750
v 0.093750 0.171875 0.093750
v 0.093750 0.359375 -0.093750
v -0.093750 0.359375 -0.093750
v 0.093750 0.171875 -0.093750
v -0.093750 0.171875 -0.093750
vn 1.0000 -0.0000 -0.0000
vn -1.0000 -0.0000 -0.0000
vn -0.0000 1.0000 -0.0000
vn -0.0000 -1.0000 -0.0000
vn -0.0000 -0.0000 1.0000
vn -0.0000 -0.0000 -1.0000
vt 0.250000 0.546875
vt 0.250000 0.593750
vt 0.296875 0.546875
vt 0.296875 0.593750
vt 0.343750 0.546875
vt 0.343750 0.593750
vt 0.296875 0.640625
vt 0.250000 0.640625
vt 0.390625 0.500000
vt 0.390625 0.546875
vt 0.343750 0.500000
vt 0.296875 0.500000
vt 0.250000 0.500000
s 0
usemtl Material_0.001
f 217/163/55 219/164/55 218/165/55
f 219/164/55 220/166/55 218/165/55
f 221/165/56 223/166/56 222/167/56
f 223/166/56 224/168/56 222/167/56
f 225/169/57 227/166/57 226/170/57
f 227/166/57 228/164/57 226/170/57
f 229/171/58 231/172/58 230/173/58
f 231/172/58 232/167/58 230/173/58
f 233/174/59 235/165/59 234/173/59
f 235/165/59 236/167/59 234/173/59
f 237/175/60 239/163/60 238/174/60
f 239/163/60 240/165/60 238/174/60
o Eyes.001
v 0.095312 0.360937 0.095312
v 0.095312 0.360937 -0.095312
v 0.095312 0.170312 0.095312
v 0.095312 0.170312 -0.095312
v -0.095312 0.360937 -0.095312
v -0.095312 0.360937 0.095312
v -0.095312 0.170312 -0.095312
v -0.095312 0.170312 0.095312
v -0.095312 0.360937 -0.095312
v 0.095312 0.360937 -0.095312
v -0.095312 0.360937 0.095312
v 0.095312 0.360937 0.095312
v -0.095312 0.170312 0.095312
v 0.095312 0.170312 0.095312
v -0.095312 0.170312 -0.095312
v 0.095312 0.170312 -0.095312
v -0.095312 0.360937 0.095312
v 0.095312 0.360937 0.095312
v -0.095312 0.170312 0.095312
v 0.095312 0.170312 0.095312
v 0.095312 0.360937 -0.095312
v -0.095312 0.360937 -0.095312
v 0.095312 0.170312 -0.095312
v -0.095312 0.170312 -0.095312
vn 1.0000 -0.0000 -0.0000
vn -1.0000 -0.0000 -0.0000
vn -0.0000 1.0000 -0.0000
vn -0.0000 -1.0000 -0.0000
vn -0.0000 -0.0000 1.0000
vn -0.0000 -0.0000 -1.0000
vt 0.500000 0.546875
vt 0.500000 0.593750
vt 0.546875 0.546875
vt 0.546875 0.593750
vt 0.593750 0.546875
vt 0.593750 0.593750
vt 0.546875 0.640625
vt 0.500000 0.640625
vt 0.640625 0.500000
vt 0.640625 0.546875
vt 0.593750 0.500000
vt 0.546875 0.500000
vt 0.500000 0.500000
s 0
usemtl Material_0.001
f 241/176/61 243/177/61 242/178/61
f 243/177/61 244/179/61 242/178/61
f 245/178/62 247/179/62 246/180/62
f 247/179/62 248/181/62 246/180/62
f 249/182/63 251/179/63 250/183/63
f 251/179/63 252/177/63 250/183/63
f 253/184/64 255/185/64 254/186/64
f 255/185/64 256/180/64 254/186/64
f 257/187/65 259/178/65 258/186/65
f 259/178/65 260/180/65 258/186/65
f 261/188/66 263/176/66 262/187/66
f 263/176/66 264/178/66 262/187/66
