# Blender v2.83.4 OBJ File: ''
# www.blender.org
mtllib Jaw Top.mtl
o Cube_Cube.001
v -0.662041 0.703577 -0.636306
v -0.791476 -0.073317 -0.677220
v -0.662041 0.703577 0.636306
v -0.791476 -0.073317 0.677220
v 0.973114 0.656685 -0.596046
v 1.099202 -0.073317 -0.645169
v 0.973114 0.656685 0.596046
v 1.099202 -0.073317 0.645169
v -0.984187 0.361784 -0.827479
v -0.984187 0.361784 0.827479
v 1.104745 0.349992 0.806361
v 1.104745 0.349992 -0.806361
v -1.114454 0.779247 0.277778
v -1.114454 0.779247 -0.277778
v -1.174715 -0.073317 -0.291000
v -1.174715 -0.073317 0.291000
v 2.608697 0.545173 -0.224137
v 2.608697 0.545173 0.224137
v 2.913328 -0.073317 0.194847
v 2.913328 -0.073317 -0.194847
v 3.086671 0.190494 0.230077
v 3.086671 0.190494 -0.230077
v -1.428717 0.396916 -0.333333
v -1.428717 0.396916 0.333333
v -1.377917 -0.027895 0.324867
v -0.956129 -0.027895 0.846555
v 1.117929 -0.027895 0.840145
v 3.068457 -0.033625 -0.274404
v 1.117929 -0.027896 -0.840145
v -0.956129 -0.027896 -0.846555
v -1.377917 -0.027896 -0.324867
v 3.068457 -0.033625 0.274404
v -0.849507 0.065077 0.226977
v -0.475905 0.065077 0.519020
v 0.995326 0.065077 0.480559
v 2.420205 0.065077 -0.150055
v 0.995326 0.065077 -0.480559
v -0.475905 0.065077 -0.519020
v -0.849507 0.065077 -0.226977
v 2.420204 0.065077 0.150055
v -0.850943 0.797646 -0.464156
v -0.992147 0.152649 -0.883597
v -1.325193 -0.027895 0.627378
v -0.911150 0.532636 0.714799
v 0.094920 0.789297 0.682095
v -0.064190 -0.027895 0.922737
v 1.064195 0.512506 0.693791
v 1.745819 0.640046 0.418612
v 2.260543 -0.028040 -0.608852
v 1.064195 0.512506 -0.693791
v 0.094920 0.789297 -0.682095
v -0.064190 -0.027896 -0.922737
v -0.911150 0.532636 -0.714799
v -0.992147 0.152650 0.883597
v 1.122025 0.152650 0.882796
v 1.122025 0.152649 -0.882796
v -0.085167 0.391199 -0.963087
v 2.254131 0.356869 -0.541189
v -0.085167 0.391199 0.963087
v -1.374789 0.396916 0.652778
v -0.850943 0.797646 0.464156
v -0.936953 0.807174 -0.000000
v -1.325193 -0.027896 -0.627378
v -1.377916 -0.027896 0.000000
v 1.745819 0.640046 -0.418612
v 2.585086 0.632000 -0.000000
v 2.260543 -0.028040 0.608852
v 3.377526 -0.027896 0.000000
v 2.254131 0.356869 0.541189
v 3.409195 0.223097 0.000000
v -1.374789 0.396916 -0.652778
v -1.428717 0.396916 -0.000000
v -1.379250 0.635676 -0.324588
v -1.379250 0.635676 0.324588
v 3.010418 0.375789 0.217728
v 3.010418 0.375789 -0.217728
v 3.075595 0.130152 0.247629
v 3.075595 0.130152 -0.247629
v -1.422367 0.152649 -0.332275
v -1.422367 0.152649 0.332275
v -1.126810 -0.073317 0.525777
v 0.019717 -0.073317 0.724797
v 2.149980 -0.073317 -0.437636
v 0.019717 -0.073317 -0.724797
v -1.126810 -0.073317 -0.525777
v -1.174715 -0.073317 0.000000
v 2.149980 -0.073317 0.437637
v 3.181620 -0.073317 0.000000
v -1.276315 -0.097295 0.307933
v -0.873802 -0.097295 0.761888
v 1.108565 -0.097295 0.742657
v 3.000337 -0.097295 -0.250241
v 1.108565 -0.097295 -0.742657
v -0.873802 -0.097295 -0.761888
v -1.276315 -0.097295 -0.307933
v 3.000337 -0.097295 0.250241
v -0.621873 0.078074 0.358539
v 0.202117 0.078074 0.482955
v 1.666932 0.078074 -0.288205
v 0.202117 0.078074 -0.482955
v -0.621873 0.078074 -0.358539
v -0.694517 0.078074 0.000000
v 1.666932 0.078074 0.288205
v 2.380401 0.078074 0.000000
v -0.709669 0.003202 -0.621521
v -1.087070 0.003202 -0.274493
v 2.802055 0.003202 -0.168369
v 1.079330 0.003202 -0.583594
v -1.087070 0.003202 0.274494
v -0.709670 0.003202 0.621521
v 2.802055 0.003202 0.168369
v 1.079330 0.003202 0.583594
v -1.368589 0.152649 0.649603
v -0.082545 0.152650 0.966037
v 2.269375 0.140994 -0.594876
v -0.082545 0.152649 -0.966037
v -0.059302 0.583002 -0.868412
v 2.162055 0.498562 -0.461711
v -0.059302 0.583002 0.868412
v -1.294067 0.592053 0.577851
v -1.294067 0.592053 -0.577851
v -1.364700 0.638429 -0.000000
v 2.162055 0.498562 0.461711
v 3.310678 0.436446 0.000000
v 0.456863 0.815251 -0.000000
v 2.269375 0.140994 0.594876
v 3.404229 0.148809 0.000000
v -1.368589 0.152649 -0.649603
v -1.422367 0.152649 0.000000
v -1.024921 0.004484 -0.485320
v -1.226001 -0.097295 0.576577
v -0.022237 -0.097295 0.823767
v 2.205394 -0.097295 -0.523693
v -0.022237 -0.097295 -0.823767
v -1.226001 -0.097295 -0.576577
v -1.276315 -0.097295 0.000000
v 2.205394 -0.097295 0.523693
v 3.279573 -0.097295 0.000000
v 0.522530 0.111208 0.000000
v 2.067244 0.004484 -0.386207
v -1.024921 0.004484 0.485320
v 3.042309 0.004484 0.000000
v -1.074366 0.004484 0.000000
v 0.058351 0.004484 -0.656790
v 0.058351 0.004484 0.656790
v 2.067244 0.004484 0.386207
vt 0.136671 0.049456
vt 0.164379 0.045966
vt 0.164138 0.077974
vt 0.143636 0.080185
vt 0.186151 0.047593
vt 0.180568 0.077673
vt 0.186995 0.116087
vt 0.168930 0.116329
vt 0.148450 0.117299
vt 0.178004 0.211294
vt 0.150996 0.211733
vt 0.200025 0.212013
vt 0.202760 0.356311
vt 0.179221 0.355858
vt 0.152629 0.354766
vt 0.407251 0.053021
vt 0.415191 0.055153
vt 0.419897 0.164513
vt 0.392546 0.165510
vt 0.435726 0.057534
vt 0.441254 0.165171
vt 0.446367 0.311371
vt 0.422827 0.311825
vt 0.396235 0.312918
vt 0.421616 0.456391
vt 0.394607 0.455953
vt 0.443637 0.455672
vt 0.430608 0.551597
vt 0.412544 0.551356
vt 0.392064 0.550386
vt 0.347685 0.326571
vt 0.370834 0.316096
vt 0.370651 0.453196
vt 0.338311 0.436369
vt 0.370965 0.546085
vt 0.348931 0.521655
vt 0.357155 0.111674
vt 0.383140 0.062105
vt 0.371188 0.174288
vt 0.346663 0.223896
vt 0.105317 0.146032
vt 0.127351 0.121600
vt 0.127040 0.214490
vt 0.094700 0.231319
vt 0.127229 0.351590
vt 0.104079 0.341115
vt 0.080953 0.079863
vt 0.110301 0.058631
vt 0.124039 0.082419
vt 0.085194 0.120183
vt 0.367654 0.585266
vt 0.328810 0.547504
vt 0.387250 0.587499
vt 0.380286 0.618226
vt 0.353918 0.609053
vt 0.324571 0.587823
vt 0.327735 0.647671
vt 0.274113 0.589104
vt 0.368226 0.666086
vt 0.084114 0.020011
vt 0.124608 0.001591
vt 0.030494 0.078585
vt 0.127589 0.493395
vt 0.103062 0.443790
vt 0.148947 0.502172
vt 0.163658 0.614658
vt 0.139546 0.605575
vt 0.113560 0.556009
vt 0.127637 0.655078
vt 0.081644 0.563601
vt 0.158764 0.667567
vt 0.371227 0.012601
vt 0.402354 0.000110
vt 0.325238 0.104084
vt 0.243718 0.385623
vt 0.000110 0.282070
vt 0.176298 0.503167
vt 0.197654 0.502508
vt 0.192132 0.610143
vt 0.171598 0.612525
vt 0.168955 0.667081
vt 0.194032 0.663696
vt 0.412545 0.000596
vt 0.437623 0.003979
vt 0.407752 0.589709
vt 0.424181 0.590011
vt 0.429764 0.620089
vt 0.407993 0.621715
vt 0.409882 0.667567
vt 0.438760 0.662220
vt 0.166268 0.000110
vt 0.195149 0.005458
vt 0.457252 0.614365
vt 0.448481 0.585651
vt 0.464415 0.580319
vt 0.472592 0.610008
vt 0.456271 0.543237
vt 0.469731 0.537018
vt 0.991751 0.144982
vt 0.952044 0.162344
vt 0.922693 0.148020
vt 0.940750 0.128179
vt 0.999890 0.118384
vt 0.969193 0.112028
vt 0.213641 0.053319
vt 0.204869 0.082033
vt 0.192945 0.079201
vt 0.200738 0.050161
vt 0.212659 0.124448
vt 0.200431 0.119670
vt 0.227469 0.219995
vt 0.214819 0.215843
vt 0.230628 0.357487
vt 0.217869 0.356913
vt 0.457893 0.069136
vt 0.469364 0.171158
vt 0.456474 0.168037
vt 0.446231 0.063064
vt 0.474235 0.310195
vt 0.461476 0.310769
vt 0.471081 0.447688
vt 0.458431 0.451841
vt 0.444044 0.548015
vt 0.436557 0.588483
vt 0.444349 0.617521
vt 0.470077 0.652358
vt 0.456043 0.657120
vt 0.226468 0.015322
vt 0.212434 0.010560
vt 0.225763 0.496521
vt 0.212873 0.499642
vt 0.214297 0.598540
vt 0.202636 0.604613
vt 0.215324 0.641870
vt 0.206857 0.652628
vt 0.458918 0.025805
vt 0.450450 0.015047
vt 0.799215 0.083675
vt 0.949978 0.083675
vt 0.838953 0.143732
vt 0.740680 0.143431
vt 0.657436 0.119459
vt 0.564840 0.102069
vt 0.569742 0.083675
vt 0.564840 0.065280
vt 0.657436 0.047891
vt 0.740680 0.023919
vt 0.838953 0.023618
vt 0.922693 0.019329
vt 0.940750 0.039171
vt 0.969193 0.055321
vt 0.483431 0.178945
vt 0.487106 0.311656
vt 0.471900 0.080021
vt 0.607271 0.133118
vt 0.517191 0.105011
vt 0.730009 0.158219
vt 0.220803 0.087366
vt 0.226118 0.130667
vt 0.228982 0.057676
vt 0.991751 0.022367
vt 0.999890 0.048965
vt 0.952044 0.005006
vt 0.473516 0.041267
vt 0.228303 0.587655
vt 0.229921 0.626408
vt 0.487326 0.083674
vt 0.517191 0.062338
vt 0.243498 0.021364
vt 0.487106 0.646318
vt 0.998502 0.083675
vt 0.484224 0.443905
vt 0.856851 0.167240
vt 0.240612 0.223778
vt 0.243498 0.356025
vt 0.856851 0.000110
vt 0.730009 0.009131
vt 0.239829 0.488732
vt 0.607271 0.034231
vn -0.9868 0.1266 0.1009
vn -0.9873 -0.1349 0.0840
vn -0.8157 -0.1098 0.5680
vn -0.7530 0.2566 0.6059
vn -0.8209 -0.5665 0.0715
vn -0.6833 -0.5624 0.4656
vn -0.2599 -0.5517 0.7925
vn -0.3103 -0.0624 0.9486
vn -0.2697 0.3168 0.9093
vn -0.0116 -0.0354 0.9993
vn -0.0154 0.3450 0.9384
vn -0.0086 -0.5486 0.8360
vn 0.1212 -0.5188 0.8462
vn 0.1571 0.0449 0.9865
vn 0.1648 0.3971 0.9028
vn 0.4928 0.2132 -0.8436
vn 0.5009 0.0984 -0.8599
vn 0.3102 0.1407 -0.9402
vn 0.2958 0.3831 -0.8750
vn 0.5004 -0.3563 -0.7891
vn 0.2714 -0.4172 -0.8673
vn 0.1212 -0.5188 -0.8462
vn 0.1571 0.0449 -0.9865
vn 0.1648 0.3971 -0.9028
vn -0.0116 -0.0354 -0.9993
vn -0.0154 0.3450 -0.9384
vn -0.0086 -0.5486 -0.8360
vn -0.2599 -0.5517 -0.7925
vn -0.3103 -0.0624 -0.9486
vn -0.2697 0.3168 -0.9093
vn 0.1511 0.8459 -0.5115
vn 0.1646 0.5904 -0.7902
vn -0.0194 0.5869 -0.8094
vn 0.0444 0.8691 -0.4925
vn -0.1949 0.6040 -0.7728
vn -0.1156 0.8408 -0.5287
vn 0.2257 0.8531 -0.4705
vn 0.3804 0.5906 -0.7117
vn 0.2436 0.6354 -0.7327
vn 0.1499 0.8699 -0.4698
vn -0.1156 0.8408 0.5287
vn -0.1949 0.6040 0.7728
vn -0.0194 0.5869 0.8094
vn 0.0444 0.8691 0.4925
vn 0.1646 0.5904 0.7902
vn 0.1511 0.8459 0.5115
vn -0.2983 0.9491 0.1008
vn -0.7551 0.6418 0.1334
vn -0.5419 0.6412 0.5433
vn -0.1294 0.9397 0.3165
vn -0.5419 0.6412 -0.5433
vn -0.1294 0.9397 -0.3165
vn -0.7530 0.2566 -0.6059
vn -0.9868 0.1266 -0.1009
vn -0.7551 0.6418 -0.1334
vn -0.2983 0.9491 -0.1008
vn -0.7675 0.6410 0.0000
vn -0.1487 0.9889 0.0000
vn -0.9947 0.1026 0.0000
vn 0.2436 0.6354 0.7327
vn 0.1499 0.8699 0.4698
vn 0.2958 0.3831 0.8750
vn 0.4928 0.2132 0.8436
vn 0.3804 0.5906 0.7117
vn 0.2257 0.8531 0.4705
vn 0.7253 0.6884 0.0000
vn 0.1932 0.9811 0.0000
vn 0.9697 0.2443 0.0000
vn 0.0674 0.9977 0.0000
vn 0.3102 0.1407 0.9402
vn 0.2714 -0.4172 0.8673
vn 0.5004 -0.3563 0.7891
vn 0.5009 0.0984 0.8599
vn 0.9995 0.0295 0.0000
vn 0.9220 -0.3871 0.0000
vn -0.8157 -0.1098 -0.5680
vn -0.6833 -0.5624 -0.4656
vn -0.8209 -0.5665 -0.0715
vn -0.9873 -0.1349 -0.0840
vn -0.9911 -0.1333 0.0000
vn -0.8216 -0.5700 0.0000
vn 0.4202 -0.9063 0.0450
vn 0.2826 -0.9337 0.2196
vn 0.3365 -0.8791 0.3375
vn 0.4398 -0.8965 0.0531
vn 0.1229 -0.8850 0.4490
vn 0.1160 -0.8342 0.5391
vn 0.0326 -0.9639 0.2641
vn 0.0761 -0.9916 0.1042
vn 0.1585 -0.9870 0.0267
vn 0.4202 -0.9063 -0.0450
vn 0.2826 -0.9337 -0.2196
vn -0.2075 -0.9642 0.1650
vn -0.2026 -0.9791 0.0156
vn 0.1229 -0.8850 -0.4490
vn -0.0454 -0.9723 0.2291
vn -0.0007 -0.8541 -0.5201
vn 0.0056 -0.9785 0.2060
vn -0.0715 -0.8539 -0.5154
vn 0.0281 -0.9788 0.2030
vn -0.2308 -0.8784 0.4184
vn -0.1349 -0.8533 0.5036
vn 0.0604 -0.9742 -0.2173
vn 0.1295 -0.9567 -0.2606
vn -0.0715 -0.8539 0.5154
vn 0.0281 -0.9788 -0.2030
vn -0.0007 -0.8541 0.5201
vn 0.0056 -0.9785 -0.2060
vn -0.0454 -0.9723 -0.2291
vn -0.2075 -0.9642 -0.1650
vn -0.2026 -0.9791 -0.0156
vn 0.4439 -0.8961 0.0000
vn -0.1827 -0.9832 0.0000
vn -0.1349 -0.8533 -0.5036
vn 0.0604 -0.9742 0.2173
vn -0.2308 -0.8784 -0.4184
vn 0.1295 -0.9567 0.2606
vn -0.2492 -0.9684 0.0000
vn 0.3782 -0.9257 0.0000
vn -0.0030 -1.0000 0.0000
vn 0.0901 -0.9959 0.0000
vn -0.0060 -0.9660 0.2583
vn -0.0314 -0.9605 0.2764
vn -0.0537 -0.9724 0.2268
vn -0.0904 -0.9690 0.2297
vn -0.0644 -0.9979 0.0000
vn -0.0904 -0.9690 -0.2297
vn -0.0537 -0.9724 -0.2268
vn -0.0314 -0.9605 -0.2764
vn -0.0060 -0.9660 -0.2583
vn 0.0326 -0.9639 -0.2641
vn 0.0761 -0.9916 -0.1042
vn 0.1585 -0.9870 -0.0267
vn -0.1403 -0.7991 0.5845
vn -0.0852 -0.7891 0.6083
vn -0.2165 -0.8587 0.4644
vn 0.3365 -0.8791 -0.3375
vn 0.1160 -0.8342 -0.5391
vn 0.4398 -0.8965 -0.0531
vn -0.3948 -0.9187 0.0000
vn -0.2165 -0.8587 -0.4644
vn 0.4326 -0.9016 0.0000
vn -0.0104 -0.7849 0.6195
vn -0.0104 -0.7849 -0.6195
vn -0.0852 -0.7891 -0.6083
vn -0.1403 -0.7991 -0.5845
usemtl Material.003
s 1
f 24/1/1 80/2/2 113/3/3 60/4/4
f 80/2/2 25/5/5 43/6/6 113/3/3
f 113/3/3 43/6/6 26/7/7 54/8/8
f 60/4/4 113/3/3 54/8/8 10/9/9
f 10/9/9 54/8/8 114/10/10 59/11/11
f 54/8/8 26/7/7 46/12/12 114/10/10
f 114/10/10 46/12/12 27/13/13 55/14/14
f 59/11/11 114/10/10 55/14/14 11/15/15
f 22/16/16 78/17/17 115/18/18 58/19/19
f 78/17/17 28/20/20 49/21/21 115/18/18
f 115/18/18 49/21/21 29/22/22 56/23/23
f 58/19/19 115/18/18 56/23/23 12/24/24
f 12/24/24 56/23/23 116/25/25 57/26/26
f 56/23/23 29/22/22 52/27/27 116/25/25
f 116/25/25 52/27/27 30/28/28 42/29/29
f 57/26/26 116/25/25 42/29/29 9/30/30
f 5/31/31 50/32/32 117/33/33 51/34/34
f 50/32/32 12/24/24 57/26/26 117/33/33
f 117/33/33 57/26/26 9/30/30 53/35/35
f 51/34/34 117/33/33 53/35/35 1/36/36
f 17/37/37 76/38/38 118/39/39 65/40/40
f 76/38/38 22/16/16 58/19/19 118/39/39
f 118/39/39 58/19/19 12/24/24 50/32/32
f 65/40/40 118/39/39 50/32/32 5/31/31
f 3/41/41 44/42/42 119/43/43 45/44/44
f 44/42/42 10/9/9 59/11/11 119/43/43
f 119/43/43 59/11/11 11/15/15 47/45/45
f 45/44/44 119/43/43 47/45/45 7/46/46
f 13/47/47 74/48/48 120/49/49 61/50/50
f 74/48/48 24/1/1 60/4/4 120/49/49
f 120/49/49 60/4/4 10/9/9 44/42/42
f 61/50/50 120/49/49 44/42/42 3/41/41
f 1/36/36 53/35/35 121/51/51 41/52/52
f 53/35/35 9/30/30 71/53/53 121/51/51
f 121/51/51 71/53/53 23/54/54 73/55/55
f 41/52/52 121/51/51 73/55/55 14/56/56
f 14/56/56 73/55/55 122/57/57 62/58/58
f 73/55/55 23/54/54 72/59/59 122/57/57
f 122/60/57 72/61/59 24/1/1 74/48/48
f 62/62/58 122/60/57 74/48/48 13/47/47
f 7/46/46 47/45/45 123/63/60 48/64/61
f 47/45/45 11/15/15 69/65/62 123/63/60
f 123/63/60 69/65/62 21/66/63 75/67/64
f 48/64/61 123/63/60 75/67/64 18/68/65
f 18/68/65 75/67/64 124/69/66 66/70/67
f 75/67/64 21/66/63 70/71/68 124/69/66
f 124/72/66 70/73/68 22/16/16 76/38/38
f 66/74/67 124/72/66 76/38/38 17/37/37
f 17/37/37 65/40/40 125/75/69 66/74/67
f 5/31/31 51/34/34 125/75/69 65/40/40
f 1/36/36 41/52/52 125/75/69 51/34/34
f 14/56/56 62/58/58 125/75/69 41/52/52
f 13/47/47 61/50/50 125/76/69 62/62/58
f 3/41/41 45/44/44 125/76/69 61/50/50
f 7/46/46 48/64/61 125/76/69 45/44/44
f 18/68/65 66/70/67 125/76/69 48/64/61
f 11/15/15 55/14/14 126/77/70 69/65/62
f 55/14/14 27/13/13 67/78/71 126/77/70
f 126/77/70 67/78/71 32/79/72 77/80/73
f 69/65/62 126/77/70 77/80/73 21/66/63
f 21/66/63 77/80/73 127/81/74 70/71/68
f 77/80/73 32/79/72 68/82/75 127/81/74
f 127/83/74 68/84/75 28/20/20 78/17/17
f 70/73/68 127/83/74 78/17/17 22/16/16
f 9/30/30 42/29/29 128/85/76 71/53/53
f 42/29/29 30/28/28 63/86/77 128/85/76
f 128/85/76 63/86/77 31/87/78 79/88/79
f 71/53/53 128/85/76 79/88/79 23/54/54
f 23/54/54 79/88/79 129/89/80 72/59/59
f 79/88/79 31/87/78 64/90/81 129/89/80
f 129/91/80 64/92/81 25/5/5 80/2/2
f 72/61/59 129/91/80 80/2/2 24/1/1
f 15/93/82 85/94/83 130/95/84 106/96/85
f 85/94/83 2/97/86 105/98/87 130/95/84
f 130/99/84 105/100/87 38/101/88 101/102/89
f 106/103/85 130/99/84 101/102/89 39/104/90
f 16/105/91 81/106/92 131/107/93 89/108/94
f 81/106/92 4/109/95 90/110/96 131/107/93
f 131/107/93 90/110/96 26/7/7 43/6/6
f 89/108/94 131/107/93 43/6/6 25/5/5
f 4/109/95 82/111/97 132/112/98 90/110/96
f 82/111/97 8/113/99 91/114/100 132/112/98
f 132/112/98 91/114/100 27/13/13 46/12/12
f 90/110/96 132/112/98 46/12/12 26/7/7
f 20/115/101 83/116/102 133/117/103 92/118/104
f 83/116/102 6/119/105 93/120/106 133/117/103
f 133/117/103 93/120/106 29/22/22 49/21/21
f 92/118/104 133/117/103 49/21/21 28/20/20
f 6/119/105 84/121/107 134/122/108 93/120/106
f 84/121/107 2/97/86 94/123/109 134/122/108
f 134/122/108 94/123/109 30/28/28 52/27/27
f 93/120/106 134/122/108 52/27/27 29/22/22
f 2/97/86 85/94/83 135/124/110 94/123/109
f 85/94/83 15/93/82 95/125/111 135/124/110
f 135/124/110 95/125/111 31/87/78 63/86/77
f 94/123/109 135/124/110 63/86/77 30/28/28
f 15/93/82 86/126/112 136/127/113 95/125/111
f 86/128/112 16/105/91 89/108/94 136/129/113
f 136/129/113 89/108/94 25/5/5 64/92/81
f 95/125/111 136/127/113 64/90/81 31/87/78
f 8/113/99 87/130/114 137/131/115 91/114/100
f 87/130/114 19/132/116 96/133/117 137/131/115
f 137/131/115 96/133/117 32/79/72 67/78/71
f 91/114/100 137/131/115 67/78/71 27/13/13
f 19/132/116 88/134/118 138/135/119 96/133/117
f 88/136/118 20/115/101 92/118/104 138/137/119
f 138/137/119 92/118/104 28/20/20 68/84/75
f 96/133/117 138/135/119 68/82/75 32/79/72
f 39/104/90 101/102/89 139/138/120 102/139/121
f 38/101/88 100/140/122 139/138/120 101/102/89
f 37/141/123 99/142/124 139/138/120 100/140/122
f 36/143/125 104/144/126 139/138/120 99/142/124
f 40/145/127 103/146/128 139/138/120 104/144/126
f 35/147/129 98/148/130 139/138/120 103/146/128
f 34/149/131 97/150/132 139/138/120 98/148/130
f 33/151/133 102/139/121 139/138/120 97/150/132
f 6/119/105 83/116/102 140/152/134 108/153/135
f 83/116/102 20/115/101 107/154/136 140/152/134
f 140/155/134 107/156/136 36/143/125 99/142/124
f 108/157/135 140/155/134 99/142/124 37/141/123
f 4/109/95 81/106/92 141/158/137 110/159/138
f 81/106/92 16/105/91 109/160/139 141/158/137
f 141/161/137 109/162/139 33/151/133 97/150/132
f 110/163/138 141/161/137 97/150/132 34/149/131
f 20/115/101 88/136/118 142/164/140 107/154/136
f 88/134/118 19/132/116 111/165/141 142/166/140
f 142/167/140 111/168/141 40/145/127 104/144/126
f 107/156/136 142/167/140 104/144/126 36/143/125
f 16/105/91 86/128/112 143/169/142 109/160/139
f 86/126/112 15/93/82 106/96/85 143/170/142
f 143/171/142 106/103/85 39/104/90 102/139/121
f 109/162/139 143/171/142 102/139/121 33/151/133
f 2/97/86 84/121/107 144/172/143 105/98/87
f 84/121/107 6/119/105 108/153/135 144/172/143
f 144/173/143 108/157/135 37/141/123 100/140/122
f 105/100/87 144/173/143 100/140/122 38/101/88
f 8/113/99 82/111/97 145/174/144 112/175/145
f 82/111/97 4/109/95 110/159/138 145/174/144
f 145/176/144 110/163/138 34/149/131 98/148/130
f 112/177/145 145/176/144 98/148/130 35/147/129
f 19/132/116 87/130/114 146/178/146 111/165/141
f 87/130/114 8/113/99 112/175/145 146/178/146
f 146/179/146 112/177/145 35/147/129 103/146/128
f 111/168/141 146/179/146 103/146/128 40/145/127
