# Blender v3.2.2 OBJ File: ''
# www.blender.org
mtllib LEEK.mtl
o _4_0
v 1.116764 4.187959 0.607811
v 0.709946 3.178398 0.731605
v 0.749238 1.185208 -0.502507
v 0.921378 2.540239 -0.313401
v 1.540217 4.301845 0.043321
v 1.540217 4.301845 0.043321
v -0.045275 3.085585 -0.004747
v 0.131250 3.073345 0.084976
v -0.053356 3.879570 0.163855
v 0.198419 3.880825 0.239323
v -0.300368 3.675584 -0.140946
v -0.188253 3.731604 -0.313703
v -0.364315 3.723476 -0.379140
v 0.198419 3.880825 0.239323
v 0.149960 3.908305 0.028244
v -0.053356 3.879570 0.163855
v -0.364315 3.723476 -0.379140
v -0.231606 3.125970 -0.345760
v -0.300368 3.675584 -0.140946
v -0.192746 3.100650 -0.158440
v 0.202810 3.928659 -0.181743
v 0.194081 3.136042 -0.254129
v -0.028873 3.909205 -0.084479
v 0.005171 3.115671 -0.171613
v 0.358790 3.921317 0.001324
v 0.198419 3.880825 0.239323
v 0.287713 3.107095 -0.102204
v 0.131250 3.073345 0.084976
v -0.078507 3.174942 -0.445764
v -0.170622 3.780827 -0.475879
v 0.255124 2.255235 -0.144669
v 0.151569 2.236319 -0.017176
v 0.020919 2.310611 -0.332555
v -0.093262 2.300390 -0.238650
v -0.031659 2.857224 -0.163741
v -0.045275 3.085585 -0.004747
v -0.031659 2.857224 -0.163741
v -0.034641 2.262119 -0.089064
v 0.002740 1.007507 -0.208639
v -0.041039 1.005352 -0.125919
v 0.005323 -0.022856 -0.202411
v -0.031975 -0.021991 -0.124567
v -0.041039 1.005352 -0.125919
v 0.008354 0.992896 -0.040728
v 0.013875 -0.026720 -0.051489
v 0.108265 0.996149 -0.185458
v 0.155305 0.988574 -0.138055
v 0.105968 -0.030261 -0.180956
v 0.145972 -0.033861 -0.133552
v -0.031659 2.857224 -0.163741
v 0.067337 3.164884 -0.314726
v -0.003012 3.115845 -0.176710
v -0.003012 3.115845 -0.176710
v -0.034447 3.694752 -0.140194
v -0.192746 3.100650 -0.158440
v -0.300368 3.675584 -0.140946
v -0.034447 3.694752 -0.140194
v -0.000703 3.755779 -0.322488
v -0.034641 2.262119 -0.089064
v -0.031659 2.857224 -0.163741
v -0.034641 2.262119 -0.089064
v 0.067337 3.164884 -0.314726
v -0.078507 3.174942 -0.445764
v -0.000703 3.755779 -0.322488
v -0.170622 3.780827 -0.475879
v 0.194437 2.283426 -0.257485
v 0.020919 2.310611 -0.332555
v 0.008354 0.992896 -0.040728
v 0.013875 -0.026720 -0.051489
v 0.117603 0.983768 -0.042537
v 0.112214 -0.033592 -0.042035
v -0.034641 2.262119 -0.089064
v 0.151569 2.236319 -0.017176
v 0.005171 3.115671 -0.171613
v -0.028873 3.909205 -0.084479
v -0.053356 3.879570 0.163855
v 0.202810 3.928659 -0.181743
v 0.194081 3.136042 -0.254129
v 0.194437 2.283426 -0.257485
v 0.358790 3.921317 0.001324
v -0.028873 3.909205 -0.084479
v 0.202810 3.928659 -0.181743
v -0.034447 3.694752 -0.140194
v -0.000703 3.755779 -0.322488
v -0.170622 3.780827 -0.475879
v -0.000703 3.755779 -0.322488
v -0.170622 3.780827 -0.475879
v 0.155305 0.988574 -0.138055
v 0.117603 0.983768 -0.042537
v 0.112214 -0.033592 -0.042035
v 0.002740 1.007507 -0.208639
v 0.108265 0.996149 -0.185458
v 0.005323 -0.022856 -0.202411
v 0.105968 -0.030261 -0.180956
v 0.194437 2.283426 -0.257485
vt 0.822183 0.370505
vt 0.823213 0.200603
vt 0.727990 0.245954
vt 0.898750 0.232277
vt 0.770881 0.045722
vt 0.858607 0.042918
vt 0.137369 0.812254
vt 0.152047 0.812254
vt 0.137369 0.937549
vt 0.152047 0.937549
vt 0.727990 0.245954
vt 0.823213 0.200603
vt 0.822183 0.370505
vt 0.252106 0.937549
vt 0.252106 0.812254
vt 0.264953 0.937549
vt 0.264953 0.812254
vt 0.183292 0.937549
vt 0.183292 0.812254
vt 0.194852 0.937549
vt 0.194880 0.812254
vt 0.170417 0.937549
vt 0.152047 0.937549
vt 0.170417 0.812254
vt 0.152047 0.812254
vt 0.235567 0.812254
vt 0.235567 0.937549
vt 0.170417 0.709936
vt 0.152047 0.709936
vt 0.235567 0.709936
vt 0.252106 0.709936
vt 0.194852 0.709936
vt 0.137369 0.812254
vt 0.127984 0.709936
vt 0.141032 0.709936
vt 0.235567 0.435713
vt 0.252106 0.435713
vt 0.235567 0.144980
vt 0.252106 0.144980
vt 0.252106 0.435713
vt 0.263036 0.435713
vt 0.263036 0.144980
vt 0.180059 0.435713
vt 0.169501 0.435713
vt 0.179573 0.144980
vt 0.168557 0.144980
vt 0.208157 0.709936
vt 0.219087 0.812254
vt 0.208157 0.812254
vt 0.281491 0.812254
vt 0.281491 0.937549
vt 0.264953 0.812254
vt 0.264953 0.937549
vt 0.208157 0.937549
vt 0.219087 0.937549
vt 0.263036 0.709936
vt 0.281491 0.709936
vt 0.263036 0.709936
vt 0.219087 0.812254
vt 0.235567 0.812254
vt 0.219087 0.937549
vt 0.235567 0.937549
vt 0.222721 0.709936
vt 0.235567 0.709936
vt 0.140116 0.435713
vt 0.139172 0.144980
vt 0.151132 0.435713
vt 0.150188 0.144980
vt 0.141032 0.709936
vt 0.152047 0.709936
vt 0.127984 0.812254
vt 0.127984 0.937549
vt 0.137369 0.937549
vt 0.183292 0.937549
vt 0.183292 0.812254
vt 0.180545 0.709936
vt 0.770881 0.019370
vt 0.858607 0.042918
vt 0.898750 0.232277
vt 0.858607 0.042918
vt 0.898750 0.232277
vt 0.169501 0.435713
vt 0.151132 0.435713
vt 0.150188 0.144980
vt 0.235567 0.435713
vt 0.222721 0.435713
vt 0.235567 0.144980
vt 0.222721 0.144980
vt 0.180545 0.709936
vn -0.0467 0.9891 0.1395
vn -0.0437 0.9893 0.1388
vn -0.0655 0.9916 0.1119
vn -0.0512 0.9952 0.0836
vn -0.0482 0.9953 0.0844
vn -0.4563 -0.1431 0.8782
vn -0.4340 -0.1430 0.8895
vn -0.3090 -0.1624 0.9371
vn -0.2828 -0.1573 0.9462
vn -0.0969 0.9635 0.2496
vn -0.1135 0.9570 0.2670
vn -0.1369 0.9587 0.2492
vn -0.8332 -0.1937 -0.5178
vn -0.8872 -0.2028 -0.4144
vn -0.9578 -0.1976 0.2087
vn -0.9689 -0.1607 0.1883
vn -0.3919 0.0880 -0.9158
vn -0.3972 0.0520 -0.9163
vn -0.3942 0.0871 -0.9149
vn -0.4046 0.0540 -0.9129
vn 0.9951 -0.0793 -0.0598
vn 0.8214 -0.1483 0.5508
vn 0.9974 -0.0621 0.0371
vn 0.7727 -0.1196 0.6233
vn -0.4925 -0.1575 -0.8559
vn -0.4183 -0.1084 -0.9018
vn 0.9952 -0.0659 0.0730
vn 0.7838 -0.0571 0.6184
vn -0.6142 -0.1359 -0.7774
vn -0.9550 -0.1369 -0.2630
vn -0.3815 0.0093 -0.9243
vn -0.9718 0.0418 -0.2321
vn -0.9925 0.0240 -0.1195
vn -0.9969 -0.0048 -0.0784
vn -0.8762 -0.0420 -0.4802
vn -0.8832 -0.0396 -0.4672
vn -0.9008 -0.0083 -0.4341
vn -0.9979 -0.0106 0.0636
vn -0.8685 -0.0086 0.4955
vn -0.8651 -0.0086 0.5015
vn -0.8473 -0.0102 0.5310
vn 0.7128 -0.0348 -0.7005
vn 0.7081 -0.0306 -0.7054
vn 0.7617 -0.0096 -0.6478
vn 0.9869 -0.0085 -0.1613
vn 0.7143 0.1094 0.6912
vn 0.8741 0.0297 0.4848
vn 0.8958 -0.0386 0.4429
vn 0.0968 -0.0123 0.9952
vn 0.0199 -0.0360 0.9992
vn 0.0986 0.0024 0.9951
vn -0.0006 -0.0305 0.9995
vn 0.9614 0.1002 0.2564
vn 0.9693 0.1145 0.2177
vn -0.9332 -0.0623 0.3540
vn 0.1882 0.1033 0.9767
vn 0.2141 0.1206 0.9693
vn 0.6529 0.0197 -0.7572
vn 0.6697 0.0291 -0.7420
vn 0.6731 0.0662 -0.7366
vn 0.6740 0.0659 -0.7358
vn 0.4755 -0.0393 -0.8788
vn 0.4113 -0.0425 -0.9105
vn -0.0034 -0.0137 0.9999
vn -0.0884 0.0002 0.9961
vn 0.0118 -0.0150 0.9998
vn -0.0956 0.0010 0.9954
vn -0.3729 -0.0537 0.9263
vn -0.3554 -0.0456 0.9336
vn -0.9585 0.0528 -0.2802
vn -0.9923 0.0078 -0.1237
vn -0.9952 0.0104 -0.0969
vn 0.7751 0.0190 -0.6316
vn 0.8529 0.0216 -0.5216
vn 0.8736 -0.0415 -0.4849
vn -0.0895 0.9552 0.2822
vn -0.1083 0.9486 0.2975
vn -0.1100 0.9543 0.2777
vn -0.1453 0.9510 0.2729
vn 0.9258 -0.0214 0.3775
vn 0.9306 -0.0193 0.3656
vn 0.9382 -0.0048 0.3461
vn 0.2187 -0.0403 -0.9750
vn 0.2106 -0.0354 -0.9769
vn 0.2085 -0.0048 -0.9780
vn 0.2082 -0.0048 -0.9781
vn -0.3754 0.0035 -0.9268
usemtl Mdl_0_Mtl_m010_negic_01
s off
f 14/1/1 15/2/1 16/3/1
f 80/4/2 15/2/2 14/1/2
f 81/5/3 16/3/3 15/2/3
f 82/6/4 15/2/4 80/4/4
f 81/5/5 15/2/5 82/6/5
s 1
f 7/7/6 8/8/7 9/9/8
f 9/9/8 8/8/7 10/10/9
f 11/11/10 12/12/11 13/13/12
f 17/14/13 18/15/14 19/16/15
f 19/16/15 18/15/14 20/17/16
f 21/18/17 22/19/18 23/20/19
f 23/20/19 22/19/18 24/21/20
f 25/22/21 26/23/22 27/24/23
f 27/24/23 26/23/22 28/25/24
f 17/14/13 29/26/25 18/15/14
f 30/27/26 29/26/25 17/14/13
f 27/24/23 28/25/24 31/28/27
f 31/28/27 28/25/24 32/29/28
f 29/26/25 33/30/29 18/15/14
f 18/15/14 34/31/30 20/17/16
f 18/15/14 33/30/29 34/31/30
f 35/32/31 24/21/20 22/19/18
f 36/33/32 37/34/33 38/35/34
f 33/30/29 39/36/35 34/31/30
f 34/31/30 39/36/35 40/37/36
f 39/36/35 41/38/37 40/37/36
f 40/37/36 41/38/37 42/39/38
f 43/40/39 42/39/38 44/41/40
f 44/41/40 42/39/38 45/42/41
f 46/43/42 31/28/27 47/44/43
f 46/43/42 47/44/43 48/45/44
f 48/45/44 47/44/43 49/46/45
f 50/47/46 51/48/47 52/49/48
f 53/50/49 54/51/50 55/52/51
f 55/52/51 54/51/50 56/53/52
f 52/49/48 51/48/47 57/54/53
f 57/54/53 51/48/47 58/55/54
f 20/17/16 34/31/30 59/56/55
f 59/56/55 43/40/39 44/41/40
f 34/31/30 43/40/39 59/56/55
f 60/57/56 53/50/49 55/52/51
f 60/57/56 55/52/51 61/58/57
f 62/59/58 63/60/59 64/61/60
f 64/61/60 63/60/59 65/62/61
f 66/63/62 51/48/47 50/47/46
f 66/63/62 67/64/63 62/59/58
f 62/59/58 67/64/63 63/60/59
f 68/65/64 69/66/65 70/67/66
f 70/67/66 69/66/65 71/68/67
f 7/7/6 72/69/68 8/8/7
f 8/8/7 72/69/68 73/70/69
f 73/70/69 68/65/64 70/67/66
f 72/69/68 68/65/64 73/70/69
f 74/71/70 37/34/33 36/33/32
f 74/71/70 36/33/32 75/72/71
f 75/72/71 36/33/32 76/73/72
f 25/22/21 27/24/23 77/74/73
f 77/74/73 27/24/23 78/75/74
f 27/24/23 79/76/75 78/75/74
f 31/28/27 79/76/75 27/24/23
f 79/76/75 31/28/27 46/43/42
f 83/77/76 12/12/11 11/11/10
f 84/78/77 12/12/11 83/77/76
f 85/79/78 12/12/11 86/80/78
f 13/13/12 12/12/11 87/81/79
f 31/28/27 32/29/28 88/82/80
f 88/82/80 89/83/81 49/46/45
f 88/82/80 32/29/28 89/83/81
f 49/46/45 89/83/81 90/84/82
f 67/64/63 66/63/62 91/85/83
f 91/85/83 66/63/62 92/86/84
f 91/85/83 92/86/84 93/87/85
f 93/87/85 92/86/84 94/88/86
f 35/32/31 22/19/18 95/89/87
