# Blender 4.4.0
# www.blender.org
mtllib Sphere2.mtl
o m0
v 0.000000 -17.500624 0.000001
v -3.260625 -16.976252 3.260626
v 0.000000 -17.230623 3.382501
v -3.165000 -16.098125 6.566252
v 0.000000 -16.343124 6.733752
v 0.000000 -14.811873 9.871251
v 3.165000 -16.098125 6.566252
v 3.060000 -14.584999 9.658126
v 6.000000 -13.914373 9.208126
v 3.033125 -12.412498 12.412500
v 5.903750 -11.844374 11.844376
v 6.000000 -9.208124 13.914375
v 8.393125 -11.031874 11.031876
v 8.588751 -8.588750 12.910625
v 11.031875 -8.393124 11.031876
v 9.208125 -5.999999 13.914374
v 11.844375 -5.903749 11.844375
v 12.412499 -3.033124 12.412499
v 13.914374 -6.000000 9.208125
v 14.585000 -3.059999 9.658125
v 16.098125 -3.164999 6.566251
v 14.811874 0.000001 9.871250
v 16.343124 0.000001 6.733750
v 16.098125 3.165000 6.566250
v 17.230623 0.000000 3.382500
v 16.976252 3.260625 3.260625
v 17.230623 3.382500 -0.000000
v 16.098125 6.566251 3.164999
v 16.343124 6.733750 -0.000001
v 14.811874 9.871250 -0.000001
v 16.098125 6.566250 -3.165000
v 14.585000 9.658125 -3.060001
v 13.914374 9.208125 -6.000000
v 12.412499 12.412499 -3.033126
v 11.844375 11.844375 -5.903751
v 9.208125 13.914374 -6.000001
v 11.031875 11.031874 -8.393126
v 8.588751 12.910624 -8.588752
v 8.393125 11.031874 -11.031876
v 6.000000 13.914373 -9.208126
v 5.903750 11.844374 -11.844376
v 3.033125 12.412498 -12.412500
v 6.000000 9.208124 -13.914375
v 3.060000 9.658124 -14.585001
v 3.165000 6.566249 -16.098125
v 0.000000 9.871249 -14.811875
v 0.000000 6.733749 -16.343124
v -3.260625 -16.976252 -3.260624
v -3.382500 -17.230623 0.000001
v -6.566250 -16.098125 -3.164999
v -6.733750 -16.343124 0.000001
v -9.871250 -14.811874 0.000001
v -6.566250 -16.098125 3.165001
v -9.658125 -14.585000 3.060001
v -9.208125 -13.914374 6.000001
v -12.412499 -12.412499 3.033126
v -11.844375 -11.844375 5.903751
v -13.914374 -9.208125 6.000000
v -11.031875 -11.031874 8.393126
v -12.910625 -8.588750 8.588752
v -11.031875 -8.393124 11.031876
v -13.914374 -6.000000 9.208125
v -11.844375 -5.903749 11.844375
v -12.412499 -3.033124 12.412499
v -9.208125 -5.999999 13.914374
v -9.658125 -3.059999 14.585000
v -6.566250 -3.164999 16.098125
v -9.871250 0.000001 14.811874
v -6.733750 0.000001 16.343124
v -6.566250 3.165001 16.098125
v -3.382500 0.000001 17.230623
v -3.260625 3.260626 16.976252
v 0.000000 3.382501 17.230623
v -3.165000 6.566252 16.098125
v 0.000000 6.733752 16.343124
v 0.000000 9.871251 14.811873
v 3.165000 6.566252 16.098125
v 3.060000 9.658126 14.584999
v 6.000000 9.208126 13.914373
v 3.033125 12.412500 12.412498
v 5.903750 11.844376 11.844374
v 6.000000 13.914375 9.208124
v 8.393125 11.031876 11.031874
v 8.588751 12.910625 8.588750
v 11.031875 11.031876 8.393124
v 9.208125 13.914374 5.999999
v 11.844375 11.844375 5.903749
v 12.412499 12.412499 3.033124
v 13.914374 9.208125 6.000000
v 14.585000 9.658125 3.059999
v 0.000000 17.500624 -0.000001
v 3.260625 16.976252 3.260624
v 0.000000 17.230623 3.382499
v 3.165000 16.098125 6.566249
v 0.000000 16.343124 6.733749
v 0.000000 14.811875 9.871249
v -3.165000 16.098125 6.566249
v -3.060000 14.585001 9.658124
v -6.000000 13.914375 9.208124
v -3.033125 12.412500 12.412498
v -5.903750 11.844376 11.844374
v -6.000000 9.208126 13.914373
v -8.393125 11.031876 11.031874
v -8.588751 8.588752 12.910624
v -11.031875 8.393126 11.031874
v -9.208125 6.000001 13.914374
v -11.844375 5.903751 11.844375
v -12.412499 3.033126 12.412499
v -13.914374 6.000000 9.208125
v -14.585000 3.060001 9.658125
v -16.098125 3.165000 6.566250
v -14.811874 0.000001 9.871250
v -16.343124 0.000001 6.733750
v -16.098125 -3.164999 6.566251
v -17.230623 0.000000 3.382500
v -16.976252 -3.260625 3.260625
v -17.230623 -3.382500 0.000000
v -16.098125 -6.566250 3.165000
v -16.343124 -6.733750 0.000001
v -14.811874 -9.871250 0.000001
v -16.098125 -6.566251 -3.164999
v -14.585000 -9.658125 -3.059999
v -13.914374 -9.208125 -6.000000
v -12.412499 -12.412499 -3.033124
v -11.844375 -11.844375 -5.903749
v -9.208125 -13.914374 -5.999999
v -11.031875 -11.031876 -8.393124
v -8.588751 -12.910625 -8.588750
v -8.393125 -11.031876 -11.031874
v -6.000000 -13.914375 -9.208124
v -5.903750 -11.844376 -11.844374
v -3.033125 -12.412500 -12.412498
v -6.000000 -9.208126 -13.914373
v -3.060000 -9.658126 -14.584999
v -3.165000 -6.566252 -16.098125
v 0.000000 -9.871251 -14.811873
v 15.293751 6.283751 6.283750
v 13.914374 6.000000 9.208125
v 12.910625 8.588752 8.588750
v 11.031875 8.393126 11.031874
v 10.193125 10.193126 10.193124
v 8.588751 8.588752 12.910624
v 9.208125 6.000001 13.914374
v 6.283750 6.283751 15.293751
v 6.566250 3.165001 16.098125
v 3.260625 3.260626 16.976252
v 3.382500 0.000001 17.230623
v 0.000000 0.000001 17.500624
v 0.000000 -3.382499 17.230623
v -3.260625 -3.260624 16.976252
v -3.165000 -6.566249 16.098125
v -6.283750 -6.283749 15.293751
v -6.000000 -9.208124 13.914375
v -8.588751 -8.588750 12.910625
v -8.393125 -11.031874 11.031876
v -3.260625 16.976252 3.260624
v -3.382500 17.230623 -0.000001
v -6.566250 16.098125 3.164999
v -6.733750 16.343124 -0.000001
v -9.871250 14.811874 -0.000001
v -6.566250 16.098125 -3.165001
v -9.658125 14.585000 -3.060001
v -9.208125 13.914374 -6.000001
v -12.412499 12.412499 -3.033126
v -11.844375 11.844375 -5.903751
v -13.914374 9.208125 -6.000000
v -11.031875 11.031874 -8.393126
v -12.910625 8.588750 -8.588752
v -11.031875 8.393124 -11.031876
v -13.914374 6.000000 -9.208125
v -11.844375 5.903749 -11.844375
v -12.412499 3.033124 -12.412499
v -9.208125 5.999999 -13.914374
v -9.658125 3.059999 -14.585000
v -6.566250 3.164999 -16.098125
v -9.871250 -0.000001 -14.811874
v -6.733750 -0.000001 -16.343124
v -6.566250 -3.165001 -16.098125
v -3.382500 -0.000001 -17.230623
v -3.260625 -3.260626 -16.976252
v 0.000000 -3.382501 -17.230623
v 0.000000 -6.733752 -16.343124
v 3.260625 -16.976252 3.260626
v 3.382500 -17.230623 0.000001
v 6.566250 -16.098125 3.165001
v 6.733750 -16.343124 0.000001
v 9.871250 -14.811874 0.000001
v 6.566250 -16.098125 -3.164999
v 9.658125 -14.585000 -3.059999
v 9.208125 -13.914374 -5.999999
v 12.412499 -12.412499 -3.033124
v 11.844375 -11.844375 -5.903749
v 13.914374 -9.208125 -6.000000
v 11.031875 -11.031876 -8.393124
v 12.910625 -8.588752 -8.588750
v 11.031875 -8.393126 -11.031874
v 13.914374 -6.000000 -9.208125
v 11.844375 -5.903751 -11.844375
v 12.412499 -3.033126 -12.412499
v 9.208125 -6.000001 -13.914374
v 9.658125 -3.060001 -14.585000
v 6.566250 -3.165001 -16.098125
v 9.871250 -0.000001 -14.811874
v 6.733750 -0.000001 -16.343124
v 6.566250 3.164999 -16.098125
v 3.382500 -0.000001 -17.230623
v 3.260625 3.260624 -16.976252
v 0.000000 3.382499 -17.230623
v -15.293751 -6.283750 6.283751
v -14.585000 -3.059999 9.658125
v -12.636875 0.000001 12.636875
v -9.658125 3.060001 14.585000
v -6.283750 6.283751 15.293751
v -3.060000 9.658126 14.584999
v 0.000000 12.636876 12.636874
v 3.060000 14.585001 9.658124
v 14.585000 3.060001 9.658125
v 12.412499 3.033126 12.412499
v 12.636875 0.000001 12.636875
v 9.871250 0.000001 14.811874
v 9.658125 -3.059999 14.585000
v 6.566250 -3.164999 16.098125
v 6.283750 -6.283749 15.293751
v 3.165000 -6.566249 16.098125
v 3.060000 -9.658124 14.585001
v 0.000000 -9.871249 14.811875
v 0.000000 -12.636874 12.636876
v -3.033125 -12.412498 12.412500
v -3.060000 -14.584999 9.658126
v -6.000000 -13.914373 9.208126
v -6.283750 -6.283751 -15.293751
v -9.208125 -6.000001 -13.914374
v -8.588751 -8.588752 -12.910624
v -11.031875 -8.393126 -11.031874
v -10.193125 -10.193126 -10.193124
v -12.910625 -8.588752 -8.588750
v -13.914374 -6.000000 -9.208125
v -15.293751 -6.283751 -6.283750
v -16.098125 -3.165000 -6.566250
v -16.976252 -3.260625 -3.260625
v -17.230623 -0.000000 -3.382500
v 6.283750 -15.293751 6.283751
v 9.208125 -13.914374 6.000001
v 8.588751 -12.910624 8.588752
v 11.031875 -11.031874 8.393126
v 10.193125 -10.193124 10.193126
v -3.260625 16.976252 -3.260626
v -3.165000 16.098125 -6.566252
v -6.283750 15.293751 -6.283751
v -6.000000 13.914373 -9.208126
v -8.588751 12.910624 -8.588752
v -8.393125 11.031874 -11.031876
v -10.193125 10.193124 -10.193126
v -6.283750 -15.293751 6.283751
v -8.588751 -12.910624 8.588752
v -10.193125 -10.193124 10.193126
v 3.260625 -16.976252 -3.260624
v 3.165000 -16.098125 -6.566249
v 6.283750 -15.293751 -6.283749
v 6.000000 -13.914375 -9.208124
v 8.588751 -12.910625 -8.588750
v 8.393125 -11.031876 -11.031874
v 10.193125 -10.193126 -10.193124
v -6.283750 15.293751 6.283749
v -9.208125 13.914374 5.999999
v -8.588751 12.910625 8.588750
v -11.031875 11.031876 8.393124
v -10.193125 10.193126 10.193124
v 3.260625 -3.260624 16.976252
v 0.000000 -6.733749 16.343124
v -3.060000 -9.658124 14.585001
v -5.903750 -11.844374 11.844376
v 0.000000 -0.000001 -17.500624
v -3.260625 3.260624 -16.976252
v -3.165000 6.566249 -16.098125
v -6.283750 6.283749 -15.293751
v -6.000000 9.208124 -13.914375
v -8.588751 8.588750 -12.910625
v 12.636875 -12.636875 0.000001
v 14.811874 -9.871250 0.000001
v 12.412499 -12.412499 3.033126
v 14.585000 -9.658125 3.060001
v 13.914374 -9.208125 6.000000
v 16.098125 -6.566250 3.165000
v 15.293751 -6.283750 6.283751
v 12.910625 8.588750 -8.588752
v 13.914374 6.000000 -9.208125
v 11.031875 8.393124 -11.031876
v 11.844375 5.903749 -11.844375
v 9.208125 5.999999 -13.914374
v 12.412499 3.033124 -12.412499
v 9.658125 3.059999 -14.585000
v -15.293751 6.283750 -6.283751
v -16.098125 3.164999 -6.566251
v -16.098125 6.566250 -3.165000
v -16.976252 3.260625 -3.260625
v -17.230623 3.382500 -0.000000
v -17.500624 0.000000 0.000000
v -16.976252 3.260625 3.260625
v -16.098125 6.566251 3.164999
v -16.343124 6.733750 -0.000001
v -14.811874 9.871250 -0.000001
v -14.585000 9.658125 -3.060001
v 15.293751 -6.283751 -6.283750
v 16.098125 -3.165000 -6.566250
v 16.098125 -6.566251 -3.164999
v 16.976252 -3.260625 -3.260625
v 17.230623 -3.382500 0.000000
v 17.230623 -0.000000 -3.382500
v 17.500624 0.000000 0.000000
v 16.976252 -3.260625 3.260625
v 16.343124 -6.733750 0.000001
v 14.585000 -9.658125 -3.059999
v -9.658125 -3.060001 -14.585000
v -12.412499 -3.033126 -12.412499
v -12.636875 -0.000001 -12.636875
v -14.811874 -0.000001 -9.871250
v -14.585000 3.059999 -9.658125
v 3.260625 16.976252 -3.260626
v 3.382500 17.230623 -0.000001
v 6.566250 16.098125 -3.165001
v 6.733750 16.343124 -0.000001
v 9.871250 14.811874 -0.000001
v 6.566250 16.098125 3.164999
v 9.658125 14.585000 3.059999
v 14.585000 3.059999 -9.658125
v 16.098125 3.164999 -6.566251
v 14.811874 -0.000001 -9.871250
v 16.343124 -0.000001 -6.733750
v -14.585000 9.658125 3.059999
v -13.914374 9.208125 6.000000
v -12.412499 12.412499 3.033124
v -11.844375 11.844375 5.903749
v 3.165000 -6.566252 -16.098125
v 3.060000 -9.658126 -14.584999
v 6.000000 -9.208126 -13.914373
v 3.033125 -12.412500 -12.412498
v 5.903750 -11.844376 -11.844374
v 6.283750 15.293751 6.283749
v 0.000000 -17.230623 -3.382499
v -3.165000 -16.098125 -6.566249
v -6.283750 -15.293751 -6.283749
v 0.000000 17.230623 -3.382501
v 3.165000 16.098125 -6.566252
v 6.283750 15.293751 -6.283751
v 12.910625 -8.588750 8.588752
v 11.844375 -11.844375 5.903751
v 9.658125 -14.585000 3.060001
v 6.283750 6.283749 -15.293751
v 8.588751 8.588750 -12.910625
v -12.636875 -12.636875 0.000001
v 3.060000 14.584999 -9.658126
v 0.000000 14.811873 -9.871251
v 0.000000 12.636874 -12.636876
v -3.060000 9.658124 -14.585001
v -3.033125 12.412498 -12.412500
v 8.588751 -8.588752 -12.910624
v -3.060000 -14.585001 -9.658124
v 0.000000 -14.811875 -9.871249
v 0.000000 -12.636876 -12.636874
v 12.636875 12.636875 -0.000001
v -12.636875 12.636875 -0.000001
v -12.910625 8.588752 8.588750
v 3.260625 -3.260626 -16.976252
v 16.976252 3.260625 -3.260625
v 12.636875 -0.000001 -12.636875
v 9.658125 3.060001 14.585000
v -14.585000 -3.060001 -9.658125
v 0.000000 16.343124 -6.733752
v 0.000000 -16.343124 -6.733749
v -3.060000 14.584999 -9.658126
v 10.193125 10.193124 -10.193126
v 11.844375 5.903751 11.844375
v -11.844375 -5.903751 -11.844375
v -9.658125 -14.585000 -3.059999
v -16.343124 -0.000001 -6.733750
v -5.903750 11.844374 -11.844376
v -9.658125 14.585000 3.059999
v -15.293751 6.283751 6.283750
v 15.293751 6.283750 -6.283751
v 14.585000 -3.060001 -9.658125
v 6.283750 -6.283751 -15.293751
v 6.733750 0.000001 16.343124
v -14.585000 -9.658125 3.060001
v 3.060000 -14.585001 -9.658124
v 9.658125 14.585000 -3.060001
vn -0.0000 -1.0000 -0.0000
vn -0.1696 -0.9708 0.1696
vn -0.0000 -0.9853 0.1706
vn -0.1761 -0.9206 0.3485
vn -0.0000 -0.9367 0.3503
vn -0.0000 -0.8456 0.5339
vn 0.1761 -0.9206 0.3485
vn 0.1811 -0.8309 0.5261
vn 0.3393 -0.7906 0.5096
vn 0.1845 -0.6950 0.6950
vn 0.3422 -0.6644 0.6644
vn 0.3393 -0.5096 0.7906
vn 0.4771 -0.6214 0.6214
vn 0.4832 -0.4832 0.7301
vn 0.6214 -0.4771 0.6214
vn 0.5096 -0.3393 0.7906
vn 0.6644 -0.3422 0.6644
vn 0.6950 -0.1845 0.6950
vn 0.7906 -0.3393 0.5096
vn 0.8309 -0.1811 0.5261
vn 0.9206 -0.1761 0.3485
vn 0.8456 -0.0000 0.5339
vn 0.9367 -0.0000 0.3503
vn 0.9206 0.1761 0.3485
vn 0.9853 -0.0000 0.1709
vn 0.9707 0.1698 0.1698
vn 0.9853 0.1709 -0.0000
vn 0.9206 0.3485 0.1761
vn 0.9367 0.3503 -0.0000
vn 0.8456 0.5339 -0.0000
vn 0.9206 0.3485 -0.1761
vn 0.8309 0.5261 -0.1811
vn 0.7906 0.5096 -0.3393
vn 0.6950 0.6950 -0.1845
vn 0.6644 0.6644 -0.3422
vn 0.5096 0.7906 -0.3393
vn 0.6214 0.6214 -0.4771
vn 0.4832 0.7301 -0.4832
vn 0.4771 0.6214 -0.6214
vn 0.3393 0.7906 -0.5096
vn 0.3422 0.6644 -0.6644
vn 0.1845 0.6950 -0.6950
vn 0.3393 0.5096 -0.7906
vn 0.1811 0.5261 -0.8309
vn 0.1761 0.3485 -0.9206
vn -0.0000 0.5339 -0.8456
vn -0.0000 0.3503 -0.9367
vn -0.1696 -0.9708 -0.1696
vn -0.1706 -0.9853 -0.0000
vn -0.3485 -0.9206 -0.1761
vn -0.3503 -0.9367 -0.0000
vn -0.5339 -0.8456 -0.0000
vn -0.3485 -0.9206 0.1761
vn -0.5261 -0.8309 0.1811
vn -0.5096 -0.7906 0.3393
vn -0.6950 -0.6950 0.1845
vn -0.6644 -0.6644 0.3422
vn -0.7906 -0.5096 0.3393
vn -0.6214 -0.6214 0.4771
vn -0.7301 -0.4832 0.4832
vn -0.6214 -0.4771 0.6214
vn -0.7906 -0.3393 0.5096
vn -0.6644 -0.3422 0.6644
vn -0.6950 -0.1845 0.6950
vn -0.5096 -0.3393 0.7906
vn -0.5261 -0.1811 0.8309
vn -0.3485 -0.1761 0.9206
vn -0.5339 -0.0000 0.8456
vn -0.3503 -0.0000 0.9367
vn -0.3485 0.1761 0.9206
vn -0.1709 -0.0000 0.9853
vn -0.1698 0.1698 0.9707
vn -0.0000 0.1709 0.9853
vn -0.1761 0.3485 0.9206
vn -0.0000 0.3503 0.9367
vn -0.0000 0.5339 0.8456
vn 0.1761 0.3485 0.9206
vn 0.1811 0.5261 0.8309
vn 0.3393 0.5096 0.7906
vn 0.1845 0.6950 0.6950
vn 0.3422 0.6644 0.6644
vn 0.3393 0.7906 0.5096
vn 0.4771 0.6214 0.6214
vn 0.4832 0.7301 0.4832
vn 0.6214 0.6214 0.4771
vn 0.5096 0.7906 0.3393
vn 0.6644 0.6644 0.3422
vn 0.6950 0.6950 0.1845
vn 0.7906 0.5096 0.3393
vn 0.8309 0.5261 0.1811
vn -0.0000 1.0000 -0.0000
vn 0.1696 0.9708 0.1696
vn -0.0000 0.9853 0.1706
vn 0.1761 0.9206 0.3485
vn -0.0000 0.9367 0.3503
vn -0.0000 0.8456 0.5339
vn -0.1761 0.9206 0.3485
vn -0.1811 0.8309 0.5261
vn -0.3393 0.7906 0.5096
vn -0.1845 0.6950 0.6950
vn -0.3422 0.6644 0.6644
vn -0.3393 0.5096 0.7906
vn -0.4771 0.6214 0.6214
vn -0.4832 0.4832 0.7301
vn -0.6214 0.4771 0.6214
vn -0.5096 0.3393 0.7906
vn -0.6644 0.3422 0.6644
vn -0.6950 0.1845 0.6950
vn -0.7906 0.3393 0.5096
vn -0.8309 0.1811 0.5261
vn -0.9206 0.1761 0.3485
vn -0.8456 -0.0000 0.5339
vn -0.9367 -0.0000 0.3503
vn -0.9206 -0.1761 0.3485
vn -0.9853 -0.0000 0.1709
vn -0.9707 -0.1698 0.1698
vn -0.9853 -0.1709 -0.0000
vn -0.9206 -0.3485 0.1761
vn -0.9367 -0.3503 -0.0000
vn -0.8456 -0.5339 -0.0000
vn -0.9206 -0.3485 -0.1761
vn -0.8309 -0.5261 -0.1811
vn -0.7906 -0.5096 -0.3393
vn -0.6950 -0.6950 -0.1845
vn -0.6644 -0.6644 -0.3422
vn -0.5096 -0.7906 -0.3393
vn -0.6214 -0.6214 -0.4771
vn -0.4832 -0.7301 -0.4832
vn -0.4771 -0.6214 -0.6214
vn -0.3393 -0.7906 -0.5096
vn -0.3422 -0.6644 -0.6644
vn -0.1845 -0.6950 -0.6950
vn -0.3393 -0.5096 -0.7906
vn -0.1811 -0.5261 -0.8309
vn -0.1761 -0.3485 -0.9206
vn -0.0000 -0.5339 -0.8456
vn 0.8726 0.3453 0.3453
vn 0.7906 0.3393 0.5096
vn 0.7301 0.4832 0.4832
vn 0.6214 0.4771 0.6214
vn 0.5774 0.5774 0.5774
vn 0.4832 0.4832 0.7301
vn 0.5096 0.3393 0.7906
vn 0.3453 0.3453 0.8726
vn 0.3485 0.1761 0.9206
vn 0.1698 0.1698 0.9707
vn 0.1709 -0.0000 0.9853
vn -0.0000 -0.0000 1.0000
vn -0.0000 -0.1709 0.9853
vn -0.1698 -0.1698 0.9707
vn -0.1761 -0.3485 0.9206
vn -0.3453 -0.3453 0.8726
vn -0.3393 -0.5096 0.7906
vn -0.4832 -0.4832 0.7301
vn -0.4771 -0.6214 0.6214
vn -0.1696 0.9708 0.1696
vn -0.1706 0.9853 -0.0000
vn -0.3485 0.9206 0.1761
vn -0.3503 0.9367 -0.0000
vn -0.5339 0.8456 -0.0000
vn -0.3485 0.9206 -0.1761
vn -0.5261 0.8309 -0.1811
vn -0.5096 0.7906 -0.3393
vn -0.6950 0.6950 -0.1845
vn -0.6644 0.6644 -0.3422
vn -0.7906 0.5096 -0.3393
vn -0.6214 0.6214 -0.4771
vn -0.7301 0.4832 -0.4832
vn -0.6214 0.4771 -0.6214
vn -0.7906 0.3393 -0.5096
vn -0.6644 0.3422 -0.6644
vn -0.6950 0.1845 -0.6950
vn -0.5096 0.3393 -0.7906
vn -0.5261 0.1811 -0.8309
vn -0.3485 0.1761 -0.9206
vn -0.5339 -0.0000 -0.8456
vn -0.3503 -0.0000 -0.9367
vn -0.3485 -0.1761 -0.9206
vn -0.1709 -0.0000 -0.9853
vn -0.1698 -0.1698 -0.9707
vn -0.0000 -0.1709 -0.9853
vn -0.0000 -0.3503 -0.9367
vn 0.1696 -0.9708 0.1696
vn 0.1706 -0.9853 -0.0000
vn 0.3485 -0.9206 0.1761
vn 0.3503 -0.9367 -0.0000
vn 0.5339 -0.8456 -0.0000
vn 0.3485 -0.9206 -0.1761
vn 0.5261 -0.8309 -0.1811
vn 0.5096 -0.7906 -0.3393
vn 0.6950 -0.6950 -0.1845
vn 0.6644 -0.6644 -0.3422
vn 0.7906 -0.5096 -0.3393
vn 0.6214 -0.6214 -0.4771
vn 0.7301 -0.4832 -0.4832
vn 0.6214 -0.4771 -0.6214
vn 0.7906 -0.3393 -0.5096
vn 0.6644 -0.3422 -0.6644
vn 0.6950 -0.1845 -0.6950
vn 0.5096 -0.3393 -0.7906
vn 0.5261 -0.1811 -0.8309
vn 0.3485 -0.1761 -0.9206
vn 0.5339 -0.0000 -0.8456
vn 0.3503 -0.0000 -0.9367
vn 0.3485 0.1761 -0.9206
vn 0.1709 -0.0000 -0.9853
vn 0.1698 0.1698 -0.9707
vn -0.0000 0.1709 -0.9853
vn -0.8726 -0.3453 0.3453
vn -0.8309 -0.1811 0.5261
vn -0.7071 -0.0000 0.7071
vn -0.5261 0.1811 0.8309
vn -0.3453 0.3453 0.8726
vn -0.1811 0.5261 0.8309
vn -0.0000 0.7071 0.7071
vn 0.1811 0.8309 0.5261
vn 0.8309 0.1811 0.5261
vn 0.6950 0.1845 0.6950
vn 0.7071 -0.0000 0.7071
vn 0.5339 -0.0000 0.8456
vn 0.5261 -0.1811 0.8309
vn 0.3485 -0.1761 0.9206
vn 0.3453 -0.3453 0.8726
vn 0.1761 -0.3485 0.9206
vn 0.1811 -0.5261 0.8309
vn -0.0000 -0.5339 0.8456
vn -0.0000 -0.7071 0.7071
vn -0.1845 -0.6950 0.6950
vn -0.1811 -0.8309 0.5261
vn -0.3393 -0.7906 0.5096
vn -0.3453 -0.3453 -0.8726
vn -0.5096 -0.3393 -0.7906
vn -0.4832 -0.4832 -0.7301
vn -0.6214 -0.4771 -0.6214
vn -0.5774 -0.5774 -0.5774
vn -0.7301 -0.4832 -0.4832
vn -0.7906 -0.3393 -0.5096
vn -0.8726 -0.3453 -0.3453
vn -0.9206 -0.1761 -0.3485
vn -0.9707 -0.1698 -0.1698
vn -0.9853 -0.0000 -0.1709
vn 0.3453 -0.8726 0.3453
vn 0.5096 -0.7906 0.3393
vn 0.4832 -0.7301 0.4832
vn 0.6214 -0.6214 0.4771
vn 0.5774 -0.5774 0.5774
vn -0.1696 0.9708 -0.1696
vn -0.1761 0.9206 -0.3485
vn -0.3453 0.8726 -0.3453
vn -0.3393 0.7906 -0.5096
vn -0.4832 0.7301 -0.4832
vn -0.4771 0.6214 -0.6214
vn -0.5774 0.5774 -0.5774
vn -0.3453 -0.8726 0.3453
vn -0.4832 -0.7301 0.4832
vn -0.5774 -0.5774 0.5774
vn 0.1696 -0.9708 -0.1696
vn 0.1761 -0.9206 -0.3485
vn 0.3453 -0.8726 -0.3453
vn 0.3393 -0.7906 -0.5096
vn 0.4832 -0.7301 -0.4832
vn 0.4771 -0.6214 -0.6214
vn 0.5774 -0.5774 -0.5774
vn -0.3453 0.8726 0.3453
vn -0.5096 0.7906 0.3393
vn -0.4832 0.7301 0.4832
vn -0.6214 0.6214 0.4771
vn -0.5774 0.5774 0.5774
vn 0.1698 -0.1698 0.9707
vn -0.0000 -0.3503 0.9367
vn -0.1811 -0.5261 0.8309
vn -0.3422 -0.6644 0.6644
vn -0.0000 -0.0000 -1.0000
vn -0.1698 0.1698 -0.9707
vn -0.1761 0.3485 -0.9206
vn -0.3453 0.3453 -0.8726
vn -0.3393 0.5096 -0.7906
vn -0.4832 0.4832 -0.7301
vn 0.7071 -0.7071 -0.0000
vn 0.8456 -0.5339 -0.0000
vn 0.6950 -0.6950 0.1845
vn 0.8309 -0.5261 0.1811
vn 0.7906 -0.5096 0.3393
vn 0.9206 -0.3485 0.1761
vn 0.8726 -0.3453 0.3453
vn 0.7301 0.4832 -0.4832
vn 0.7906 0.3393 -0.5096
vn 0.6214 0.4771 -0.6214
vn 0.6644 0.3422 -0.6644
vn 0.5096 0.3393 -0.7906
vn 0.6950 0.1845 -0.6950
vn 0.5261 0.1811 -0.8309
vn -0.8726 0.3453 -0.3453
vn -0.9206 0.1761 -0.3485
vn -0.9206 0.3485 -0.1761
vn -0.9707 0.1698 -0.1698
vn -0.9853 0.1709 -0.0000
vn -1.0000 -0.0000 -0.0000
vn -0.9707 0.1698 0.1698
vn -0.9206 0.3485 0.1761
vn -0.9367 0.3503 -0.0000
vn -0.8456 0.5339 -0.0000
vn -0.8309 0.5261 -0.1811
vn 0.8726 -0.3453 -0.3453
vn 0.9206 -0.1761 -0.3485
vn 0.9206 -0.3485 -0.1761
vn 0.9707 -0.1698 -0.1698
vn 0.9853 -0.1709 -0.0000
vn 0.9853 -0.0000 -0.1709
vn 1.0000 -0.0000 -0.0000
vn 0.9707 -0.1698 0.1698
vn 0.9367 -0.3503 -0.0000
vn 0.8309 -0.5261 -0.1811
vn -0.5261 -0.1811 -0.8309
vn -0.6950 -0.1845 -0.6950
vn -0.7071 -0.0000 -0.7071
vn -0.8456 -0.0000 -0.5339
vn -0.8309 0.1811 -0.5261
vn 0.1696 0.9708 -0.1696
vn 0.1706 0.9853 -0.0000
vn 0.3485 0.9206 -0.1761
vn 0.3503 0.9367 -0.0000
vn 0.5339 0.8456 -0.0000
vn 0.3485 0.9206 0.1761
vn 0.5261 0.8309 0.1811
vn 0.8309 0.1811 -0.5261
vn 0.9206 0.1761 -0.3485
vn 0.8456 -0.0000 -0.5339
vn 0.9367 -0.0000 -0.3503
vn -0.8309 0.5261 0.1811
vn -0.7906 0.5096 0.3393
vn -0.6950 0.6950 0.1845
vn -0.6644 0.6644 0.3422
vn 0.1761 -0.3485 -0.9206
vn 0.1811 -0.5261 -0.8309
vn 0.3393 -0.5096 -0.7906
vn 0.1845 -0.6950 -0.6950
vn 0.3422 -0.6644 -0.6644
vn 0.3453 0.8726 0.3453
vn -0.0000 -0.9853 -0.1706
vn -0.1761 -0.9206 -0.3485
vn -0.3453 -0.8726 -0.3453
vn -0.0000 0.9853 -0.1706
vn 0.1761 0.9206 -0.3485
vn 0.3453 0.8726 -0.3453
vn 0.7301 -0.4832 0.4832
vn 0.6644 -0.6644 0.3422
vn 0.5261 -0.8309 0.1811
vn 0.3453 0.3453 -0.8726
vn 0.4832 0.4832 -0.7301
vn -0.7071 -0.7071 -0.0000
vn 0.1811 0.8309 -0.5261
vn -0.0000 0.8456 -0.5339
vn -0.0000 0.7071 -0.7071
vn -0.1811 0.5261 -0.8309
vn -0.1845 0.6950 -0.6950
vn 0.4832 -0.4832 -0.7301
vn -0.1811 -0.8309 -0.5261
vn -0.0000 -0.8456 -0.5339
vn -0.0000 -0.7071 -0.7071
vn 0.7071 0.7071 -0.0000
vn -0.7071 0.7071 -0.0000
vn -0.7301 0.4832 0.4832
vn 0.1698 -0.1698 -0.9707
vn 0.9707 0.1698 -0.1698
vn 0.7071 -0.0000 -0.7071
vn 0.5261 0.1811 0.8309
vn -0.8309 -0.1811 -0.5261
vn -0.0000 0.9367 -0.3503
vn -0.0000 -0.9367 -0.3503
vn -0.1811 0.8309 -0.5261
vn 0.5774 0.5774 -0.5774
vn 0.6644 0.3422 0.6644
vn -0.6644 -0.3422 -0.6644
vn -0.5261 -0.8309 -0.1811
vn -0.9367 -0.0000 -0.3503
vn -0.3422 0.6644 -0.6644
vn -0.5261 0.8309 0.1811
vn -0.8726 0.3453 0.3453
vn 0.8726 0.3453 -0.3453
vn 0.8309 -0.1811 -0.5261
vn 0.3453 -0.3453 -0.8726
vn 0.3503 -0.0000 0.9367
vn -0.8309 -0.5261 0.1811
vn 0.1811 -0.8309 -0.5261
vn 0.5261 0.8309 -0.1811
vt 0.500000 -0.376587
vt 0.000000 -0.331055
vt 0.255981 -0.500000
vt 0.214111 -0.229248
vt 0.500000 -0.251099
vt 0.500000 -0.125732
vt 0.785889 -0.229248
vt 0.695312 -0.113403
vt 0.867676 -0.074341
vt 0.652588 0.009277
vt 0.794434 0.035278
vt 0.759155 0.152466
vt 0.914062 0.072144
vt 0.873779 0.178101
vt 1.000000 0.185791
vt 0.872192 0.280273
vt 1.000000 0.284302
vt 1.000000 0.391113
vt 1.127808 0.280273
vt 1.127686 0.389771
vt 1.253418 0.385376
vt 1.125732 0.500000
vt 1.251221 0.500000
vt 1.253418 0.614746
vt 1.376587 0.500000
vt 1.379150 0.618774
vt 1.500000 0.623413
vt 1.376465 0.742432
vt 1.500000 0.748901
vt 1.500000 0.874268
vt 1.623535 0.742432
vt 1.631714 0.866089
vt 1.759155 0.847656
vt 1.652588 0.990845
vt 1.794433 0.964844
vt 1.867676 1.074341
vt 1.914062 0.927978
vt 2.000000 1.019287
vt 2.085938 0.927978
vt 2.132324 1.074341
vt 2.205566 0.964844
vt 2.347412 0.990845
vt 2.240845 0.847656
vt 2.368286 0.866089
vt 2.376465 0.742432
vt 2.500000 0.874268
vt 2.500000 0.748901
vt -0.499878 -0.376587
vt -0.999878 -0.331055
vt -0.744263 -0.500000
vt -0.785767 -0.229248
vt -0.499878 -0.251099
vt -0.499878 -0.125732
vt -0.213989 -0.229248
vt -0.304565 -0.113403
vt -0.132202 -0.074341
vt -0.347290 0.009277
vt -0.205444 0.035278
vt -0.240723 0.152466
vt -0.085815 0.072144
vt -0.126099 0.178101
vt 0.000000 0.185791
vt -0.127686 0.280273
vt 0.000000 0.284302
vt 0.000000 0.391113
vt 0.127808 0.280273
vt 0.127686 0.389771
vt 0.253418 0.385376
vt 0.125732 0.500000
vt 0.251221 0.500000
vt 0.253418 0.614746
vt 0.376587 0.500000
vt 0.379150 0.618774
vt 0.500000 0.623413
vt 0.376465 0.742432
vt 0.500000 0.748901
vt 0.500000 0.874268
vt 0.623535 0.742432
vt 0.631714 0.866089
vt 0.759155 0.847656
vt 0.652588 0.990845
vt 0.794434 0.964844
vt 0.867676 1.074341
vt 0.914062 0.927978
vt 1.000000 1.019287
vt 1.085938 0.927978
vt 1.132324 1.074341
vt 1.205566 0.964844
vt 1.347412 0.990845
vt 1.240845 0.847656
vt 1.368286 0.866089
vt 0.500000 1.376587
vt 1.000000 1.331055
vt 0.760254 1.500000
vt 0.785889 1.229248
vt 0.500000 1.251099
vt 0.500000 1.125732
vt 0.214111 1.229248
vt 0.304688 1.113403
vt 0.132324 1.074341
vt 0.347412 0.990845
vt 0.205566 0.964844
vt 0.240845 0.847656
vt 0.085938 0.927978
vt 0.126343 0.822021
vt 0.000000 0.814331
vt 0.127808 0.719849
vt 0.000000 0.715820
vt 0.000000 0.609009
vt -0.127686 0.719849
vt -0.127563 0.610352
vt -0.253296 0.614746
vt -0.125610 0.500000
vt -0.251099 0.500000
vt -0.253296 0.385376
vt -0.376465 0.500000
vt -0.379028 0.381348
vt -0.499878 0.376709
vt -0.376343 0.257690
vt -0.499878 0.251221
vt -0.499878 0.125854
vt -0.623413 0.257690
vt -0.631592 0.134033
vt -0.759033 0.152466
vt -0.652466 0.009277
vt -0.794312 0.035278
vt -0.867554 -0.074341
vt -0.913940 0.072144
vt -0.999878 -0.019287
vt -1.085815 0.072144
vt -1.132202 -0.074341
vt -1.205444 0.035278
vt -1.347290 0.009277
vt -1.240723 0.152466
vt -1.368164 0.134033
vt -1.376343 0.257690
vt -1.499878 0.125854
vt 1.251831 0.731323
vt 1.127808 0.719849
vt 1.126343 0.822021
vt 1.000000 0.814331
vt 1.000000 0.891846
vt 0.873779 0.822021
vt 0.872192 0.719849
vt 0.748169 0.731323
vt 0.746582 0.614746
vt 0.620850 0.618774
vt 0.623413 0.500000
vt 0.500000 0.500000
vt 0.500000 0.376709
vt 0.379150 0.381348
vt 0.376465 0.257690
vt 0.251831 0.268799
vt 0.240845 0.152466
vt 0.126343 0.178101
vt 0.085938 0.072144
vt -0.499878 1.376587
vt 0.000000 1.331055
vt -0.256348 1.500000
vt -0.213989 1.229248
vt -0.499878 1.251099
vt -0.499878 1.125732
vt -0.785767 1.229248
vt -0.695190 1.113403
vt -0.867554 1.074341
vt -0.652466 0.990845
vt -0.794312 0.964844
vt -0.759033 0.847656
vt -0.913940 0.927978
vt -0.873535 0.822021
vt -0.999878 0.814331
vt -0.872070 0.719849
vt -0.999878 0.715820
vt -0.999878 0.609009
vt -1.127686 0.719849
vt -1.127563 0.610352
vt -1.253296 0.614746
vt -1.125610 0.500000
vt -1.251099 0.500000
vt -1.253296 0.385376
vt -1.376465 0.500000
vt -1.379028 0.381348
vt -1.499878 0.376709
vt -1.499878 0.251221
vt 1.500000 -0.376587
vt 1.000000 -0.331055
vt 1.256348 -0.500000
vt 1.214111 -0.229248
vt 1.500000 -0.251099
vt 1.500000 -0.125732
vt 1.785889 -0.229248
vt 1.695312 -0.113403
vt 1.867676 -0.074341
vt 1.652588 0.009277
vt 1.794433 0.035278
vt 1.759155 0.152466
vt 1.914062 0.072144
vt 1.873779 0.178101
vt 2.000000 0.185791
vt 1.872192 0.280273
vt 2.000000 0.284302
vt 2.000000 0.391113
vt 2.127808 0.280273
vt 2.127686 0.389771
vt 2.253418 0.385376
vt 2.125732 0.500000
vt 2.251220 0.500000
vt 2.253418 0.614746
vt 2.376587 0.500000
vt 2.379150 0.618774
vt 2.500000 0.623413
vt -0.251709 0.268799
vt -0.127563 0.389771
vt 0.000000 0.500000
vt 0.127686 0.610352
vt 0.251831 0.731323
vt 0.368286 0.866089
vt 0.500000 1.000000
vt 0.695312 1.113403
vt 1.127686 0.610352
vt 1.000000 0.609009
vt 1.000000 0.500000
vt 0.874268 0.500000
vt 0.872314 0.389771
vt 0.746582 0.385376
vt 0.748169 0.268799
vt 0.623535 0.257690
vt 0.631714 0.134033
vt 0.500000 0.125854
vt 0.500000 0.000000
vt 0.347412 0.009277
vt 0.304688 -0.113403
vt 0.132324 -0.074341
vt -1.251709 0.268799
vt -1.127686 0.280273
vt -1.126099 0.178101
vt -0.999878 0.185791
vt -0.999878 0.108276
vt -0.873535 0.178101
vt -0.872070 0.280273
vt -0.748047 0.268799
vt -0.746460 0.385376
vt -0.620728 0.381348
vt -0.623291 0.500000
vt 0.792725 -0.500000
vt 1.000000 -0.164795
vt 1.132324 -0.074341
vt 1.000000 -0.019287
vt 1.085938 0.072144
vt 1.000000 0.108276
vt -0.999878 1.331055
vt -0.744263 1.500000
vt -1.213989 1.229248
vt -0.999878 1.164795
vt -1.132202 1.074341
vt -0.999878 1.019287
vt -1.085815 0.927978
vt -0.999878 0.891846
vt -0.207520 -0.500000
vt 0.000000 -0.164795
vt 0.000000 -0.019287
vt 0.000000 0.108276
vt 2.000000 -0.331055
vt 1.785034 -0.500000
vt 2.214111 -0.229248
vt 2.000000 -0.164795
vt 2.132324 -0.074341
vt 2.000000 -0.019287
vt 2.085938 0.072144
vt 2.000000 0.108276
vt 0.288452 1.500000
vt 0.000000 1.164795
vt -0.132202 1.074341
vt 0.000000 1.019287
vt -0.085815 0.927978
vt 0.000000 0.891846
vt 0.620850 0.381348
vt 0.500000 0.251221
vt 0.368286 0.134033
vt 0.205566 0.035278
vt -1.499878 0.500000
vt -1.499878 0.623413
vt -1.379028 0.618774
vt -1.376343 0.742432
vt -1.251709 0.731323
vt -1.240723 0.847656
vt -1.126099 0.822021
vt 1.500000 0.000000
vt 1.500000 0.125854
vt 1.347412 0.009277
vt 1.368286 0.134033
vt 1.240845 0.152466
vt 1.376465 0.257690
vt 1.251831 0.268799
vt 1.873779 0.822021
vt 1.872192 0.719849
vt 2.000000 0.814331
vt 2.000000 0.715820
vt 2.127808 0.719849
vt 2.000000 0.609009
vt 2.127686 0.610352
vt -0.748047 0.731323
vt -0.746460 0.614746
vt -0.623413 0.742432
vt -0.620728 0.618774
vt -0.499878 0.623413
vt -0.499878 0.500000
vt -0.379028 0.618774
vt -0.376343 0.742432
vt -0.499878 0.748901
vt -0.499878 0.874268
vt -0.631592 0.866089
vt 1.748169 0.268799
vt 1.746582 0.385376
vt 1.623535 0.257690
vt 1.620850 0.381348
vt 1.500000 0.376709
vt 1.623413 0.500000
vt 1.500000 0.500000
vt 1.379150 0.381348
vt 1.500000 0.251221
vt 1.631714 0.134033
vt -1.127563 0.389771
vt -0.999878 0.391113
vt -0.999878 0.500000
vt -0.874145 0.500000
vt -0.872192 0.610352
vt 1.500000 1.376587
vt 2.000000 1.331055
vt 1.744263 1.500000
vt 1.785889 1.229248
vt 1.500000 1.251099
vt 1.500000 1.125732
vt 1.214111 1.229248
vt 1.304688 1.113403
vt 1.872314 0.610352
vt 1.746582 0.614746
vt 1.874268 0.500000
vt 1.748779 0.500000
vt -0.368164 0.866089
vt -0.240723 0.847656
vt -0.347290 0.990845
vt -0.205444 0.964844
vt 2.376465 0.257690
vt 2.500000 0.125854
vt 2.500000 0.251221
vt 2.368286 0.134033
vt 2.240845 0.152466
vt 2.347412 0.009277
vt 2.205566 0.035278
vt 1.207520 1.500000
vt 1.000000 1.164795
vt -1.499878 -0.376587
vt -1.191650 -0.500000
vt -1.213989 -0.229248
vt -0.999878 -0.164795
vt 2.500000 1.376587
vt 2.216064 1.500000
vt 2.214111 1.229248
vt 2.000000 1.164795
vt 1.126343 0.178101
vt 1.205566 0.035278
vt 1.304688 -0.113403
vt 2.251831 0.731323
vt 2.126343 0.822021
vt -0.499878 0.000000
vt 2.304688 1.113403
vt 2.500000 1.125732
vt 2.500000 1.000000
vt -1.368164 0.866089
vt -1.347290 0.990845
vt -1.499878 0.874268
vt -1.499878 1.000000
vt 2.126343 0.178101
vt -1.304565 -0.113403
vt -1.499878 -0.125732
vt -1.499878 0.000000
vt 1.500000 1.000000
vt -0.499878 1.000000
vt -0.126099 0.822021
vt 2.379150 0.381348
vt 2.500000 0.376709
vt 1.620850 0.618774
vt 2.000000 0.500000
vt 0.872314 0.610352
vt -0.872192 0.389771
vt -1.499878 1.376587
vt -1.256714 1.500000
vt -1.499878 1.251099
vt -1.499878 1.125732
vt 2.500000 -0.376587
vt 2.240479 -0.500000
vt 2.500000 -0.251099
vt 2.500000 -0.125732
vt -1.304565 1.113403
vt 2.000000 0.891846
vt 1.000000 0.715820
vt -0.999878 0.284302
vt -0.695190 -0.113403
vt -0.748657 0.500000
vt -1.205444 0.964844
vt -0.304565 1.113403
vt 2.500000 0.000000
vt -0.251709 0.731323
vt 1.748169 0.731323
vt 1.872314 0.389771
vt 2.251831 0.268799
vt 0.748779 0.500000
vt -0.368164 0.134033
vt 2.304688 -0.113403
vt 1.695312 1.113403
vt -1.499878 0.748901
vt -1.499878 -0.251099
vt 2.500000 1.251099
vt 2.500000 0.500000
s 1
usemtl SunMat
f 3/1/3 2/2/2 1/3/1
f 4/4/4 2/2/2 3/1/3
f 5/5/5 4/4/4 3/1/3
f 6/6/6 4/4/4 5/5/5
f 7/7/7 6/6/6 5/5/5
f 8/8/8 6/6/6 7/7/7
f 9/9/9 8/8/8 7/7/7
f 10/10/10 8/8/8 9/9/9
f 11/11/11 10/10/10 9/9/9
f 12/12/12 10/10/10 11/11/11
f 13/13/13 12/12/12 11/11/11
f 14/14/14 12/12/12 13/13/13
f 15/15/15 14/14/14 13/13/13
f 16/16/16 14/14/14 15/15/15
f 17/17/17 16/16/16 15/15/15
f 18/18/18 16/16/16 17/17/17
f 19/19/19 18/18/18 17/17/17
f 20/20/20 18/18/18 19/19/19
f 21/21/21 20/20/20 19/19/19
f 22/22/22 20/20/20 21/21/21
f 23/23/23 22/22/22 21/21/21
f 24/24/24 22/22/22 23/23/23
f 25/25/25 24/24/24 23/23/23
f 26/26/26 24/24/24 25/25/25
f 27/27/27 26/26/26 25/25/25
f 28/28/28 26/26/26 27/27/27
f 29/29/29 28/28/28 27/27/27
f 30/30/30 28/28/28 29/29/29
f 31/31/31 30/30/30 29/29/29
f 32/32/32 30/30/30 31/31/31
f 33/33/33 32/32/32 31/31/31
f 34/34/34 32/32/32 33/33/33
f 35/35/35 34/34/34 33/33/33
f 36/36/36 34/34/34 35/35/35
f 37/37/37 36/36/36 35/35/35
f 38/38/38 36/36/36 37/37/37
f 39/39/39 38/38/38 37/37/37
f 40/40/40 38/38/38 39/39/39
f 41/41/41 40/40/40 39/39/39
f 42/42/42 40/40/40 41/41/41
f 43/43/43 42/42/42 41/41/41
f 44/44/44 42/42/42 43/43/43
f 45/45/45 44/44/44 43/43/43
f 46/46/46 44/44/44 45/45/45
f 47/47/47 46/46/46 45/45/45
f 49/48/49 48/49/48 1/50/1
f 50/51/50 48/49/48 49/48/49
f 51/52/51 50/51/50 49/48/49
f 52/53/52 50/51/50 51/52/51
f 53/54/53 52/53/52 51/52/51
f 54/55/54 52/53/52 53/54/53
f 55/56/55 54/55/54 53/54/53
f 56/57/56 54/55/54 55/56/55
f 57/58/57 56/57/56 55/56/55
f 58/59/58 56/57/56 57/58/57
f 59/60/59 58/59/58 57/58/57
f 60/61/60 58/59/58 59/60/59
f 61/62/61 60/61/60 59/60/59
f 62/63/62 60/61/60 61/62/61
f 63/64/63 62/63/62 61/62/61
f 64/65/64 62/63/62 63/64/63
f 65/66/65 64/65/64 63/64/63
f 66/67/66 64/65/64 65/66/65
f 67/68/67 66/67/66 65/66/65
f 68/69/68 66/67/66 67/68/67
f 69/70/69 68/69/68 67/68/67
f 70/71/70 68/69/68 69/70/69
f 71/72/71 70/71/70 69/70/69
f 72/73/72 70/71/70 71/72/71
f 73/74/73 72/73/72 71/72/71
f 74/75/74 72/73/72 73/74/73
f 75/76/75 74/75/74 73/74/73
f 76/77/76 74/75/74 75/76/75
f 77/78/77 76/77/76 75/76/75
f 78/79/78 76/77/76 77/78/77
f 79/80/79 78/79/78 77/78/77
f 80/81/80 78/79/78 79/80/79
f 81/82/81 80/81/80 79/80/79
f 82/83/82 80/81/80 81/82/81
f 83/84/83 82/83/82 81/82/81
f 84/85/84 82/83/82 83/84/83
f 85/86/85 84/85/84 83/84/83
f 86/87/86 84/85/84 85/86/85
f 87/88/87 86/87/86 85/86/85
f 88/89/88 86/87/86 87/88/87
f 89/90/89 88/89/88 87/88/87
f 90/91/90 88/89/88 89/90/89
f 28/28/28 90/91/90 89/90/89
f 30/30/30 90/91/90 28/28/28
f 93/92/93 92/93/92 91/94/91
f 94/95/94 92/93/92 93/92/93
f 95/96/95 94/95/94 93/92/93
f 96/97/96 94/95/94 95/96/95
f 97/98/97 96/97/96 95/96/95
f 98/99/98 96/97/96 97/98/97
f 99/100/99 98/99/98 97/98/97
f 100/101/100 98/99/98 99/100/99
f 101/102/101 100/101/100 99/100/99
f 102/103/102 100/101/100 101/102/101
f 103/104/103 102/103/102 101/102/101
f 104/105/104 102/103/102 103/104/103
f 105/106/105 104/105/104 103/104/103
f 106/107/106 104/105/104 105/106/105
f 107/108/107 106/107/106 105/106/105
f 108/109/108 106/107/106 107/108/107
f 109/110/109 108/109/108 107/108/107
f 110/111/110 108/109/108 109/110/109
f 111/112/111 110/111/110 109/110/109
f 112/113/112 110/111/110 111/112/111
f 113/114/113 112/113/112 111/112/111
f 114/115/114 112/113/112 113/114/113
f 115/116/115 114/115/114 113/114/113
f 116/117/116 114/115/114 115/116/115
f 117/118/117 116/117/116 115/116/115
f 118/119/118 116/117/116 117/118/117
f 119/120/119 118/119/118 117/118/117
f 120/121/120 118/119/118 119/120/119
f 121/122/121 120/121/120 119/120/119
f 122/123/122 120/121/120 121/122/121
f 123/124/123 122/123/122 121/122/121
f 124/125/124 122/123/122 123/124/123
f 125/126/125 124/125/124 123/124/123
f 126/127/126 124/125/124 125/126/125
f 127/128/127 126/127/126 125/126/125
f 128/129/128 126/127/126 127/128/127
f 129/130/129 128/129/128 127/128/127
f 130/131/130 128/129/128 129/130/129
f 131/132/131 130/131/130 129/130/129
f 132/133/132 130/131/130 131/132/131
f 133/134/133 132/133/132 131/132/131
f 134/135/134 132/133/132 133/134/133
f 135/136/135 134/135/134 133/134/133
f 136/137/136 134/135/134 135/136/135
f 28/28/28 24/24/24 26/26/26
f 137/138/137 24/24/24 28/28/28
f 89/90/89 137/138/137 28/28/28
f 138/139/138 137/138/137 89/90/89
f 139/140/139 138/139/138 89/90/89
f 140/141/140 138/139/138 139/140/139
f 85/86/85 140/141/140 139/140/139
f 141/142/141 140/141/140 85/86/85
f 83/84/83 141/142/141 85/86/85
f 140/141/140 141/142/141 83/84/83
f 142/143/142 140/141/140 83/84/83
f 143/144/143 140/141/140 142/143/142
f 79/80/79 143/144/143 142/143/142
f 144/145/144 143/144/143 79/80/79
f 77/78/77 144/145/144 79/80/79
f 145/146/145 144/145/144 77/78/77
f 146/147/146 145/146/145 77/78/77
f 147/148/147 145/146/145 146/147/146
f 73/74/73 147/148/147 146/147/146
f 148/149/148 147/148/147 73/74/73
f 71/72/71 148/149/148 73/74/73
f 149/150/149 148/149/148 71/72/71
f 150/151/150 149/150/149 71/72/71
f 151/152/151 149/150/149 150/151/150
f 67/68/67 151/152/151 150/151/150
f 152/153/152 151/152/151 67/68/67
f 65/66/65 152/153/152 67/68/67
f 153/154/153 152/153/152 65/66/65
f 154/155/154 153/154/153 65/66/65
f 155/156/155 153/154/153 154/155/154
f 61/62/61 155/156/155 154/155/154
f 157/157/157 156/158/156 91/159/91
f 158/160/158 156/158/156 157/157/157
f 159/161/159 158/160/158 157/157/157
f 160/162/160 158/160/158 159/161/159
f 161/163/161 160/162/160 159/161/159
f 162/164/162 160/162/160 161/163/161
f 163/165/163 162/164/162 161/163/161
f 164/166/164 162/164/162 163/165/163
f 165/167/165 164/166/164 163/165/163
f 166/168/166 164/166/164 165/167/165
f 167/169/167 166/168/166 165/167/165
f 168/170/168 166/168/166 167/169/167
f 169/171/169 168/170/168 167/169/167
f 170/172/170 168/170/168 169/171/169
f 171/173/171 170/172/170 169/171/169
f 172/174/172 170/172/170 171/173/171
f 173/175/173 172/174/172 171/173/171
f 174/176/174 172/174/172 173/175/173
f 175/177/175 174/176/174 173/175/173
f 176/178/176 174/176/174 175/177/175
f 177/179/177 176/178/176 175/177/175
f 178/180/178 176/178/176 177/179/177
f 179/181/179 178/180/178 177/179/177
f 180/182/180 178/180/178 179/181/179
f 181/183/181 180/182/180 179/181/179
f 135/136/135 180/182/180 181/183/181
f 182/184/182 135/136/135 181/183/181
f 136/137/136 135/136/135 182/184/182
f 184/185/184 183/186/183 1/187/1
f 185/188/185 183/186/183 184/185/184
f 186/189/186 185/188/185 184/185/184
f 187/190/187 185/188/185 186/189/186
f 188/191/188 187/190/187 186/189/186
f 189/192/189 187/190/187 188/191/188
f 190/193/190 189/192/189 188/191/188
f 191/194/191 189/192/189 190/193/190
f 192/195/192 191/194/191 190/193/190
f 193/196/193 191/194/191 192/195/192
f 194/197/194 193/196/193 192/195/192
f 195/198/195 193/196/193 194/197/194
f 196/199/196 195/198/195 194/197/194
f 197/200/197 195/198/195 196/199/196
f 198/201/198 197/200/197 196/199/196
f 199/202/199 197/200/197 198/201/198
f 200/203/200 199/202/199 198/201/198
f 201/204/201 199/202/199 200/203/200
f 202/205/202 201/204/201 200/203/200
f 203/206/203 201/204/201 202/205/202
f 204/207/204 203/206/203 202/205/202
f 205/208/205 203/206/203 204/207/204
f 206/209/206 205/208/205 204/207/204
f 207/210/207 205/208/205 206/209/206
f 208/211/208 207/210/207 206/209/206
f 45/45/45 207/210/207 208/211/208
f 47/47/47 45/45/45 208/211/208
f 62/63/62 114/115/114 209/212/209
f 210/213/210 114/115/114 62/63/62
f 64/65/64 210/213/210 62/63/62
f 112/113/112 210/213/210 64/65/64
f 211/214/211 112/113/112 64/65/64
f 108/109/108 112/113/112 211/214/211
f 68/69/68 108/109/108 211/214/211
f 212/215/212 108/109/108 68/69/68
f 70/71/70 212/215/212 68/69/68
f 106/107/106 212/215/212 70/71/70
f 213/216/213 106/107/106 70/71/70
f 102/103/102 106/107/106 213/216/213
f 74/75/74 102/103/102 213/216/213
f 214/217/214 102/103/102 74/75/74
f 76/77/76 214/217/214 74/75/74
f 100/101/100 214/217/214 76/77/76
f 215/218/215 100/101/100 76/77/76
f 96/97/96 100/101/100 215/218/215
f 80/81/80 96/97/96 215/218/215
f 216/219/216 96/97/96 80/81/80
f 82/83/82 216/219/216 80/81/80
f 94/95/94 216/219/216 82/83/82
f 138/139/138 24/24/24 137/138/137
f 217/220/217 24/24/24 138/139/138
f 218/221/218 217/220/217 138/139/138
f 22/22/22 217/220/217 218/221/218
f 219/222/219 22/22/22 218/221/218
f 18/18/18 22/22/22 219/222/219
f 220/223/220 18/18/18 219/222/219
f 221/224/221 18/18/18 220/223/220
f 222/225/222 221/224/221 220/223/220
f 16/16/16 221/224/221 222/225/222
f 223/226/223 16/16/16 222/225/222
f 12/12/12 16/16/16 223/226/223
f 224/227/224 12/12/12 223/226/223
f 225/228/225 12/12/12 224/227/224
f 226/229/226 225/228/225 224/227/224
f 10/10/10 225/228/225 226/229/226
f 227/230/227 10/10/10 226/229/226
f 6/6/6 10/10/10 227/230/227
f 228/231/228 6/6/6 227/230/227
f 229/232/229 6/6/6 228/231/228
f 230/233/230 229/232/229 228/231/228
f 4/4/4 229/232/229 230/233/230
f 135/136/135 178/180/178 180/182/180
f 231/234/231 178/180/178 135/136/135
f 133/134/133 231/234/231 135/136/135
f 232/235/232 231/234/231 133/134/133
f 233/236/233 232/235/232 133/134/133
f 234/237/234 232/235/232 233/236/233
f 129/130/129 234/237/234 233/236/233
f 235/238/235 234/237/234 129/130/129
f 127/128/127 235/238/235 129/130/129
f 234/237/234 235/238/235 127/128/127
f 236/239/236 234/237/234 127/128/127
f 237/240/237 234/237/234 236/239/236
f 123/124/123 237/240/237 236/239/236
f 238/241/238 237/240/237 123/124/123
f 121/122/121 238/241/238 123/124/123
f 239/242/239 238/241/238 121/122/121
f 240/243/240 239/242/239 121/122/121
f 241/244/241 239/242/239 240/243/240
f 117/118/117 241/244/241 240/243/240
f 183/186/183 3/1/3 1/245/1
f 7/7/7 3/1/3 183/186/183
f 185/188/185 7/7/7 183/186/183
f 242/246/242 7/7/7 185/188/185
f 243/247/243 242/246/242 185/188/185
f 9/9/9 242/246/242 243/247/243
f 244/248/244 9/9/9 243/247/243
f 13/13/13 9/9/9 244/248/244
f 245/249/245 13/13/13 244/248/244
f 246/250/246 13/13/13 245/249/245
f 15/15/15 246/250/246 245/249/245
f 13/13/13 246/250/246 15/15/15
f 247/251/247 157/157/157 91/252/91
f 161/163/161 157/157/157 247/251/247
f 248/253/248 161/163/161 247/251/247
f 249/254/249 161/163/161 248/253/248
f 250/255/250 249/254/249 248/253/248
f 163/165/163 249/254/249 250/255/250
f 251/256/251 163/165/163 250/255/250
f 167/169/167 163/165/163 251/256/251
f 252/257/252 167/169/167 251/256/251
f 253/258/253 167/169/167 252/257/252
f 169/171/169 253/258/253 252/257/252
f 167/169/167 253/258/253 169/171/169
f 2/2/2 49/48/49 1/259/1
f 53/54/53 49/48/49 2/2/2
f 4/4/4 53/54/53 2/2/2
f 254/260/254 53/54/53 4/4/4
f 230/233/230 254/260/254 4/4/4
f 55/56/55 254/260/254 230/233/230
f 255/261/255 55/56/55 230/233/230
f 59/60/59 55/56/55 255/261/255
f 155/156/155 59/60/59 255/261/255
f 256/262/256 59/60/59 155/156/155
f 61/62/61 256/262/256 155/156/155
f 59/60/59 256/262/256 61/62/61
f 257/263/257 184/185/184 1/264/1
f 188/191/188 184/185/184 257/263/257
f 258/265/258 188/191/188 257/263/257
f 259/266/259 188/191/188 258/265/258
f 260/267/260 259/266/259 258/265/258
f 190/193/190 259/266/259 260/267/260
f 261/268/261 190/193/190 260/267/260
f 194/197/194 190/193/190 261/268/261
f 262/269/262 194/197/194 261/268/261
f 263/270/263 194/197/194 262/269/262
f 196/199/196 263/270/263 262/269/262
f 194/197/194 263/270/263 196/199/196
f 156/158/156 93/92/93 91/271/91
f 97/98/97 93/92/93 156/158/156
f 158/160/158 97/98/97 156/158/156
f 264/272/264 97/98/97 158/160/158
f 265/273/265 264/272/264 158/160/158
f 99/100/99 264/272/264 265/273/265
f 266/274/266 99/100/99 265/273/265
f 103/104/103 99/100/99 266/274/266
f 267/275/267 103/104/103 266/274/266
f 268/276/268 103/104/103 267/275/267
f 105/106/105 268/276/268 267/275/267
f 103/104/103 268/276/268 105/106/105
f 149/150/149 224/227/224 269/277/269
f 270/278/270 224/227/224 149/150/149
f 151/152/151 270/278/270 149/150/149
f 226/229/226 270/278/270 151/152/151
f 271/279/271 226/229/226 151/152/151
f 228/231/228 226/229/226 271/279/271
f 153/154/153 228/231/228 271/279/271
f 272/280/272 228/231/228 153/154/153
f 155/156/155 272/280/272 153/154/153
f 230/233/230 272/280/272 155/156/155
f 255/261/255 230/233/230 155/156/155
f 179/181/179 273/281/273 181/183/181
f 208/282/208 273/281/273 179/181/179
f 274/283/274 208/282/208 179/181/179
f 275/284/275 208/282/208 274/283/274
f 175/177/175 275/284/275 274/283/274
f 276/285/276 275/284/275 175/177/175
f 173/175/173 276/285/276 175/177/175
f 277/286/277 276/285/276 173/175/173
f 278/287/278 277/286/277 173/175/173
f 252/257/252 277/286/277 278/287/278
f 169/171/169 252/257/252 278/287/278
f 191/194/191 187/190/187 189/192/189
f 279/288/279 187/190/187 191/194/191
f 280/289/280 279/288/279 191/194/191
f 281/290/281 279/288/279 280/289/280
f 282/291/282 281/290/281 280/289/280
f 283/292/283 281/290/281 282/291/282
f 284/293/284 283/292/283 282/291/282
f 285/294/285 283/292/283 284/293/284
f 21/21/21 285/294/285 284/293/284
f 19/19/19 285/294/285 21/21/21
f 33/33/33 37/37/37 35/35/35
f 286/295/286 37/37/37 33/33/33
f 287/296/287 286/295/286 33/33/33
f 288/297/288 286/295/286 287/296/287
f 289/298/289 288/297/288 287/296/287
f 290/299/290 288/297/288 289/298/289
f 291/300/291 290/299/290 289/298/289
f 292/301/292 290/299/290 291/300/291
f 203/206/203 292/301/292 291/300/291
f 205/208/205 292/301/292 203/206/203
f 170/172/170 166/168/166 168/170/168
f 293/302/293 166/168/166 170/172/170
f 294/303/294 293/302/293 170/172/170
f 295/304/295 293/302/293 294/303/294
f 296/305/296 295/304/295 294/303/294
f 297/306/297 295/304/295 296/305/296
f 241/244/241 297/306/297 296/305/296
f 298/307/298 297/306/297 241/244/241
f 117/118/117 298/307/298 241/244/241
f 115/116/115 298/307/298 117/118/117
f 111/112/111 115/116/115 113/114/113
f 299/308/299 115/116/115 111/112/111
f 300/309/300 299/308/299 111/112/111
f 297/306/297 299/308/299 300/309/300
f 301/310/301 297/306/297 300/309/300
f 295/304/295 297/306/297 301/310/301
f 302/311/302 295/304/295 301/310/301
f 303/312/303 295/304/295 302/311/302
f 164/166/164 303/312/303 302/311/302
f 166/168/166 303/312/303 164/166/164
f 197/200/197 193/196/193 195/198/195
f 304/313/304 193/196/193 197/200/197
f 305/314/305 304/313/304 197/200/197
f 306/315/306 304/313/304 305/314/305
f 307/316/307 306/315/306 305/314/305
f 308/317/308 306/315/306 307/316/307
f 309/318/309 308/317/308 307/316/307
f 310/319/310 308/317/308 309/318/309
f 27/27/27 310/319/310 309/318/309
f 25/25/25 310/319/310 27/27/27
f 21/21/21 25/25/25 23/23/23
f 311/320/311 25/25/25 21/21/21
f 284/293/284 311/320/311 21/21/21
f 308/317/308 311/320/311 284/293/284
f 312/321/312 308/317/308 284/293/284
f 306/315/306 308/317/308 312/321/312
f 280/289/280 306/315/306 312/321/312
f 313/322/313 306/315/306 280/289/280
f 191/194/191 313/322/313 280/289/280
f 193/196/193 313/322/313 191/194/191
f 232/235/232 178/180/178 231/234/231
f 314/323/314 178/180/178 232/235/232
f 315/324/315 314/323/314 232/235/232
f 176/178/176 314/323/314 315/324/315
f 316/325/316 176/178/176 315/324/315
f 172/174/172 176/178/176 316/325/316
f 317/326/317 172/174/172 316/325/316
f 318/327/318 172/174/172 317/326/317
f 294/303/294 318/327/318 317/326/317
f 170/172/170 318/327/318 294/303/294
f 320/328/320 319/329/319 91/330/91
f 321/331/321 319/329/319 320/328/320
f 322/332/322 321/331/321 320/328/320
f 323/333/323 321/331/321 322/332/322
f 324/334/324 323/333/323 322/332/322
f 325/335/325 323/333/323 324/334/324
f 86/87/86 325/335/325 324/334/324
f 88/89/88 325/335/325 86/87/86
f 287/296/287 291/300/291 289/298/289
f 326/336/326 291/300/291 287/296/287
f 327/337/327 326/336/326 287/296/287
f 328/338/328 326/336/326 327/337/327
f 329/339/329 328/338/328 327/337/327
f 305/314/305 328/338/328 329/339/329
f 309/318/309 305/314/305 329/339/329
f 307/316/307 305/314/305 309/318/309
f 300/309/300 302/311/302 301/310/301
f 330/340/330 302/311/302 300/309/300
f 331/341/331 330/340/330 300/309/300
f 332/342/332 330/340/330 331/341/331
f 333/343/333 332/342/332 331/341/331
f 265/273/265 332/342/332 333/343/333
f 267/275/267 265/273/265 333/343/333
f 266/274/266 265/273/265 267/275/267
f 334/344/334 136/345/136 182/346/182
f 335/347/335 136/345/136 334/344/334
f 336/348/336 335/347/335 334/344/334
f 337/349/337 335/347/335 336/348/336
f 338/350/338 337/349/337 336/348/336
f 260/267/260 337/349/337 338/350/338
f 262/269/262 260/267/260 338/350/338
f 261/268/261 260/267/260 262/269/262
f 92/93/92 320/328/320 91/351/91
f 324/334/324 320/328/320 92/93/92
f 94/95/94 324/334/324 92/93/92
f 339/352/339 324/334/324 94/95/94
f 82/83/82 339/352/339 94/95/94
f 86/87/86 339/352/339 82/83/82
f 84/85/84 86/87/86 82/83/82
f 48/49/48 340/353/340 1/354/1
f 341/355/341 340/353/340 48/49/48
f 50/51/50 341/355/341 48/49/48
f 342/356/342 341/355/341 50/51/50
f 126/127/126 342/356/342 50/51/50
f 130/131/130 342/356/342 126/127/126
f 128/129/128 130/131/130 126/127/126
f 319/329/319 343/357/343 91/358/91
f 344/359/344 343/357/343 319/329/319
f 321/331/321 344/359/344 319/329/319
f 345/360/345 344/359/344 321/331/321
f 36/36/36 345/360/345 321/331/321
f 40/40/40 345/360/345 36/36/36
f 38/38/38 40/40/40 36/36/36
f 245/249/245 283/292/283 346/361/346
f 347/362/347 283/292/283 245/249/245
f 243/247/243 347/362/347 245/249/245
f 281/290/281 347/362/347 243/247/243
f 348/363/348 281/290/281 243/247/243
f 187/190/187 281/290/281 348/363/348
f 185/188/185 187/190/187 348/363/348
f 45/45/45 205/208/205 207/210/207
f 349/364/349 205/208/205 45/45/45
f 43/43/43 349/364/349 45/45/45
f 290/299/290 349/364/349 43/43/43
f 350/365/350 290/299/290 43/43/43
f 288/297/288 290/299/290 350/365/350
f 39/39/39 288/297/288 350/365/350
f 56/57/56 52/53/52 54/55/54
f 351/366/351 52/53/52 56/57/56
f 120/121/120 351/366/351 56/57/56
f 124/125/124 351/366/351 120/121/120
f 122/123/122 124/125/124 120/121/120
f 222/225/222 224/227/224 223/226/223
f 269/277/269 224/227/224 222/225/222
f 147/148/147 269/277/269 222/225/222
f 149/150/149 269/277/269 147/148/147
f 148/149/148 149/150/149 147/148/147
f 40/40/40 344/359/344 345/360/345
f 352/367/352 344/359/344 40/40/40
f 42/42/42 352/367/352 40/40/40
f 353/368/353 352/367/352 42/42/42
f 354/369/354 353/368/353 42/42/42
f 118/119/118 114/115/114 116/117/116
f 209/212/209 114/115/114 118/119/118
f 58/59/58 209/212/209 118/119/118
f 62/63/62 209/212/209 58/59/58
f 60/61/60 62/63/62 58/59/58
f 277/286/277 275/284/275 276/285/276
f 355/370/355 275/284/275 277/286/277
f 356/371/356 355/370/355 277/286/277
f 46/372/46 355/370/355 356/371/356
f 354/373/354 46/372/46 356/371/356
f 336/348/336 262/269/262 338/350/338
f 357/374/357 262/269/262 336/348/336
f 200/203/200 357/374/357 336/348/336
f 196/199/196 357/374/357 200/203/200
f 198/201/198 196/199/196 200/203/200
f 130/131/130 341/355/341 342/356/342
f 358/375/358 341/355/341 130/131/130
f 132/133/132 358/375/358 130/131/130
f 359/376/359 358/375/358 132/133/132
f 360/377/360 359/376/359 132/133/132
f 34/34/34 30/30/30 32/32/32
f 361/378/361 30/30/30 34/34/34
f 323/333/323 361/378/361 34/34/34
f 88/89/88 361/378/361 323/333/323
f 325/335/325 88/89/88 323/333/323
f 332/342/332 302/311/302 330/340/330
f 362/379/362 302/311/302 332/342/332
f 160/162/160 362/379/362 332/342/332
f 164/166/164 362/379/362 160/162/160
f 162/164/162 164/166/164 160/162/160
f 331/341/331 267/275/267 333/343/333
f 363/380/363 267/275/267 331/341/331
f 109/110/109 363/380/363 331/341/331
f 105/106/105 363/380/363 109/110/109
f 107/108/107 105/106/105 109/110/109
f 202/205/202 206/209/206 204/207/204
f 364/381/364 206/209/206 202/205/202
f 334/344/334 364/381/364 202/205/202
f 181/382/181 364/381/364 334/344/334
f 182/346/182 181/382/181 334/344/334
f 327/337/327 309/318/309 329/339/329
f 365/383/365 309/318/309 327/337/327
f 31/31/31 365/383/365 327/337/327
f 27/27/27 365/383/365 31/31/31
f 29/29/29 27/27/27 31/31/31
f 328/338/328 291/300/291 326/336/326
f 366/384/366 291/300/291 328/338/328
f 199/202/199 366/384/366 328/338/328
f 203/206/203 366/384/366 199/202/199
f 201/204/201 203/206/203 199/202/199
f 145/146/145 143/144/143 144/145/144
f 367/385/367 143/144/143 145/146/145
f 220/223/220 367/385/367 145/146/145
f 218/221/218 367/385/367 220/223/220
f 219/222/219 218/221/218 220/223/220
f 239/242/239 237/240/237 238/241/238
f 368/386/368 237/240/237 239/242/239
f 317/326/317 368/386/368 239/242/239
f 315/324/315 368/386/368 317/326/317
f 316/325/316 315/324/315 317/326/317
f 343/387/343 247/251/247 91/388/91
f 248/253/248 247/251/247 343/387/343
f 369/389/369 248/253/248 343/387/343
f 353/390/353 248/253/248 369/389/369
f 340/391/340 257/263/257 1/392/1
f 258/265/258 257/263/257 340/391/340
f 370/393/370 258/265/258 340/391/340
f 359/394/359 258/265/258 370/393/370
f 356/371/356 353/390/353 354/373/354
f 371/395/371 353/390/353 356/371/356
f 250/255/250 371/395/371 356/371/356
f 248/253/248 371/395/371 250/255/250
f 288/297/288 37/37/37 286/295/286
f 372/396/372 37/37/37 288/297/288
f 39/39/39 372/396/372 288/297/288
f 37/37/37 372/396/372 39/39/39
f 218/221/218 143/144/143 367/385/367
f 373/397/373 143/144/143 218/221/218
f 138/139/138 373/397/373 218/221/218
f 140/141/140 373/397/373 138/139/138
f 19/19/19 283/292/283 285/294/285
f 346/361/346 283/292/283 19/19/19
f 15/15/15 346/361/346 19/19/19
f 245/249/245 346/361/346 15/15/15
f 315/324/315 237/240/237 368/386/368
f 374/398/374 237/240/237 315/324/315
f 232/235/232 374/398/374 315/324/315
f 234/237/234 374/398/374 232/235/232
f 124/125/124 52/53/52 351/366/351
f 375/399/375 52/53/52 124/125/124
f 126/127/126 375/399/375 124/125/124
f 50/51/50 375/399/375 126/127/126
f 294/303/294 241/244/241 296/305/296
f 376/400/376 241/244/241 294/303/294
f 317/326/317 376/400/376 294/303/294
f 239/242/239 376/400/376 317/326/317
f 250/255/250 252/257/252 251/256/251
f 377/401/377 252/257/252 250/255/250
f 356/371/356 377/401/377 250/255/250
f 277/286/277 377/401/377 356/371/356
f 378/402/378 265/273/265 158/160/158
f 332/342/332 265/273/265 378/402/378
f 160/162/160 332/342/332 378/402/378
f 337/349/337 136/345/136 335/347/335
f 360/403/360 136/345/136 337/349/337
f 359/394/359 360/403/360 337/349/337
f 379/404/379 300/309/300 111/112/111
f 331/341/331 300/309/300 379/404/379
f 109/110/109 331/341/331 379/404/379
f 380/405/380 31/31/31 327/337/327
f 33/33/33 31/31/31 380/405/380
f 287/296/287 33/33/33 380/405/380
f 381/406/381 305/314/305 197/200/197
f 328/338/328 305/314/305 381/406/381
f 199/202/199 328/338/328 381/406/381
f 382/407/382 334/344/334 202/205/202
f 336/348/336 334/344/334 382/407/382
f 200/203/200 336/348/336 382/407/382
f 383/408/383 145/146/145 147/148/147
f 220/223/220 145/146/145 383/408/383
f 222/225/222 220/223/220 383/408/383
f 384/409/384 58/59/58 118/119/118
f 56/57/56 58/59/58 384/409/384
f 120/121/120 56/57/56 384/409/384
f 385/410/385 260/267/260 258/265/258
f 337/349/337 260/267/260 385/410/385
f 359/394/359 337/349/337 385/410/385
f 386/411/386 36/36/36 321/331/321
f 34/34/34 36/36/36 386/411/386
f 323/333/323 34/34/34 386/411/386
f 306/315/306 193/196/193 304/313/304
f 313/322/313 193/196/193 306/315/306
f 132/133/132 136/137/136 360/377/360
f 134/135/134 136/137/136 132/133/132
f 42/42/42 46/46/46 354/369/354
f 44/44/44 46/46/46 42/42/42
f 123/124/123 127/128/127 125/126/125
f 236/239/236 127/128/127 123/124/123
f 46/372/46 275/284/275 355/370/355
f 47/412/47 275/284/275 46/372/46
f 79/80/79 83/84/83 81/82/81
f 142/143/142 83/84/83 79/80/79
f 290/299/290 205/208/205 349/364/349
f 292/301/292 205/208/205 290/299/290
f 76/77/76 80/81/80 215/218/215
f 78/79/78 80/81/80 76/77/76
f 359/376/359 341/355/341 358/375/358
f 370/413/370 341/355/341 359/376/359
f 64/65/64 68/69/68 211/214/211
f 66/67/66 68/69/68 64/65/64
f 70/71/70 74/75/74 213/216/213
f 72/73/72 74/75/74 70/71/70
f 85/86/85 89/90/89 87/88/87
f 139/140/139 89/90/89 85/86/85
f 129/130/129 133/134/133 131/132/131
f 233/236/233 133/134/133 129/130/129
f 39/39/39 43/43/43 41/41/41
f 350/365/350 43/43/43 39/39/39
f 353/368/353 344/359/344 352/367/352
f 369/414/369 344/359/344 353/368/353
f 73/74/73 77/78/77 75/76/75
f 146/147/146 77/78/77 73/74/73
f 181/382/181 206/209/206 364/381/364
f 273/415/273 206/209/206 181/382/181
f 169/171/169 173/175/173 171/173/171
f 278/287/278 173/175/173 169/171/169
f 61/62/61 65/66/65 63/64/63
f 154/155/154 65/66/65 61/62/61
f 175/177/175 179/181/179 177/179/177
f 274/283/274 179/181/179 175/177/175
f 67/68/67 71/72/71 69/70/69
f 150/151/150 71/72/71 67/68/67
f 153/154/153 151/152/151 152/153/152
f 271/279/271 151/152/151 153/154/153
f 295/304/295 166/168/166 293/302/293
f 303/312/303 166/168/166 295/304/295
f 88/89/88 30/30/30 361/378/361
f 90/91/90 30/30/30 88/89/88
f 115/116/115 297/306/297 298/307/298
f 299/308/299 297/306/297 115/116/115
f 284/293/284 280/289/280 312/321/312
f 282/291/282 280/289/280 284/293/284
f 25/25/25 308/317/308 310/319/310
f 311/320/311 308/317/308 25/25/25
f 117/118/117 121/122/121 119/120/119
f 240/243/240 121/122/121 117/118/117
f 243/247/243 185/188/185 348/363/348
f 187/190/187 279/288/279 281/290/281
f 188/191/188 259/266/259 190/193/190
f 194/197/194 192/195/192 190/193/190
f 176/178/176 178/180/178 314/323/314
f 100/101/100 102/103/102 214/217/214
f 196/199/196 262/269/262 357/374/357
f 206/209/206 273/415/273 208/211/208
f 10/10/10 12/12/12 225/228/225
f 161/163/161 249/254/249 163/165/163
f 167/169/167 165/167/165 163/165/163
f 22/22/22 18/18/18 20/20/20
f 324/334/324 339/352/339 86/87/86
f 176/178/176 172/174/172 174/176/174
f 106/107/106 102/103/102 104/105/104
f 16/16/16 12/12/12 14/14/14
f 241/244/241 376/400/376 239/242/239
f 170/172/170 172/174/172 318/327/318
f 97/98/97 264/272/264 99/100/99
f 53/54/53 51/52/51 49/48/49
f 7/7/7 5/5/5 3/1/3
f 243/247/243 245/249/245 244/248/244
f 188/191/188 186/189/186 184/185/184
f 100/101/100 96/97/96 98/99/98
f 103/104/103 101/102/101 99/100/99
f 161/163/161 159/161/159 157/157/157
f 105/106/105 267/275/267 363/380/363
f 252/257/252 377/401/377 277/286/277
f 344/359/344 369/414/369 343/357/343
f 324/334/324 322/332/322 320/328/320
f 106/107/106 108/109/108 212/215/212
f 112/113/112 114/115/114 210/213/210
f 143/144/143 373/397/373 140/141/140
f 16/16/16 18/18/18 221/224/221
f 228/231/228 227/230/227 226/229/226
f 237/240/237 374/398/374 234/237/234
f 283/292/283 347/362/347 281/290/281
f 19/19/19 17/17/17 15/15/15
f 341/355/341 370/413/370 340/353/340
f 275/284/275 47/412/47 208/282/208
f 22/22/22 24/24/24 217/220/217
f 97/98/97 95/96/95 93/92/93
f 302/311/302 362/379/362 164/166/164
f 4/4/4 6/6/6 229/232/229
f 248/253/248 353/390/353 371/395/371
f 94/95/94 96/97/96 216/219/216
f 224/227/224 270/278/270 226/229/226
f 50/51/50 52/53/52 375/399/375
f 112/113/112 108/109/108 110/111/110
f 109/110/109 379/404/379 111/112/111
f 53/54/53 254/260/254 55/56/55
f 287/296/287 380/405/380 327/337/327
f 59/60/59 57/58/57 55/56/55
f 197/200/197 199/202/199 381/406/381
f 7/7/7 242/246/242 9/9/9
f 200/203/200 382/407/382 202/205/202
f 27/27/27 309/318/309 365/383/365
f 222/225/222 383/408/383 147/148/147
f 10/10/10 6/6/6 8/8/8
f 118/119/118 120/121/120 384/409/384
f 291/300/291 366/384/366 203/206/203
f 258/265/258 359/394/359 385/410/385
f 13/13/13 11/11/11 9/9/9
f 321/331/321 323/333/323 386/411/386
f 228/231/228 272/280/272 230/233/230
f 158/160/158 160/162/160 378/402/378
