# Blender v3.2.2 OBJ File: ''
# www.blender.org
mtllib Train_C_Windows.mtl
o enhanced_subway_train_Subway_windows_enhanced_subway_train_Subway_windows.001
v -55.714153 146.510712 29.649275
v -55.049793 146.485107 -29.632963
v -55.711983 146.510696 -29.646055
v -55.051964 146.485107 29.662365
v 55.807144 146.510712 -29.646055
v 56.253456 144.384659 -32.827969
v 55.971809 145.764114 -31.448498
v 56.609230 142.582260 -33.574501
v 58.151623 133.733032 -33.574520
v 58.086102 133.797958 33.577705
v 56.226135 142.582260 33.577728
v 55.877842 144.384628 32.831108
v 55.611378 145.764114 31.451639
v 55.467350 146.510712 29.649271
v 52.459801 151.133499 90.834427
v 62.010029 101.487442 67.065002
v 52.456917 151.133408 67.065048
v 62.008446 101.487350 90.834381
v 51.968903 151.121002 90.834427
v 61.512684 101.474800 67.065002
v 61.517456 101.474869 90.834381
v 51.959534 151.120758 67.065048
v 62.007278 101.486900 100.065002
v 52.456055 151.132950 123.834412
v 62.011040 101.486992 123.834381
v 52.459145 151.133011 100.065033
v 61.513340 101.475258 123.834381
v 51.967926 151.121429 100.065033
v 61.515953 101.475319 100.065002
v 51.958359 151.121201 123.834412
v 11.155257 140.227539 199.956284
v -11.463266 94.057495 199.956223
v -11.463240 140.227570 199.956253
v 11.155231 94.057404 199.956253
v -11.463264 94.057518 202.456223
v 11.155259 140.227539 202.456268
v -11.463238 140.227570 202.456238
v 11.155232 94.057419 202.456253
v -52.831673 149.058578 99.074677
v -60.457153 103.549683 124.824745
v -60.462284 103.549736 99.074577
v -52.822685 149.058578 124.824837
v -60.954994 103.549683 124.824738
v -53.323044 149.058578 99.074677
v -60.953758 103.549736 99.074570
v -53.320518 149.058578 124.824837
v -53.323792 149.058578 91.824821
v -60.955246 103.549736 66.074562
v -60.954018 103.549690 91.824722
v -53.321259 149.058578 66.074661
v -52.832718 149.058578 91.824821
v -60.457710 103.549744 66.074562
v -52.823723 149.058578 66.074661
v -60.462845 103.549698 91.824722
v -53.160549 148.989990 -91.165726
v -61.118923 103.618271 -67.357948
v -53.158028 148.989975 -67.357910
v -61.117672 103.618324 -91.165771
v -52.669537 148.989990 -91.165726
v -60.621426 103.618271 -67.357948
v -60.626545 103.618324 -91.165771
v -52.660530 148.989990 -67.357910
v -52.668205 148.989990 -100.377121
v -60.620834 103.618317 -124.146568
v -52.659218 148.989990 -124.146500
v -60.625977 103.618263 -100.377182
v -61.118713 103.618309 -124.146561
v -53.159615 148.989990 -100.377136
v -53.157104 148.989990 -124.146500
v -61.117500 103.618263 -100.377182
v 52.857773 149.064392 -91.245544
v 61.612022 103.555481 -67.278130
v 61.610592 103.555496 -91.245583
v 52.855061 149.064346 -67.278091
v 61.114681 103.543823 -67.278130
v 52.366882 149.052902 -91.245544
v 61.119621 103.543991 -91.245583
v 52.357708 149.052689 -67.278091
v 61.114120 103.543884 -124.146545
v 52.365570 149.052902 -100.377129
v 52.356400 149.052689 -124.146507
v 61.119087 103.543938 -100.377167
v 52.856819 149.064407 -100.377129
v 61.611855 103.555542 -124.146545
v 52.854134 149.064346 -124.146507
v 61.610416 103.555458 -100.377167
v -11.655035 140.514404 -200.752899
v 11.547014 93.770584 -200.752899
v 11.547106 140.514404 -200.752899
v -11.655128 93.770630 -200.752914
v -11.655035 140.514404 -202.002899
v 11.547016 93.770584 -202.002899
v -11.655128 93.770630 -202.002899
v 11.547108 140.514404 -202.002899
v 54.684059 148.763000 161.652008
v 63.875694 99.400009 189.118256
v 54.662361 148.762283 189.118362
v 63.938957 99.402222 161.651947
v 56.734318 148.832489 189.118362
v 66.041153 99.473450 161.651947
v 56.727688 148.832260 161.652039
v 66.051598 99.473740 189.118271
v 27.583883 100.026367 199.314880
v 51.586926 148.859283 199.056686
v 51.587738 100.025894 199.097839
v 27.583071 148.859680 199.212616
v 51.587742 100.025948 200.635849
v 27.583069 148.859772 203.907547
v 27.583878 100.026466 204.012924
v 51.586926 148.859314 200.409958
v -26.877995 150.429550 203.826492
v -52.400448 98.456116 199.984924
v -26.878090 98.456108 204.171417
v -52.400356 150.429550 199.975449
v -52.400444 98.456108 198.856995
v -26.877995 150.429550 199.295654
v -26.878090 98.456108 199.632477
v -52.400352 150.429550 199.049408
v -57.208260 146.871872 187.869873
v -65.687447 101.363029 162.900482
v -65.729988 101.362961 187.869843
v -57.170555 146.871872 162.900497
v -63.609585 101.362961 187.869843
v -55.357815 146.871872 162.900497
v -55.204586 146.871872 187.869888
v -63.813229 101.363029 162.900467
v -54.759819 148.744568 -162.089722
v -63.973175 99.414139 -189.139984
v -54.624359 148.739395 -189.139893
v -64.147369 99.420723 -162.089828
v -56.639130 148.816315 -189.139893
v -66.066612 99.493996 -162.089828
v -56.606155 148.815063 -162.089722
v -66.098328 99.495277 -189.139984
v 65.166840 101.362968 -163.026169
v 57.594261 146.871872 -188.203537
v 57.590012 146.871872 -163.026077
v 65.170120 101.363029 -188.203629
v 55.526466 146.871872 -163.026077
v 62.987656 101.363029 -188.203629
v 63.036926 101.362968 -163.026169
v 55.514462 146.871872 -188.203537
v 51.392265 100.607658 -198.497284
v 27.996868 148.275421 -202.984100
v 27.996777 100.633156 -203.236328
v 51.392361 148.249969 -198.056717
v 27.996868 148.275421 -205.581085
v 51.392265 100.607658 -201.345123
v 27.996777 100.633156 -205.827240
v 51.392357 148.249969 -201.015747
v -28.080570 148.263992 -203.101974
v -50.761585 100.621719 -198.053787
v -28.122286 100.621666 -203.351837
v -50.688919 148.263992 -197.618134
v -28.507431 148.263992 -205.664383
v -51.229633 100.621719 -200.863449
v -51.175274 148.263992 -200.537720
v -28.548115 100.621666 -205.908051
v 59.215618 133.735840 -36.916985
v 65.505890 98.787514 36.927719
v 59.217072 133.735870 36.950478
v 65.504410 98.787514 -36.939743
v 60.086464 133.769501 -36.934200
v 66.376740 98.821175 36.910500
v 66.375259 98.821175 -36.956959
v 60.087921 133.769531 36.933258
v -59.182064 133.763306 -36.916985
v -65.505890 98.787514 36.927719
v -65.504410 98.787514 -36.939743
v -59.183517 133.763336 36.950478
v -60.052910 133.796967 -36.934200
v -66.376740 98.821175 36.910500
v -60.054367 133.796997 36.933258
v -66.375259 98.821175 -36.956959
v 57.489433 133.707428 -33.561432
v 55.947041 142.556656 -33.561413
v 55.591267 144.359070 -32.814877
v 55.309620 145.738525 -31.435408
v 55.144955 146.485123 -29.632961
v 57.423912 133.772369 33.590794
v 55.563946 142.556656 33.590809
v 55.215652 144.359039 32.844200
v 54.949188 145.738525 31.464735
v 54.805161 146.485107 29.662363
v -57.583881 133.679993 -33.561436
v -56.514080 142.582260 -33.574505
v -55.851891 142.556656 -33.561417
v -58.246071 133.705597 -33.574528
v -56.158306 144.384674 -32.827972
v -55.496117 144.359085 -32.814880
v -55.876652 145.764130 -31.448502
v -55.214462 145.738541 -31.435410
v -57.518360 133.744934 33.590801
v -56.516251 142.582260 33.577732
v -58.180550 133.770523 33.577709
v -55.854061 142.556656 33.590813
v -56.160488 144.384628 32.831108
v -55.498299 144.359039 32.844200
v -55.878826 145.764130 31.451637
v -55.216637 145.738541 31.464733
vt 0.500058 0.450765
vt 0.494210 0.258566
vt 0.500733 0.258506
vt 0.493534 0.450826
vt 0.489666 0.542408
vt 0.476010 0.532077
vt 0.484869 0.536559
vt 0.464437 0.529645
vt 0.407807 0.529600
vt 0.407247 0.747546
vt 0.463912 0.747618
vt 0.475509 0.745209
vt 0.484397 0.740743
vt 0.489423 0.734658
vt 0.103763 0.504949
vt 0.014422 0.694973
vt 0.014422 0.504947
vt 0.103763 0.694972
vt 0.105956 0.504725
vt 0.195297 0.694744
vt 0.105956 0.694748
vt 0.195297 0.504719
vt 0.013098 0.890014
vt 0.102439 0.699990
vt 0.102439 0.890017
vt 0.013098 0.699992
vt 0.194965 0.699991
vt 0.105624 0.890011
vt 0.105624 0.699989
vt 0.194965 0.890018
vt 0.402105 0.812845
vt 0.583691 0.901803
vt 0.402105 0.901803
vt 0.583691 0.812845
vt 0.583683 0.901854
vt 0.402097 0.990813
vt 0.402097 0.901854
vt 0.583684 0.990813
vt 0.899545 0.867426
vt 0.809239 0.705601
vt 0.899545 0.705598
vt 0.809239 0.867431
vt 0.990310 0.705637
vt 0.900004 0.867466
vt 0.900004 0.705638
vt 0.990310 0.867468
vt 0.989343 0.699592
vt 0.899013 0.537720
vt 0.989343 0.537721
vt 0.899013 0.699594
vt 0.898759 0.537859
vt 0.808429 0.699728
vt 0.808429 0.537854
vt 0.898759 0.699731
vt 0.990786 0.357988
vt 0.901301 0.531129
vt 0.901301 0.357987
vt 0.990786 0.531128
vt 0.895609 0.530996
vt 0.806124 0.357860
vt 0.895609 0.357857
vt 0.806124 0.531002
vt 0.895434 0.178311
vt 0.806091 0.351446
vt 0.806094 0.178304
vt 0.895432 0.351450
vt 0.900472 0.178254
vt 0.989813 0.351394
vt 0.900472 0.351396
vt 0.989813 0.178254
vt 0.011910 0.144747
vt 0.101995 0.318936
vt 0.011909 0.318934
vt 0.101995 0.144746
vt 0.196862 0.145790
vt 0.106776 0.319974
vt 0.106776 0.145787
vt 0.196862 0.319980
vt 0.106115 0.326360
vt 0.195456 0.500544
vt 0.106115 0.500550
vt 0.195456 0.326356
vt 0.014834 0.500702
vt 0.104175 0.326514
vt 0.104175 0.500704
vt 0.014834 0.326515
vt 0.402704 0.093310
vt 0.578397 0.180518
vt 0.402704 0.180519
vt 0.578397 0.093310
vt 0.402824 0.092711
vt 0.578517 0.005502
vt 0.578517 0.092711
vt 0.402824 0.005502
vt 0.394274 0.614616
vt 0.299877 0.787185
vt 0.299877 0.614605
vt 0.394274 0.787217
vt 0.203795 0.787227
vt 0.298193 0.614598
vt 0.298193 0.787230
vt 0.203795 0.614593
vt 0.395055 0.901989
vt 0.217191 0.814556
vt 0.395058 0.814556
vt 0.217188 0.901987
vt 0.395004 0.990672
vt 0.217192 0.902349
vt 0.395059 0.902349
vt 0.217135 0.990669
vt 0.770761 0.901633
vt 0.591462 0.990678
vt 0.591456 0.901453
vt 0.770763 0.990678
vt 0.591431 0.811145
vt 0.770735 0.899199
vt 0.591431 0.899234
vt 0.770732 0.811146
vt 0.692313 0.614284
vt 0.786180 0.788308
vt 0.692313 0.788338
vt 0.786180 0.614258
vt 0.594679 0.615017
vt 0.688547 0.788886
vt 0.594679 0.788990
vt 0.688548 0.614878
vt 0.692107 0.207674
vt 0.590433 0.396295
vt 0.590434 0.207598
vt 0.692108 0.396393
vt 0.692628 0.396390
vt 0.794300 0.207649
vt 0.794300 0.396409
vt 0.692628 0.207631
vt 0.300765 0.396127
vt 0.206132 0.222724
vt 0.300765 0.222721
vt 0.206132 0.396129
vt 0.399289 0.394672
vt 0.304656 0.221336
vt 0.399289 0.221306
vt 0.304656 0.394679
vt 0.396715 0.180596
vt 0.222096 0.093102
vt 0.396716 0.093105
vt 0.222090 0.180732
vt 0.222082 0.093042
vt 0.396704 0.005721
vt 0.396702 0.093029
vt 0.222082 0.005676
vt 0.584027 0.182501
vt 0.763071 0.095109
vt 0.763101 0.182502
vt 0.583992 0.095060
vt 0.584042 0.006306
vt 0.763082 0.093658
vt 0.584007 0.093658
vt 0.763115 0.006323
vt 0.302154 0.413474
vt 0.395958 0.608544
vt 0.302154 0.608604
vt 0.395958 0.413414
vt 0.299029 0.412942
vt 0.205226 0.608013
vt 0.205226 0.412882
vt 0.299029 0.608073
vt 0.593444 0.608184
vt 0.688274 0.411161
vt 0.688274 0.608245
vt 0.593444 0.411101
vt 0.790186 0.608182
vt 0.695356 0.411159
vt 0.790186 0.411099
vt 0.695356 0.608243
vt 0.480446 0.467532
vt 0.483786 0.512644
vt 0.473923 0.467458
vt 0.490309 0.512718
vt 0.486317 0.522598
vt 0.492840 0.522672
vt 0.488405 0.532518
vt 0.494927 0.532592
vt 0.496188 0.542482
vt 0.472586 0.809044
vt 0.482939 0.764351
vt 0.489462 0.764426
vt 0.466064 0.808969
vt 0.485961 0.754441
vt 0.492484 0.754515
vt 0.488215 0.744541
vt 0.494738 0.744615
vt 0.495945 0.734732
vt 0.512415 0.183451
vt 0.506857 0.228753
vt 0.500334 0.228813
vt 0.518939 0.183391
vt 0.504244 0.238702
vt 0.497721 0.238762
vt 0.502075 0.248618
vt 0.495552 0.248678
vt 0.514781 0.525315
vt 0.506725 0.480479
vt 0.521304 0.525255
vt 0.500201 0.480539
vt 0.503710 0.470560
vt 0.497187 0.470621
vt 0.501388 0.460653
vt 0.494864 0.460714
vt 0.489142 0.252691
vt 0.480275 0.248213
vt 0.468696 0.245785
vt 0.411674 0.245752
vt 0.411674 0.463487
vt 0.468212 0.463541
vt 0.479803 0.461130
vt 0.488695 0.456666
vt 0.501028 0.740602
vt 0.509894 0.745068
vt 0.521472 0.747482
vt 0.578080 0.747449
vt 0.578080 0.529729
vt 0.521449 0.529736
vt 0.509870 0.532161
vt 0.501000 0.536636
vt 0.513716 0.461096
vt 0.504856 0.456614
vt 0.525290 0.463528
vt 0.581829 0.463579
vt 0.583366 0.245633
vt 0.526289 0.245560
vt 0.514683 0.247968
vt 0.505776 0.252434
vn 0.0386 0.9993 0.0000
vn 0.9816 0.1910 0.0040
vn 0.9816 0.1910 0.0039
vn 0.9816 0.1911 0.0039
vn 0.9815 0.1912 0.0041
vn 0.9816 0.1912 0.0040
vn 0.9816 0.1911 0.0040
vn -0.9816 -0.1911 -0.0040
vn 0.0196 -0.0038 -0.9998
vn -0.0196 0.0037 0.9998
vn 0.9814 -0.1919 -0.0003
vn 0.9814 -0.1919 -0.0002
vn 0.9814 -0.1920 -0.0003
vn -0.9814 0.1919 -0.0000
vn -0.9814 0.1919 0.0002
vn -0.9814 0.1919 0.0003
vn -0.9814 0.1920 0.0003
vn -0.9814 0.1920 0.0000
vn 0.9814 -0.1919 -0.0004
vn -0.9814 0.1919 0.0001
vn -0.9816 -0.1911 -0.0039
vn 0.1420 0.0035 0.9899
vn 0.1414 0.0032 0.9899
vn 0.1418 0.0034 0.9899
vn 0.1416 0.0033 0.9899
vn -0.1554 0.0033 0.9878
vn -0.1557 0.0034 0.9878
vn -0.1556 0.0034 0.9878
vn -0.1555 0.0033 0.9878
vn -0.2026 -0.0072 0.9792
vn -0.2021 -0.0070 0.9793
vn -0.2024 -0.0072 0.9793
vn -0.2022 -0.0071 0.9793
vn 0.1896 0.0058 -0.9819
vn 0.1901 0.0061 -0.9817
vn 0.1899 0.0060 -0.9818
vn 0.1897 0.0058 -0.9818
vn 0.2318 -0.0073 0.9727
vn 0.2318 -0.0072 0.9727
vn -0.2184 0.0058 -0.9758
vn -0.2193 0.0063 -0.9756
vn -0.2186 0.0059 -0.9758
vn -0.2190 0.0062 -0.9757
vn -0.0196 -0.0034 -0.9998
vn -0.0329 0.3769 -0.9257
vn -0.0412 0.7023 -0.7107
vn -0.0432 0.9216 -0.3857
vn 0.0196 0.0041 0.9998
vn -0.0034 0.3833 0.9236
vn 0.0133 0.7057 0.7084
vn 0.0132 0.7057 0.7084
vn -0.0281 0.9227 0.3845
vn -0.0386 0.9993 -0.0002
vn 0.0329 0.3769 -0.9257
vn 0.0412 0.7023 -0.7107
vn 0.0432 0.9216 -0.3857
vn 0.0281 0.9226 0.3847
vn 0.0280 0.9226 0.3847
vn 0.9813 -0.1923 -0.0005
vn 0.9815 -0.1915 -0.0005
vn -0.9816 -0.1910 -0.0039
vn -0.9816 -0.1909 -0.0039
vn -0.9816 -0.1909 -0.0038
vn -0.9814 0.1918 0.0003
vn -0.9813 0.1923 0.0005
usemtl Windows
s 1
f 1/1/1 2/2/1 3/3/1
f 1/1/1 4/4/1 2/2/1
f 5/5/2 6/6/2 7/7/2
f 5/5/2 8/8/3 6/6/2
f 5/5/2 9/9/3 8/8/3
f 5/5/3 10/10/4 9/9/3
f 5/5/3 11/11/4 10/10/4
f 5/5/3 12/12/5 11/11/4
f 5/5/3 13/13/6 12/12/5
f 5/5/3 14/14/4 13/13/6
f 15/15/7 16/16/7 17/17/7
f 15/15/7 18/18/7 16/16/7
f 19/19/8 20/20/8 21/21/8
f 19/19/8 22/22/8 20/20/8
f 23/23/7 24/24/7 25/25/7
f 23/23/7 26/26/7 24/24/7
f 27/27/8 28/28/8 29/29/8
f 27/27/8 30/30/8 28/28/8
f 31/31/9 32/32/9 33/33/9
f 31/31/9 34/34/9 32/32/9
f 35/35/10 36/36/10 37/37/10
f 35/35/10 38/38/10 36/36/10
f 39/39/11 40/40/12 41/41/12
f 39/39/11 42/42/13 40/40/12
f 43/43/14 44/44/15 45/45/16
f 43/43/14 46/46/17 44/44/15
f 47/47/16 48/48/16 49/49/18
f 47/47/16 50/50/15 48/48/16
f 51/51/12 52/52/11 53/53/11
f 51/51/12 54/54/13 52/52/11
f 55/55/16 56/56/14 57/57/16
f 55/55/16 58/58/16 56/56/14
f 59/59/11 60/60/11 61/61/11
f 59/59/11 62/62/19 60/60/11
f 63/63/11 64/64/11 65/65/11
f 63/63/11 66/66/11 64/64/11
f 67/67/16 68/68/16 69/69/16
f 67/67/16 70/70/20 68/68/16
f 71/71/7 72/72/7 73/73/7
f 71/71/7 74/74/7 72/72/7
f 75/75/8 76/76/8 77/77/8
f 75/75/8 78/78/8 76/76/8
f 79/79/8 80/80/8 81/81/8
f 79/79/8 82/82/8 80/80/8
f 83/83/7 84/84/7 85/85/7
f 83/83/7 86/86/7 84/84/7
f 87/87/10 88/88/10 89/89/10
f 87/87/10 90/90/10 88/88/10
f 91/91/9 92/92/9 93/93/9
f 91/91/9 94/94/9 92/92/9
f 95/95/21 96/96/21 97/97/21
f 95/95/21 98/98/21 96/96/21
f 99/99/7 100/100/4 101/101/7
f 99/99/7 102/102/4 100/100/4
f 103/103/9 104/104/9 105/105/9
f 103/103/9 106/106/9 104/104/9
f 107/107/22 108/108/23 109/109/24
f 107/107/22 110/110/25 108/108/23
f 111/111/26 112/112/27 113/113/28
f 111/111/26 114/114/29 112/112/27
f 115/115/9 116/116/9 117/117/9
f 115/115/9 118/118/9 116/116/9
f 119/119/16 120/120/15 121/121/15
f 119/119/16 122/122/15 120/120/15
f 123/123/11 124/124/11 125/125/11
f 123/123/11 126/126/12 124/124/11
f 127/127/12 128/128/12 129/129/11
f 127/127/12 130/130/12 128/128/12
f 131/131/16 132/132/16 133/133/16
f 131/131/16 134/134/16 132/132/16
f 135/135/3 136/136/3 137/137/4
f 135/135/3 138/138/4 136/136/3
f 139/139/21 140/140/21 141/141/21
f 139/139/21 142/142/21 140/140/21
f 143/143/30 144/144/31 145/145/32
f 143/143/30 146/146/33 144/144/31
f 147/147/34 148/148/35 149/149/36
f 147/147/34 150/150/37 148/148/35
f 151/151/38 152/152/38 153/153/39
f 151/151/38 154/154/38 152/152/38
f 155/155/40 156/156/41 157/157/42
f 155/155/40 158/158/43 156/156/41
f 159/159/21 160/160/21 161/161/21
f 159/159/21 162/162/21 160/160/21
f 163/163/4 164/164/4 165/165/4
f 163/163/4 166/166/4 164/164/4
f 167/167/11 168/168/11 169/169/12
f 167/167/11 170/170/11 168/168/11
f 171/171/16 172/172/16 173/173/16
f 171/171/16 174/174/16 172/172/16
f 175/175/44 8/176/44 9/177/44
f 175/175/44 176/178/44 8/176/44
f 6/179/45 176/178/45 177/180/45
f 6/179/45 8/176/45 176/178/45
f 177/180/46 7/181/46 6/179/46
f 177/180/46 178/182/46 7/181/46
f 178/182/47 5/5/47 7/181/47
f 178/182/47 179/183/47 5/5/47
f 180/184/48 11/185/48 181/186/48
f 180/184/48 10/187/48 11/185/48
f 12/188/49 181/186/49 11/185/49
f 12/188/49 182/189/49 181/186/49
f 13/190/50 182/189/51 12/188/51
f 13/190/50 183/191/50 182/189/51
f 183/191/52 14/14/52 184/192/52
f 183/191/52 13/190/52 14/14/52
f 14/14/53 179/183/53 184/192/53
f 14/14/53 5/5/53 179/183/53
f 185/193/9 186/194/9 187/195/9
f 185/193/9 188/196/9 186/194/9
f 189/197/54 187/195/54 186/194/54
f 189/197/54 190/198/54 187/195/54
f 190/198/55 191/199/55 192/200/55
f 190/198/55 189/197/55 191/199/55
f 192/200/56 3/3/56 2/2/56
f 192/200/56 191/199/56 3/3/56
f 193/201/10 194/202/10 195/203/10
f 193/201/10 196/204/10 194/202/10
f 197/205/49 196/204/49 198/206/49
f 197/205/49 194/202/49 196/204/49
f 199/207/50 198/206/50 200/208/50
f 199/207/50 197/205/50 198/206/50
f 200/208/57 1/1/57 199/207/58
f 200/208/57 4/4/57 1/1/57
f 4/4/13 192/209/13 2/2/13
f 4/4/13 190/210/13 192/209/13
f 4/4/13 187/211/59 190/210/13
f 4/4/13 185/212/60 187/211/59
f 4/4/12 193/213/12 185/212/11
f 4/4/12 196/214/12 193/213/12
f 4/4/12 198/215/12 196/214/12
f 4/4/12 200/216/12 198/215/12
f 179/183/61 183/217/62 184/192/61
f 179/183/61 182/218/63 183/217/62
f 179/183/61 181/219/61 182/218/63
f 179/183/61 180/220/61 181/219/61
f 179/183/21 175/221/21 180/220/21
f 179/183/21 176/222/21 175/221/21
f 179/183/21 177/223/21 176/222/21
f 179/183/21 178/224/21 177/223/21
f 1/1/16 197/225/16 199/226/15
f 1/1/16 194/227/15 197/225/16
f 1/1/16 195/228/15 194/227/15
f 1/1/16 188/229/64 195/228/16
f 1/1/16 186/230/65 188/229/64
f 1/1/16 189/231/17 186/230/65
f 1/1/16 191/232/16 189/231/17
f 1/1/16 3/3/17 191/232/16
