# Blender v2.76 (sub 0) OBJ File: ''
# www.blender.org
mtllib Wraith Left SHoulderpad.mtl
o Dark_Wraith.DarkWraith.smd.mesh_1
v -4.063694 3.600396 -1.077507
v -2.207417 3.514111 -0.781433
v -0.399678 4.719696 -4.487358
v -2.394787 4.642208 -5.015106
v 0.421496 4.042091 -6.866886
v -1.630733 3.855726 -7.869156
v -1.951887 1.221374 2.361786
v -1.913486 -0.055428 2.721092
v 0.232296 -0.839841 3.369102
v 0.973063 1.044812 2.839180
v 3.150305 0.620807 4.436707
v 2.323933 -1.629431 5.076164
v -2.154974 -3.371291 1.045845
v -2.316789 -4.468630 -0.208069
v 1.156986 -5.317946 -1.280151
v 1.781282 -4.421638 0.512619
v 3.729280 -6.261200 -2.629562
v 4.352627 -5.641357 -0.498993
v -1.685312 1.505511 2.194756
v -1.671768 -0.115267 2.888290
v -0.179413 0.561982 3.309494
v -0.221544 2.461596 2.541946
v 0.761093 3.847373 3.815514
v 0.785089 1.636340 4.641121
v -1.609524 -0.375045 2.724442
v -1.839922 -1.887042 2.405045
v -0.600131 -2.313595 3.363541
v -0.548291 -0.439142 3.796059
v 0.216943 -3.172400 4.755440
v 0.356141 -1.185199 5.235435
v -1.973116 1.669201 1.890366
v -2.162537 0.336235 2.663162
v 1.026424 0.125170 2.128342
v 0.284740 1.808104 1.055763
v 3.043316 0.267925 2.233261
v 2.618435 2.249829 0.796471
v -2.124981 2.797857 0.317207
v -1.872078 1.435033 2.087616
v 0.669563 3.643479 0.849144
v -0.615414 4.254093 -0.771530
v 2.401196 6.142841 -0.221344
v 0.974432 6.539259 -2.288620
v -2.241904 -4.521608 -0.079346
v -3.938544 -4.910429 -0.458847
v -0.038478 -5.778297 -2.100113
v 1.025372 -5.218348 -0.686516
v 0.809170 -6.517285 -2.799454
v 2.115700 -5.633882 -1.056015
v 2.969980 -6.314846 -1.997375
v 1.606628 -7.429696 -3.443344
v -2.041482 -2.564168 1.927147
v -2.390329 -3.730896 0.550583
v 3.091671 -4.568946 -0.373589
v 3.730883 -3.366346 1.442032
v 5.195581 -5.603424 -1.334412
v 5.882296 -4.671854 0.753960
v 1.191690 0.514307 5.122910
v 2.229204 1.256897 6.245613
v 2.250359 3.660504 5.367401
v 0.751680 2.626830 4.025246
v -1.217061 1.977375 3.095352
v -0.700833 0.147606 4.301682
v -4.598701 1.334389 1.946259
v -4.747503 -0.112136 3.083855
v 2.056755 -4.200696 4.778038
v 2.205555 -1.685498 6.825180
v -0.128672 -0.575218 4.810081
v -0.067150 -3.045586 3.186325
v -4.363503 -0.038412 3.309464
v -4.421103 -2.404811 2.042259
v 0.912741 -7.414606 3.574966
v 1.032738 -5.057806 5.682167
v 0.479801 -3.959021 4.383560
v 0.044687 -6.052205 2.319084
v -0.999852 -3.021776 3.369461
v -1.380569 -5.085366 1.601089
v -4.421103 -2.404811 2.042259
v -4.654999 -4.319234 0.618324
v 5.491024 -5.273157 1.667252
v 5.411560 -3.960687 3.580612
v 2.325422 -3.033918 2.577881
v 2.494583 -4.463976 0.559662
v -2.107383 -2.335732 2.328125
v -2.065214 -3.882175 0.657906
v 4.021864 -6.398559 -4.215317
v 4.733761 -6.095048 -2.658234
v 2.966528 -5.312349 -1.672806
v 2.336412 -5.695740 -2.980453
v -2.342934 -3.687386 0.684250
v -2.510705 -4.348813 -0.314537
v 7.037228 -3.513700 2.307793
v 6.703138 -2.043964 3.844131
v 4.097450 -1.797594 2.629646
v 4.174696 -3.122242 1.517502
v -2.218161 -1.836086 2.161888
v -2.242692 -3.030788 1.361259
v -0.556698 -6.446598 -3.678528
v -0.588420 -7.906601 -4.897141
v 1.135984 -8.316676 -3.895500
v 1.039249 -5.911991 -3.095734
v 0.565849 -4.980928 -2.011673
v -1.066694 -5.412175 -2.802452
v -2.405038 -4.574644 -0.180000
v -3.895606 -4.963356 -0.673042
v 1.162327 4.001734 4.755791
v 0.778555 5.501359 2.853699
v -0.133423 4.333549 2.192780
v 0.312114 2.969485 3.878784
v -1.401251 3.385868 1.758614
v -1.068487 2.110809 3.171806
v -4.656634 2.370190 1.444939
v -4.389030 1.302337 2.355896
v 2.473751 5.303100 2.345993
v 1.888348 7.199960 0.725845
v 0.840591 5.196137 0.772530
v 1.677273 3.632972 2.092255
v -2.035502 1.967991 1.322250
v -2.095213 0.407151 2.560707
v 4.122765 -3.184271 4.482590
v 4.215286 -0.436212 5.696365
v 1.780127 -0.164538 4.144905
v 1.731884 -2.606567 3.315834
v -1.476089 -0.082961 2.923492
v -1.616610 -2.152895 2.502975
v -4.552909 3.466961 -0.868309
v -2.610834 3.432153 -0.764862
v -2.800882 4.092350 -4.010765
v -4.816843 3.792692 -3.626305
v -3.026215 5.737161 -5.879047
v -4.979149 5.190074 -5.390656
v 5.042656 -3.700116 3.646927
v 5.345055 -1.453711 4.773697
v 2.668081 -0.602632 3.663742
v 2.447290 -2.902328 2.480621
v -1.785902 -0.018020 2.666527
v -2.101887 -2.379874 2.014977
v -0.093795 -8.582899 -0.199326
v -0.069787 -8.044697 2.328690
v -0.928425 -6.300874 1.770088
v -0.926894 -7.192944 -0.593315
v -2.138868 -5.041472 1.485199
v -2.269566 -6.225409 -0.728386
v -4.494433 -4.319716 0.970863
v -3.857363 -5.342301 -0.633430
v 11.503761 4.356223 -5.820831
v 11.503761 3.189822 -7.073631
v 10.649372 1.687417 -5.830429
v 10.545616 2.976504 -4.736359
v 7.042852 -0.544365 -3.756607
v 7.548544 0.900575 -3.237869
v -4.747503 -0.112136 3.083855
v -4.460225 -2.694900 1.900124
v -2.408929 -3.075806 3.154526
v -2.506721 -0.649125 4.256248
v -1.297736 -3.822087 5.003372
v -1.198667 -1.290414 5.952499
v 11.281305 3.482083 -4.734955
v 7.900862 1.017593 -3.405556
v 8.016060 1.713594 -2.440750
v 11.375061 4.369990 -3.005997
v 12.131750 5.655098 -3.399406
v 12.229467 4.533193 -5.252403
v 0.435248 4.296297 2.154999
v -0.077612 5.482048 1.202324
v -1.524807 4.600993 0.800369
v -1.023037 3.370842 1.758507
v -4.685105 3.465588 0.775055
v -4.595765 1.991534 1.746094
v 11.484468 5.198714 -0.258377
v 11.484468 5.501119 -2.715981
v 10.399668 4.003517 -2.715981
v 10.399670 3.960316 -0.723984
v 8.028219 1.713594 -2.522537
v 7.903419 1.991993 -1.437737
v -2.339843 3.329687 -0.766296
v -1.917748 2.356012 1.187416
v 0.332550 4.209943 -1.636116
v -1.204977 4.668523 -2.885666
v 1.934566 4.341084 -3.910393
v 0.107100 4.751541 -5.551857
v 7.054092 -0.585972 -3.843910
v 7.435184 0.874525 -3.424866
v 10.176743 1.570992 -4.773232
v 9.722200 0.082265 -5.673828
v 11.474192 2.535067 -5.875427
v 11.056597 1.325466 -7.017822
v -4.483502 1.689589 1.999062
v -4.363503 -0.038412 3.309464
v -2.045252 0.218662 4.514877
v -2.231194 2.423197 2.972954
v -0.649845 0.894546 6.152382
v -0.505844 3.683346 4.558777
v 13.117775 5.315743 -4.524284
v 13.048046 3.946481 -6.170868
v 11.051243 2.554483 -5.470070
v 11.152700 3.555305 -3.745552
v 7.905298 1.713594 -2.522537
v 7.923309 0.620454 -3.721420
v 13.580803 5.397016 -1.986526
v 13.488062 5.175033 -4.207726
v 11.793730 3.825607 -3.676125
v 12.082533 4.173567 -1.782478
v 7.950335 1.713594 -2.522537
v 7.815931 2.011189 -1.394547
vt 0.355469 -0.702148
vt 0.355469 -0.724609
vt 0.371094 -0.724609
vt 0.375000 -0.701172
vt 0.397461 -0.724609
vt 0.397461 -0.698242
vt 0.355469 -0.703125
vt 0.355469 -0.725586
vt 0.370117 -0.725586
vt 0.370117 -0.700195
vt 0.397461 -0.699219
vt 0.356445 -0.702148
vt 0.374023 -0.725586
vt 0.372070 -0.700195
vt 0.397461 -0.725586
vt 0.417969 -0.697266
vt 0.416016 -0.716797
vt 0.433594 -0.719727
vt 0.434570 -0.697266
vt 0.454102 -0.698242
vt 0.453125 -0.722656
vt 0.400391 -0.694336
vt 0.400391 -0.724609
vt 0.437500 -0.723633
vt 0.437500 -0.694336
vt 0.454102 -0.723633
vt 0.454102 -0.694336
vt 0.356445 -0.704102
vt 0.356445 -0.724609
vt 0.374023 -0.724609
vt 0.369141 -0.701172
vt 0.396484 -0.725586
vt 0.355469 -0.723633
vt 0.365234 -0.725586
vt 0.361328 -0.702148
vt 0.396484 -0.698242
vt 0.356445 -0.703125
vt 0.356445 -0.725586
vt 0.377930 -0.724609
vt 0.378906 -0.701172
vt 0.390625 -0.724609
vt 0.390625 -0.700195
vt 0.399414 -0.695312
vt 0.399414 -0.723633
vt 0.427734 -0.724609
vt 0.430664 -0.695312
vt 0.441406 -0.767578
vt 0.455078 -0.766602
vt 0.455078 -0.733398
vt 0.439453 -0.735352
vt 0.427734 -0.738281
vt 0.431641 -0.768555
vt 0.405273 -0.741211
vt 0.405273 -0.767578
vt 0.455078 -0.723633
vt 0.454102 -0.693359
vt 0.427734 -0.695312
vt 0.428711 -0.723633
vt 0.399414 -0.696289
vt 0.454102 -0.725586
vt 0.454102 -0.692383
vt 0.434570 -0.693359
vt 0.432617 -0.725586
vt 0.419922 -0.695312
vt 0.418945 -0.725586
vt 0.425781 -0.724609
vt 0.400391 -0.723633
vt 0.399414 -0.724609
vt 0.425781 -0.694336
vt 0.400391 -0.695312
vt 0.446289 -0.724609
vt 0.447266 -0.693359
vt 0.439453 -0.694336
vt 0.440430 -0.725586
vt 0.377930 -0.701172
vt 0.376953 -0.724609
vt 0.368164 -0.702148
vt 0.366211 -0.724609
vt 0.373047 -0.700195
vt 0.428711 -0.694336
vt 0.429688 -0.724609
vt 0.428711 -0.724609
vt 0.426758 -0.695312
vt 0.454102 -0.722656
vt 0.378906 -0.700195
vt 0.379883 -0.725586
vt 0.356445 -0.726562
vt 0.455078 -0.725586
vt 0.455078 -0.691406
vt 0.426758 -0.693359
vt 0.412109 -0.696289
vt 0.414063 -0.724609
vt 0.402344 -0.699219
vt 0.402344 -0.724609
vt 0.403320 -0.765625
vt 0.403320 -0.736328
vt 0.381836 -0.737305
vt 0.384766 -0.765625
vt 0.355469 -0.736328
vt 0.355469 -0.767578
vt 0.416016 -0.753906
vt 0.416016 -0.767578
vt 0.435547 -0.767578
vt 0.435547 -0.752930
vt 0.455078 -0.768555
vt 0.455078 -0.750977
vt 0.437500 -0.737305
vt 0.404297 -0.737305
vt 0.404297 -0.767578
vt 0.438477 -0.768555
vt 0.455078 -0.736328
vt 0.455078 -0.692383
vt 0.434570 -0.694336
vt 0.432617 -0.724609
vt 0.400391 -0.696289
vt 0.401367 -0.722656
vt 0.454102 -0.724609
vt 0.454102 -0.695312
vt 0.431641 -0.694336
vt 0.431641 -0.724609
vt 0.420898 -0.694336
vt 0.432617 -0.694336
vt 0.429688 -0.695312
vt 0.455078 -0.724609
vt 0.455078 -0.693359
vt 0.430664 -0.723633
vt 0.397461 -0.701172
vt 0.380859 -0.702148
vt 0.381836 -0.725586
vn -0.032200 0.959400 0.280300
vn -0.004800 0.951600 0.307200
vn -0.015700 0.999300 -0.034100
vn -0.034100 0.999300 -0.011900
vn 0.035400 0.965300 -0.258900
vn 0.037400 0.965900 -0.256200
vn -0.163600 0.287800 0.943600
vn -0.190600 0.260600 0.946500
vn -0.333500 0.363300 0.869900
vn -0.332600 0.374100 0.865700
vn -0.485600 0.403000 0.775800
vn -0.484600 0.399100 0.778400
vn -0.044300 -0.796300 0.603300
vn 0.018500 -0.753600 0.657100
vn -0.097000 -0.862600 0.496500
vn -0.165500 -0.875400 0.454300
vn -0.207600 -0.894800 0.395200
vn -0.288400 -0.893500 0.344300
vn -0.410000 0.343700 0.844800
vn -0.400400 0.357700 0.843700
vn -0.626800 0.285800 0.724900
vn -0.728300 0.242800 0.640900
vn -0.860200 0.172300 0.480000
vn -0.858400 0.171300 0.483600
vn -0.672500 -0.108800 0.732000
vn -0.624900 -0.069000 0.777600
vn -0.798100 -0.093700 0.595200
vn -0.793900 -0.107900 0.598400
vn -0.870500 -0.072900 0.486700
vn -0.859300 -0.062400 0.507600
vn 0.201300 0.519100 0.830700
vn 0.176000 0.474900 0.862300
vn 0.039900 0.533100 0.845100
vn 0.112900 0.582900 0.804600
vn -0.047500 0.551600 0.832800
vn -0.020400 0.584000 0.811500
vn -0.334800 0.737200 0.586900
vn -0.333900 0.723300 0.604500
vn -0.412800 0.684800 0.600500
vn -0.435100 0.700000 0.566200
vn -0.514300 0.662800 0.544300
vn -0.524200 0.693100 0.494700
vn 0.022400 -0.837800 0.545400
vn 0.059200 -0.817500 0.572900
vn -0.174200 -0.848700 0.499400
vn -0.152200 -0.857300 0.491800
vn -0.193000 -0.776100 0.600300
vn -0.126600 -0.843400 0.522200
vn -0.141000 -0.801000 0.581900
vn -0.200100 -0.675600 0.709600
vn -0.021500 -0.777000 0.629100
vn -0.007300 -0.761900 0.647600
vn -0.095700 -0.808000 0.581400
vn -0.148300 -0.820500 0.552000
vn -0.247800 -0.814100 0.525200
vn -0.340900 -0.811700 0.474200
vn -0.631900 0.285100 0.720700
vn -0.784500 0.218900 0.580200
vn -0.749300 0.203200 0.630300
vn -0.611100 0.261000 0.747300
vn -0.406900 0.406100 0.818300
vn -0.390900 0.446100 0.805100
vn -0.294900 0.563200 0.771900
vn -0.447100 0.157700 0.880500
vn -0.689700 -0.421000 0.589100
vn -0.698700 -0.426300 0.574500
vn -0.533400 -0.479900 0.696600
vn -0.515800 -0.465400 0.719300
vn -0.436300 0.058100 0.897900
vn -0.331200 -0.498200 0.801300
vn -0.916800 -0.196200 0.347700
vn -0.950700 -0.178500 0.253800
vn -0.838500 -0.311500 0.447200
vn -0.786300 -0.330300 0.522200
vn -0.544700 -0.498900 0.674100
vn -0.500300 -0.500700 0.706400
vn -0.355100 -0.529600 0.770300
vn -0.394900 -0.765100 0.508700
vn -0.395000 -0.765200 0.508500
vn -0.276000 -0.795100 0.540100
vn -0.271400 -0.784400 0.557700
vn -0.104900 -0.759900 0.641500
vn -0.078900 -0.732500 0.676200
vn -0.204900 -0.927900 0.311400
vn -0.246100 -0.924000 0.292600
vn -0.158900 -0.930600 0.329600
vn -0.126600 -0.927800 0.350900
vn 0.026700 -0.861900 0.506400
vn 0.066200 -0.837000 0.543200
vn -0.328800 -0.685200 0.649900
vn -0.350200 -0.713700 0.606600
vn -0.190900 -0.659600 0.727000
vn -0.169300 -0.633400 0.755100
vn -0.032200 -0.570900 0.820400
vn -0.028100 -0.556100 0.830700
vn -0.253200 -0.558400 0.790000
vn -0.514600 -0.542800 0.663700
vn -0.392800 -0.448700 0.802700
vn -0.091000 -0.597200 0.796900
vn -0.001400 -0.836300 0.548300
vn -0.026200 -0.847400 0.530400
vn 0.112600 -0.928500 0.354000
vn 0.122800 -0.925500 0.358300
vn -0.825300 0.328000 0.459700
vn -0.807900 0.372500 0.456700
vn -0.720500 0.445100 0.531700
vn -0.745800 0.403000 0.530500
vn -0.453200 0.611300 0.648700
vn -0.479500 0.581000 0.657700
vn -0.309700 0.604100 0.734300
vn -0.324100 0.565700 0.758300
vn -0.674400 0.286300 0.680600
vn -0.659400 0.360200 0.659900
vn -0.570800 0.371100 0.732500
vn -0.512900 0.395700 0.761800
vn -0.400000 0.554600 0.729700
vn -0.405900 0.577500 0.708300
vn -0.506600 -0.302700 0.807300
vn -0.533500 -0.326600 0.780200
vn -0.431400 -0.300700 0.850500
vn -0.397000 -0.265900 0.878500
vn -0.290500 -0.224700 0.930100
vn -0.254700 -0.175900 0.950900
vn -0.037900 0.983900 0.174700
vn 0.007000 0.980000 0.198900
vn -0.025600 0.892600 0.450100
vn -0.078400 0.922100 0.378900
vn -0.025500 0.766700 0.641500
vn -0.062500 0.779600 0.623200
vn -0.461300 -0.358000 0.811800
vn -0.451600 -0.350700 0.820400
vn -0.361500 -0.393600 0.845200
vn -0.344400 -0.372700 0.861700
vn -0.167700 -0.306500 0.937000
vn -0.126800 -0.248000 0.960400
vn -0.883500 -0.446200 0.142600
vn -0.904900 -0.414500 0.096800
vn -0.813700 -0.549700 0.188900
vn -0.768600 -0.583600 0.262000
vn -0.515400 -0.761800 0.392400
vn -0.485300 -0.767100 0.419700
vn -0.382600 -0.822300 0.421300
vn -0.438600 -0.826600 0.352700
vn -0.897600 0.288500 -0.333400
vn -0.915700 0.294100 -0.273800
vn -0.775100 0.389600 -0.497400
vn -0.774400 0.369900 -0.513300
vn -0.632300 0.454400 -0.627500
vn -0.628400 0.448200 -0.635900
vn -0.530900 -0.401200 0.746400
vn -0.714700 -0.322100 0.620900
vn -0.689100 -0.296800 0.661000
vn -0.847300 -0.207700 0.488800
vn -0.810600 -0.177500 0.558000
vn -0.724600 0.609500 -0.321800
vn -0.637400 0.659000 -0.399300
vn -0.633500 0.672000 -0.383600
vn -0.774500 0.578800 -0.255200
vn -0.833600 0.486700 -0.261100
vn -0.774200 0.522500 -0.357200
vn -0.472200 0.416400 0.776900
vn -0.471000 0.419700 0.775900
vn -0.339800 0.488900 0.803400
vn -0.343400 0.483200 0.805400
vn -0.206300 0.534200 0.819800
vn -0.207200 0.529400 0.822700
vn -0.781600 0.622300 0.042400
vn -0.807800 0.585100 0.072000
vn -0.744800 0.666400 0.033600
vn -0.719700 0.694200 -0.011200
vn -0.608500 0.775800 -0.166900
vn -0.548700 0.792400 -0.266500
vn -0.134700 0.872700 0.469200
vn -0.136600 0.874500 0.465300
vn 0.003200 0.941400 0.337300
vn 0.031200 0.957600 0.286400
vn 0.142800 0.982000 0.123700
vn 0.134500 0.986200 0.096900
vn -0.516000 0.427000 -0.742600
vn -0.483700 0.355700 -0.799700
vn -0.668000 0.502400 -0.548900
vn -0.660500 0.542300 -0.519200
vn -0.774900 0.524500 -0.352600
vn -0.791000 0.541700 -0.284400
vn -0.457400 0.499800 0.735500
vn -0.659500 0.399400 0.636900
vn -0.631500 0.415100 0.654900
vn -0.771500 0.331400 0.543100
vn -0.759700 0.351800 0.547000
vn -0.649900 0.631300 -0.423200
vn -0.607400 0.623300 -0.492600
vn -0.624800 0.662600 -0.413000
vn -0.635200 0.683600 -0.359400
vn -0.621000 0.613600 -0.487700
vn -0.640300 0.562800 -0.522800
vn -0.633600 0.772200 -0.048100
vn -0.631900 0.773400 -0.050900
vn -0.569200 0.819600 -0.065200
vn -0.572400 0.816300 -0.077600
vn -0.466100 0.853300 -0.233800
vn -0.454300 0.846500 -0.277500
usemtl None
s 1
f 1/1/1 2/2/2 3/3/3
f 3/3/3 4/4/4 1/1/1
f 4/4/4 3/3/3 5/5/5
f 5/5/5 6/6/6 4/4/4
f 7/7/7 8/8/8 9/9/9
f 9/9/9 10/10/10 7/7/7
f 11/11/11 10/10/10 9/9/9
f 9/9/9 12/5/12 11/11/11
f 13/12/13 14/2/14 15/13/15
f 15/13/15 16/14/16 13/12/13
f 16/14/16 15/13/15 17/15/17
f 17/15/17 18/6/18 16/14/16
f 19/16/19 20/17/20 21/18/21
f 21/18/21 22/19/22 19/16/19
f 23/20/23 22/19/22 21/18/21
f 21/18/21 24/21/24 23/20/23
f 25/22/25 26/23/26 27/24/27
f 27/24/27 28/25/28 25/22/25
f 28/25/28 27/24/27 29/26/29
f 29/26/29 30/27/30 28/25/28
f 31/28/31 32/29/32 33/30/33
f 33/30/33 34/31/34 31/28/31
f 34/31/34 33/30/33 35/32/35
f 35/32/35 36/11/36 34/31/34
f 37/1/37 38/33/38 39/34/39
f 39/34/39 40/35/40 37/1/37
f 40/35/40 39/34/39 41/5/41
f 41/5/41 42/36/42 40/35/40
f 43/37/43 44/38/44 45/39/45
f 45/39/45 46/40/46 43/37/43
f 46/40/46 45/39/45 47/41/47
f 47/41/47 48/42/48 46/40/46
f 49/11/49 48/42/48 47/41/47
f 47/41/47 50/5/50 49/11/49
f 51/43/51 52/44/52 53/45/53
f 53/45/53 54/46/54 51/43/51
f 54/46/54 53/45/53 55/26/55
f 55/26/55 56/27/56 54/46/54
f 57/47/57 58/48/58 59/49/59
f 59/49/59 60/50/60 57/47/57
f 61/51/61 57/47/57 60/50/60
f 62/52/62 57/47/57 61/51/61
f 61/51/61 63/53/63 62/52/62
f 64/54/64 62/52/62 63/53/63
f 65/55/65 66/56/66 67/57/67
f 67/57/67 68/58/68 65/55/65
f 68/58/68 67/57/67 69/59/69
f 69/59/69 70/44/70 68/58/68
f 71/60/71 72/61/72 73/62/73
f 73/62/73 74/63/74 71/60/71
f 74/63/74 73/62/73 75/64/75
f 75/64/75 76/65/76 74/63/74
f 76/65/76 75/64/75 77/22/70
f 77/22/70 78/23/77 76/65/76
f 79/26/78 80/27/79 81/57/80
f 81/57/80 82/66/81 79/26/78
f 82/66/81 81/57/80 83/22/82
f 83/22/82 84/67/83 82/66/81
f 85/60/84 86/27/85 87/57/86
f 87/57/86 88/66/87 85/60/84
f 88/66/87 87/57/86 89/22/88
f 89/22/88 90/68/89 88/66/87
f 91/26/90 92/56/91 93/69/92
f 93/69/92 94/66/93 91/26/90
f 94/66/93 93/69/92 95/70/94
f 95/70/94 96/23/95 94/66/93
f 97/71/96 98/26/97 99/56/98
f 99/56/98 100/72/99 97/71/96
f 97/71/96 100/72/99 101/73/100
f 101/73/100 102/74/101 97/71/96
f 102/74/101 101/73/100 103/70/102
f 103/70/102 104/23/103 102/74/101
f 105/15/104 106/11/105 107/75/106
f 107/75/106 108/76/107 105/15/104
f 108/76/107 107/75/106 109/77/108
f 109/77/108 110/78/109 108/76/107
f 110/78/109 109/77/108 111/12/110
f 111/12/110 112/29/111 110/78/109
f 113/15/112 114/36/113 115/79/114
f 115/79/114 116/13/115 113/15/112
f 116/13/115 115/79/114 117/37/116
f 117/37/116 118/2/117 116/13/115
f 119/60/118 120/27/119 121/80/120
f 121/80/120 122/81/121 119/60/118
f 122/81/121 121/80/120 123/22/122
f 123/22/122 124/23/123 122/81/121
f 125/22/124 126/67/125 127/82/126
f 127/82/126 128/83/127 125/22/124
f 128/83/127 127/82/126 129/84/128
f 129/84/128 130/27/129 128/83/127
f 131/32/130 132/36/131 133/85/132
f 133/85/132 134/86/133 131/32/130
f 134/86/133 133/85/132 135/12/134
f 135/12/134 136/87/135 134/86/133
f 137/88/136 138/89/137 139/90/138
f 139/90/138 140/82/139 137/88/136
f 140/82/139 139/90/138 141/91/140
f 141/91/140 142/92/141 140/82/139
f 142/92/141 141/91/140 143/93/142
f 143/93/142 144/94/143 142/92/141
f 145/95/144 146/96/145 147/97/146
f 147/97/146 148/98/147 145/95/144
f 148/98/147 147/97/146 149/99/148
f 149/99/148 150/100/149 148/98/147
f 151/101/64 152/102/150 153/103/151
f 153/103/151 154/104/152 151/101/64
f 154/104/152 153/103/151 155/105/153
f 155/105/153 156/106/154 154/104/152
f 157/107/155 158/108/156 159/109/157
f 159/109/157 160/110/158 157/107/155
f 161/105/159 157/107/155 160/110/158
f 162/111/160 157/107/155 161/105/159
f 163/88/161 164/112/162 165/113/163
f 165/113/163 166/114/164 163/88/161
f 166/114/164 165/113/163 167/115/165
f 167/115/165 168/116/166 166/114/164
f 169/117/167 170/118/168 171/119/169
f 171/119/169 172/120/170 169/117/167
f 172/120/170 171/119/169 173/70/171
f 173/70/171 174/23/172 172/120/170
f 175/115/173 176/23/174 177/45/175
f 177/45/175 178/121/176 175/115/173
f 178/121/176 177/45/175 179/60/177
f 179/60/177 180/56/178 178/121/176
f 181/70/179 182/23/180 183/114/181
f 183/114/181 184/122/182 181/70/179
f 184/122/182 183/114/181 185/117/183
f 185/117/183 186/27/184 184/122/182
f 187/70/185 188/67/69 189/120/186
f 189/120/186 190/123/187 187/70/185
f 190/123/187 189/120/186 191/124/188
f 191/124/188 192/125/189 190/123/187
f 193/117/190 194/27/191 195/46/192
f 195/46/192 196/126/193 193/117/190
f 197/23/194 196/126/193 195/46/192
f 195/46/192 198/22/195 197/23/194
f 199/15/196 200/127/197 201/128/198
f 201/128/198 202/129/199 199/15/196
f 202/129/199 201/128/198 203/1/200
f 203/1/200 204/38/201 202/129/199
