# Blender v2.93.1 OBJ File: ''
# www.blender.org
mtllib BirdBeakLower.mtl
o sovjet_birb_True_patriot
v -0.731681 2.665981 2.795743
v -0.777906 2.613845 2.769845
v -0.741398 2.599849 2.827968
v -0.712148 2.647809 2.841474
v -0.720715 2.577702 2.891577
v -0.679717 2.718357 2.801084
v -0.680298 2.633696 2.918760
v -0.693666 2.557928 2.952834
v -0.644567 2.695944 2.857313
v -0.633708 2.772711 2.821733
v -0.661178 2.615657 2.967386
v -0.663525 2.539896 3.012960
v -0.622527 2.681076 2.922081
v -0.601400 2.749267 2.874120
v -0.581529 2.828079 2.832983
v -0.544098 2.787470 2.875727
v -0.576032 2.774889 2.889848
v -0.603591 2.716759 2.939545
v -0.623121 2.645739 2.984467
v -0.645092 2.574002 3.034541
v -0.613846 2.525712 3.066912
v -0.596098 2.560143 3.085343
v -0.557571 2.516220 3.115099
v -0.541087 2.549377 3.141609
v -0.514240 2.498910 3.174903
v -0.490261 2.541040 3.193425
v -0.451617 2.492561 3.217233
v -0.448517 2.559463 3.184273
v -0.408642 2.538487 3.195919
v -0.414856 2.587802 3.136497
v -0.386257 2.494910 3.178813
v -0.569949 2.599524 3.102660
v -0.617035 2.606930 3.044457
v -0.603352 2.683336 3.004956
v -0.576038 2.747579 2.953912
v -0.543157 2.756891 2.940408
v -0.510399 2.757183 2.924435
v -0.509464 2.787174 2.865438
v -0.472128 2.758019 2.914191
v -0.468934 2.788415 2.854877
v -0.433706 2.761077 2.903460
v -0.431024 2.792969 2.841904
v -0.436473 2.727530 2.961874
v -0.474835 2.725048 2.971118
v -0.507291 2.722141 2.986690
v -0.541633 2.720532 3.004449
v -0.575183 2.714418 3.016885
v -0.598314 2.642029 3.063536
v -0.542057 2.630498 3.114721
v -0.511081 2.583272 3.146592
v -0.508933 2.638051 3.101448
v -0.477368 2.589757 3.134588
v -0.474765 2.638173 3.082201
v -0.445443 2.592432 3.117373
v -0.442355 2.644361 3.069438
v -0.504908 2.683144 3.046731
v -0.537028 2.683211 3.064368
v -0.570546 2.673985 3.075950
v -0.472232 2.686759 3.031497
v -0.439270 2.692302 3.017513
v -0.353111 2.832798 2.822546
v -0.390172 2.835288 2.811676
v -0.393867 2.785509 2.856802
v -0.354212 2.781399 2.869596
v -0.396134 2.755662 2.916535
v -0.358675 2.752501 2.929017
v -0.398967 2.722677 2.973430
v -0.367767 2.717778 2.990952
v -0.407632 2.684739 3.033472
v -0.376236 2.679121 3.050663
v -0.411233 2.636187 3.084142
v -0.378376 2.633969 3.105435
v -0.345310 2.677216 3.070224
v -0.428142 2.835489 2.805330
v -0.466900 2.838270 2.811054
v -0.504836 2.840156 2.820262
v -0.542362 2.839386 2.829777
v -0.136114 2.647227 2.813982
v -0.184919 2.702670 2.816004
v -0.159473 2.630532 2.858294
v -0.224763 2.682766 2.870070
v -0.196805 2.618587 2.933543
v -0.251598 2.669487 2.933408
v -0.219943 2.601865 2.980860
v -0.257016 2.634293 2.995650
v -0.269297 2.706332 2.949769
v -0.275609 2.673090 3.014966
v -0.295641 2.739290 2.962185
v -0.302457 2.705894 3.025213
v -0.334740 2.714067 3.010771
v -0.382409 2.579248 3.150522
v -0.346660 2.624388 3.120688
v -0.313202 2.665936 3.083812
v -0.286779 2.632288 3.073051
v -0.269158 2.596055 3.055084
v -0.242661 2.561422 3.046833
v -0.225115 2.526189 3.026351
v -0.190310 2.542089 2.968221
v -0.158437 2.559699 2.908827
v -0.132632 2.579880 2.846690
v -0.091758 2.592452 2.791147
v -0.295430 2.550744 3.094527
v -0.320074 2.591712 3.110292
v -0.354331 2.543539 3.147312
v -0.278776 2.515238 3.077147
v -0.338366 2.509367 3.121794
v -0.278080 2.815766 2.841686
v -0.228684 2.759123 2.834043
v -0.316503 2.828285 2.834862
v -0.320207 2.780121 2.881851
v -0.327033 2.750356 2.947074
v -0.289801 2.767276 2.897032
v -0.265418 2.739089 2.884187
v -0.985182 3.010751 2.546480
vt 0.179150 0.024544
vt 0.157886 0.017324
vt 0.158690 0.036086
vt 0.179954 0.043306
vt 0.159494 0.054849
vt 0.200415 0.031763
vt 0.180759 0.062069
vt 0.160298 0.073611
vt 0.201219 0.050525
vt 0.221680 0.038982
vt 0.181563 0.080831
vt 0.161102 0.092374
vt 0.202024 0.069288
vt 0.222484 0.057745
vt 0.242945 0.046201
vt 0.241158 0.066688
vt 0.231943 0.062625
vt 0.211482 0.074168
vt 0.191022 0.085711
vt 0.170561 0.097254
vt 0.161896 0.112615
vt 0.171355 0.117495
vt 0.162690 0.132857
vt 0.172148 0.137737
vt 0.163484 0.153098
vt 0.172943 0.157979
vt 0.164279 0.173340
vt 0.182158 0.162042
vt 0.172943 0.157979
vt 0.190822 0.146680
vt 0.163484 0.153098
vt 0.180813 0.122375
vt 0.180019 0.102134
vt 0.200480 0.090591
vt 0.220941 0.079048
vt 0.230156 0.083112
vt 0.239371 0.087175
vt 0.252253 0.071628
vt 0.250466 0.092115
vt 0.263348 0.076568
vt 0.261560 0.097055
vt 0.274442 0.081508
vt 0.248679 0.112602
vt 0.237584 0.107661
vt 0.228369 0.103598
vt 0.219154 0.099535
vt 0.209938 0.095472
vt 0.189478 0.107014
vt 0.190271 0.127256
vt 0.181607 0.142617
vt 0.199487 0.131320
vt 0.190822 0.146680
vt 0.208703 0.135383
vt 0.200038 0.150744
vt 0.217918 0.139446
vt 0.217367 0.120022
vt 0.208151 0.115959
vt 0.198936 0.111895
vt 0.226582 0.124085
vt 0.235797 0.128148
vt 0.265135 0.056081
vt 0.276230 0.061021
vt 0.263348 0.076568
vt 0.252253 0.071628
vt 0.250466 0.092115
vt 0.239371 0.087175
vt 0.237584 0.107661
vt 0.228369 0.103598
vt 0.226582 0.124085
vt 0.217367 0.120022
vt 0.208703 0.135383
vt 0.199487 0.131320
vt 0.208151 0.115959
vt 0.287324 0.065961
vt 0.276230 0.061021
vt 0.265135 0.056081
vt 0.254040 0.051141
vt 0.179150 0.024544
vt 0.200415 0.031763
vt 0.179954 0.043306
vt 0.201219 0.050525
vt 0.180759 0.062069
vt 0.202024 0.069288
vt 0.181563 0.080831
vt 0.191022 0.085711
vt 0.211482 0.074168
vt 0.200480 0.090591
vt 0.220941 0.079048
vt 0.209938 0.095472
vt 0.219154 0.099535
vt 0.181607 0.142617
vt 0.190271 0.127256
vt 0.198936 0.111895
vt 0.189478 0.107014
vt 0.180019 0.102134
vt 0.170561 0.097254
vt 0.161102 0.092374
vt 0.160298 0.073611
vt 0.159494 0.054849
vt 0.158690 0.036086
vt 0.157886 0.017324
vt 0.171355 0.117495
vt 0.180813 0.122375
vt 0.172148 0.137737
vt 0.161896 0.112615
vt 0.162690 0.132857
vt 0.254040 0.051141
vt 0.241158 0.066688
vt 0.230156 0.083112
vt 0.231943 0.062625
vt 0.222484 0.057745
vt 0.221680 0.038982
vt 0.242945 0.046201
vt 0.000000 0.000000
vt 0.000000 0.000000
vt 0.000000 0.000000
vt 0.000000 0.000000
vt 0.000000 0.000000
vt 0.000000 0.000000
vt 0.000000 0.000000
vt 0.000000 0.000000
vt 0.000000 0.000000
vn -0.7171 0.4664 0.5179
vn -0.7395 0.3795 0.5559
vn -0.7950 0.3792 0.4735
vn -0.7244 0.5082 0.4658
vn -0.8180 0.3773 0.4341
vn -0.6443 0.5031 0.5759
vn -0.7122 0.5482 0.4384
vn -0.8087 0.3401 0.4799
vn -0.6717 0.5562 0.4894
vn -0.6779 0.4207 0.6029
vn -0.7405 0.4885 0.4615
vn -0.8331 0.1786 0.5235
vn -0.7771 0.5459 0.3132
vn -0.7550 0.4839 0.4425
vn -0.3514 0.6258 0.6963
vn 0.0575 0.7962 0.6022
vn -0.4752 0.7369 0.4808
vn -0.8455 0.4823 0.2294
vn -0.8096 0.4791 0.3392
vn -0.7792 0.2521 0.5738
vn -0.7026 -0.0281 0.7111
vn -0.7026 -0.0281 0.7110
vn -0.7066 0.0755 0.7036
vn -0.7433 -0.1169 0.6586
vn -0.6939 0.1392 0.7065
vn -0.6865 0.0136 0.7270
vn -0.3886 0.3882 0.8357
vn -0.0236 0.2012 0.9793
vn 0.0004 0.7058 0.7084
vn 0.3604 0.3647 0.8585
vn -0.1457 0.7681 0.6235
vn 0.6404 -0.0279 0.7675
vn -0.6544 0.2073 0.7272
vn -0.7865 0.3316 0.5211
vn -0.8377 0.4485 0.3115
vn -0.4498 0.8001 0.3970
vn 0.0597 0.8920 0.4482
vn 0.1570 0.8738 0.4601
vn 0.1586 0.7742 0.6127
vn 0.0850 0.8738 0.4788
vn 0.1267 0.7817 0.6107
vn 0.0153 0.8812 0.4724
vn 0.0171 0.7611 0.6484
vn 0.0110 0.8571 0.5150
vn 0.1143 0.8523 0.5104
vn 0.1917 0.8437 0.5013
vn 0.1211 0.8569 0.5011
vn -0.4093 0.7750 0.4815
vn -0.7890 0.2951 0.5388
vn -0.2505 0.4843 0.8382
vn -0.2260 0.5718 0.7887
vn 0.2487 0.6776 0.6921
vn 0.1551 0.7587 0.6327
vn 0.2539 0.6951 0.6725
vn 0.0061 0.7911 0.6116
vn 0.0006 0.7090 0.7052
vn 0.2595 0.7705 0.5823
vn 0.1541 0.7767 0.6107
vn -0.4090 0.6147 0.6745
vn 0.1608 0.7774 0.6082
vn 0.0074 0.8102 0.5861
vn -0.1647 0.6684 0.7253
vn -0.1499 0.6636 0.7329
vn -0.0943 0.7984 0.5946
vn -0.1375 0.8008 0.5829
vn -0.0564 0.8813 0.4691
vn -0.1306 0.8862 0.4445
vn -0.0919 0.8586 0.5043
vn -0.1698 0.8545 0.4908
vn -0.1487 0.7870 0.5987
vn -0.2459 0.7863 0.5669
vn -0.2506 0.7109 0.6571
vn -0.2477 0.6931 0.6770
vn -0.1423 0.7860 0.6016
vn 0.0165 0.6514 0.7586
vn 0.1862 0.6409 0.7447
vn 0.1907 0.6336 0.7498
vn 0.0576 0.6526 0.7555
vn 0.7110 0.4211 0.5631
vn 0.6376 0.4660 0.6134
vn 0.7261 0.4618 0.5094
vn 0.6747 0.5151 0.5287
vn 0.7175 0.5031 0.4817
vn 0.7894 0.4965 0.3609
vn 0.7401 0.4421 0.5068
vn 0.8157 0.4282 0.3889
vn 0.8595 0.4264 0.2817
vn 0.8437 0.3954 0.3632
vn 0.4736 0.7698 0.4279
vn 0.4265 0.7481 0.5084
vn -0.0987 0.8628 0.4958
vn 0.2127 0.5580 0.8021
vn 0.2287 0.4693 0.8529
vn 0.4047 0.5892 0.6993
vn 0.7716 0.2463 0.5865
vn 0.7724 0.2828 0.5687
vn 0.7570 0.2040 0.6207
vn 0.8093 0.1272 0.5735
vn 0.7982 0.2893 0.5283
vn 0.8137 0.3242 0.4825
vn 0.7880 0.3265 0.5220
vn 0.7223 0.3320 0.6067
vn 0.6657 0.0325 0.7455
vn 0.6205 0.1674 0.7661
vn 0.6568 0.0969 0.7478
vn 0.6548 -0.0706 0.7525
vn 0.6931 -0.1619 0.7025
vn -0.0657 0.6880 0.7227
vn -0.0505 0.8171 0.5742
vn -0.0369 0.8954 0.4437
vn 0.4822 0.7168 0.5036
vn 0.7567 0.4414 0.4822
vn 0.6641 0.3877 0.6393
vn 0.3381 0.6334 0.6961
vn -0.0400 -0.3374 0.9405
vn -0.0399 -0.3373 0.9406
vn -0.0400 -0.3375 0.9405
vn -0.0400 -0.3376 0.9405
usemtl Birb_base
s 1
f 1/1/1 2/2/2 3/3/3
f 4/4/4 3/3/3 5/5/5
f 4/4/4 1/1/1 3/3/3
f 6/6/6 1/1/1 4/4/4
f 7/7/7 5/5/5 8/8/8
f 7/7/7 4/4/4 5/5/5
f 7/7/7 9/9/9 4/4/4
f 9/9/9 6/6/6 4/4/4
f 10/10/10 6/6/6 9/9/9
f 11/11/11 8/8/8 12/12/12
f 11/11/11 7/7/7 8/8/8
f 13/13/13 7/7/7 11/11/11
f 13/13/13 9/9/9 7/7/7
f 14/14/14 9/9/9 13/13/13
f 14/14/14 10/10/10 9/9/9
f 15/15/15 10/10/10 14/14/14
f 16/16/16 15/15/15 17/17/17
f 17/17/17 15/15/15 14/14/14
f 18/18/18 17/17/17 14/14/14
f 18/18/18 14/14/14 13/13/13
f 19/19/19 18/18/18 13/13/13
f 19/19/19 13/13/13 11/11/11
f 20/20/20 19/19/19 11/11/11
f 20/20/20 11/11/11 12/12/12
f 21/21/21 20/20/20 12/12/12
f 21/21/22 22/22/23 20/20/20
f 23/23/24 22/22/23 21/21/22
f 23/23/24 24/24/25 22/22/23
f 25/25/26 24/24/25 23/23/24
f 25/25/26 26/26/27 24/24/25
f 27/27/28 26/26/27 25/25/26
f 27/27/28 28/28/29 26/26/27
f 29/29/30 28/28/29 27/27/28
f 29/29/30 30/30/31 28/28/29
f 31/31/32 29/29/30 27/27/28
f 22/22/23 24/24/25 32/32/33
f 22/22/23 32/32/33 33/33/34
f 22/22/23 33/33/34 20/20/20
f 33/33/34 19/19/19 20/20/20
f 33/33/34 34/34/35 19/19/19
f 19/19/19 34/34/35 18/18/18
f 34/34/35 35/35/36 18/18/18
f 35/35/36 17/17/17 18/18/18
f 36/36/37 17/17/17 35/35/36
f 36/36/37 16/16/16 17/17/17
f 37/37/38 16/16/16 36/36/37
f 37/37/38 38/38/39 16/16/16
f 37/37/38 39/39/40 38/38/39
f 38/38/39 39/39/40 40/40/41
f 39/39/40 41/41/42 40/40/41
f 41/41/42 42/42/43 40/40/41
f 43/43/44 41/41/42 39/39/40
f 44/44/45 43/43/44 39/39/40
f 44/44/45 39/39/40 37/37/38
f 44/44/45 37/37/38 45/45/46
f 45/45/46 37/37/38 36/36/37
f 46/46/47 45/45/46 36/36/37
f 46/46/47 36/36/37 35/35/36
f 46/46/47 35/35/36 47/47/48
f 47/47/48 35/35/36 34/34/35
f 48/48/49 47/47/48 34/34/35
f 48/48/49 34/34/35 33/33/34
f 32/32/33 48/48/49 33/33/34
f 32/32/33 49/49/50 48/48/49
f 50/50/51 49/49/50 32/32/33
f 50/50/51 51/51/52 49/49/50
f 50/50/51 52/52/53 51/51/52
f 51/51/52 52/52/53 53/53/54
f 52/52/53 54/54/55 53/53/54
f 54/54/55 55/55/56 53/53/54
f 51/51/52 53/53/54 56/56/57
f 51/51/52 56/56/57 57/57/58
f 49/49/50 51/51/52 57/57/58
f 49/49/50 57/57/58 58/58/59
f 49/49/50 58/58/59 48/48/49
f 58/58/59 47/47/48 48/48/49
f 57/57/58 47/47/48 58/58/59
f 57/57/58 46/46/47 47/47/48
f 56/56/57 46/46/47 57/57/58
f 56/56/57 45/45/46 46/46/47
f 59/59/60 45/45/46 56/56/57
f 59/59/60 44/44/45 45/45/46
f 60/60/61 44/44/45 59/59/60
f 60/60/61 43/43/44 44/44/45
f 53/53/54 59/59/60 56/56/57
f 53/53/54 55/55/56 59/59/60
f 55/55/56 60/60/61 59/59/60
f 61/61/62 62/62/63 63/63/64
f 64/64/65 61/61/62 63/63/64
f 65/65/66 64/64/65 63/63/64
f 66/66/67 64/64/65 65/65/66
f 66/66/67 65/65/66 67/67/68
f 66/66/67 67/67/68 68/68/69
f 68/68/69 67/67/68 69/69/70
f 68/68/69 69/69/70 70/70/71
f 70/70/71 69/69/70 71/71/72
f 72/72/73 70/70/71 71/71/72
f 30/30/31 72/72/73 71/71/72
f 30/30/31 71/71/72 54/54/55
f 30/30/31 54/54/55 28/28/29
f 28/28/29 54/54/55 52/52/53
f 26/26/27 28/28/29 52/52/53
f 26/26/27 52/52/53 50/50/51
f 26/26/27 50/50/51 24/24/25
f 24/24/25 50/50/51 32/32/33
f 73/73/74 70/70/71 72/72/73
f 71/71/72 55/55/56 54/54/55
f 71/71/72 69/69/70 55/55/56
f 69/69/70 60/60/61 55/55/56
f 67/67/68 60/60/61 69/69/70
f 67/67/68 43/43/44 60/60/61
f 67/67/68 65/65/66 43/43/44
f 65/65/66 41/41/42 43/43/44
f 65/65/66 63/63/64 41/41/42
f 63/63/64 42/42/43 41/41/42
f 63/63/64 62/62/63 42/42/43
f 62/62/63 74/74/75 42/42/43
f 42/42/43 74/74/75 75/75/76
f 40/40/41 42/42/43 75/75/76
f 40/40/41 75/75/76 76/76/77
f 38/38/39 40/40/41 76/76/77
f 38/38/39 76/76/77 77/77/78
f 16/16/16 38/38/39 77/77/78
f 16/16/16 77/77/78 15/15/15
f 78/78/79 79/79/80 80/80/81
f 80/80/81 79/79/80 81/81/82
f 82/82/83 80/80/81 81/81/82
f 82/82/83 81/81/82 83/83/84
f 82/82/83 83/83/84 84/84/85
f 83/83/84 85/85/86 84/84/85
f 83/83/84 86/86/87 85/85/86
f 85/85/86 86/86/87 87/87/88
f 86/86/87 88/88/89 87/87/88
f 88/88/89 89/89/90 87/87/88
f 88/88/89 90/90/91 89/89/90
f 89/89/90 90/90/91 73/73/74
f 90/90/91 70/70/71 73/73/74
f 90/90/91 68/68/69 70/70/71
f 91/91/92 30/30/31 29/29/30
f 91/91/92 72/72/73 30/30/31
f 92/92/93 72/72/73 91/91/92
f 92/92/93 73/73/74 72/72/73
f 93/93/94 73/73/74 92/92/93
f 89/89/90 73/73/74 93/93/94
f 89/89/90 93/93/94 94/94/95
f 87/87/88 89/89/90 94/94/95
f 87/87/88 94/94/95 95/95/96
f 85/85/86 87/87/88 95/95/96
f 85/85/86 95/95/96 96/96/97
f 84/84/85 85/85/86 96/96/97
f 84/84/85 96/96/97 97/97/98
f 98/98/99 84/84/85 97/97/98
f 98/98/99 82/82/83 84/84/85
f 99/99/100 82/82/83 98/98/99
f 99/99/100 80/80/81 82/82/83
f 100/100/101 80/80/81 99/99/100
f 100/100/101 78/78/79 80/80/81
f 101/101/102 78/78/79 100/100/101
f 96/96/97 95/95/96 102/102/103
f 102/102/103 95/95/96 103/103/104
f 95/95/96 94/94/95 103/103/104
f 103/103/104 94/94/95 92/92/93
f 94/94/95 93/93/94 92/92/93
f 103/103/104 92/92/93 91/91/92
f 104/104/105 103/103/104 91/91/92
f 104/104/105 102/102/103 103/103/104
f 97/97/98 96/96/97 105/105/106
f 105/105/106 96/96/97 102/102/103
f 105/105/106 102/102/103 106/106/107
f 106/106/107 102/102/103 104/104/105
f 106/106/107 104/104/105 31/31/32
f 31/31/32 104/104/105 29/29/30
f 104/104/105 91/91/92 29/29/30
f 109/107/108 61/61/62 64/64/65
f 110/108/109 109/107/108 64/64/65
f 110/108/109 64/64/65 66/66/67
f 110/108/109 66/66/67 111/109/110
f 111/109/110 66/66/67 68/68/69
f 90/90/91 111/109/110 68/68/69
f 88/88/89 111/109/110 90/90/91
f 112/110/111 111/109/110 88/88/89
f 112/110/111 88/88/89 86/86/87
f 113/111/112 112/110/111 86/86/87
f 113/111/112 86/86/87 83/83/84
f 81/81/82 113/111/112 83/83/84
f 81/81/82 108/112/113 113/111/112
f 79/79/80 108/112/113 81/81/82
f 112/110/111 110/108/109 111/109/110
f 107/113/114 110/108/109 112/110/111
f 107/113/114 109/107/108 110/108/109
f 107/113/114 112/110/111 113/111/112
f 108/112/113 107/113/114 113/111/112
usemtl Birb_eyes
f 74/114/115 77/115/115 15/116/115
f 74/114/115 76/117/116 77/115/115
f 74/114/115 75/118/117 76/117/116
f 74/114/115 61/119/118 62/120/115
f 74/114/115 109/121/115 61/119/118
f 74/114/115 107/122/115 109/121/115
