# Blender v2.93.1 OBJ File: ''
# www.blender.org
mtllib BirdBeakUpper.mtl
o sovjet_birb_True_patriot
v -0.777906 2.613845 2.769845
v -0.613846 2.525712 3.066912
v -0.557571 2.516220 3.115099
v -0.514240 2.498910 3.174903
v -0.451617 2.492561 3.217233
v -0.386257 2.494910 3.178813
v -0.091758 2.592452 2.791147
v -0.278776 2.515238 3.077147
v -0.338366 2.509367 3.121794
v -0.695394 2.573637 2.807630
v -0.606963 2.537338 2.783513
v -0.610613 2.535868 2.841667
v -0.670603 2.543822 2.866906
v -0.582384 2.517402 2.902112
v -0.644987 2.528608 2.934954
v -0.553423 2.500138 2.962890
v -0.612419 2.506805 2.989770
v -0.563531 2.499460 3.039639
v -0.663525 2.539876 3.012965
v -0.693666 2.557569 2.952899
v -0.720715 2.576392 2.891837
v -0.741398 2.596915 2.828528
v -0.694781 2.560200 2.751162
v -0.607253 2.521581 2.717866
v -0.525091 2.489480 2.759194
v -0.522881 2.475708 2.693439
v -0.438010 2.464601 2.736212
v -0.436599 2.439044 2.667969
v -0.349822 2.472980 2.702852
v -0.450310 2.462239 3.143404
v -0.391439 2.479461 3.098296
v -0.505133 2.483016 3.094825
v -0.501652 2.482752 3.013815
v -0.499590 2.476468 2.938495
v -0.530558 2.489944 2.876245
v -0.528717 2.489456 2.820108
v -0.439960 2.460963 2.795748
v -0.350788 2.483500 2.764611
v -0.445442 2.467137 2.988787
v -0.443321 2.461365 2.912647
v -0.441633 2.460760 2.854186
v -0.350914 2.483419 2.825641
v -0.352338 2.484414 2.881569
v -0.267540 2.525743 2.852058
v -0.300566 2.508685 2.910697
v -0.387856 2.472884 2.941900
v -0.334218 2.493268 2.969570
v -0.389985 2.479260 3.017226
v -0.447469 2.476449 3.064905
v -0.267490 2.527683 2.793880
v -0.178678 2.558038 2.823406
v -0.208952 2.529021 2.880975
v -0.239541 2.515897 2.947392
v -0.276679 2.496285 3.000021
v -0.328876 2.492126 3.046805
v -0.264179 2.515310 2.732288
v -0.176919 2.545593 2.770428
v -0.132632 2.578622 2.846904
v -0.158437 2.559114 2.908931
v -0.190310 2.541906 2.968251
v -0.225115 2.526174 3.026356
v -0.985182 3.010751 2.546480
vt 0.142046 0.040881
vt 0.115983 0.051213
vt 0.126206 0.064438
vt 0.142850 0.059644
vt 0.127010 0.083201
vt 0.143654 0.078406
vt 0.127814 0.101963
vt 0.144458 0.097169
vt 0.145252 0.117410
vt 0.162690 0.132857
vt 0.161896 0.112615
vt 0.161102 0.092374
vt 0.160298 0.073611
vt 0.159494 0.054849
vt 0.158690 0.036086
vt 0.157886 0.017324
vt 0.131823 0.027656
vt 0.105760 0.037988
vt 0.089920 0.061545
vt 0.079697 0.048320
vt 0.063856 0.071877
vt 0.053634 0.058651
vt 0.079697 0.048320
vt 0.146840 0.157893
vt 0.146046 0.137652
vt 0.163484 0.153098
vt 0.164279 0.173340
vt 0.163484 0.153098
vt 0.146046 0.137652
vt 0.128608 0.122204
vt 0.111170 0.106758
vt 0.110365 0.087996
vt 0.100142 0.074770
vt 0.074079 0.085102
vt 0.089920 0.061545
vt 0.111963 0.126999
vt 0.094525 0.111553
vt 0.084302 0.098328
vt 0.100142 0.074770
vt 0.110365 0.087996
vt 0.126206 0.064438
vt 0.127010 0.083201
vt 0.111170 0.106758
vt 0.127814 0.101963
vt 0.128608 0.122204
vt 0.129402 0.142446
vt 0.115983 0.051213
vt 0.142046 0.040881
vt 0.142850 0.059644
vt 0.143654 0.078406
vt 0.144458 0.097169
vt 0.145252 0.117410
vt 0.105760 0.037988
vt 0.131823 0.027656
vt 0.157886 0.017324
vt 0.158690 0.036086
vt 0.159494 0.054849
vt 0.160298 0.073611
vt 0.161102 0.092374
vt 0.161896 0.112615
vt 0.162690 0.132857
vn -0.4364 -0.8996 -0.0152
vn -0.4195 -0.9037 0.0854
vn -0.3758 -0.9186 -0.1221
vn -0.3973 -0.9036 -0.1602
vn -0.3539 -0.9308 -0.0911
vn -0.3952 -0.9143 -0.0883
vn -0.3022 -0.9512 -0.0617
vn -0.3380 -0.9411 -0.0084
vn -0.3096 -0.9453 0.1027
vn -0.4468 -0.8751 0.1859
vn -0.3856 -0.8966 0.2177
vn -0.5098 -0.8549 0.0956
vn -0.5236 -0.8517 -0.0208
vn -0.5523 -0.8325 -0.0436
vn -0.4925 -0.8684 -0.0575
vn -0.4750 -0.8733 0.1081
vn -0.3915 -0.8958 0.2104
vn -0.3969 -0.8943 0.2065
vn -0.3751 -0.9236 0.0791
vn -0.3196 -0.9217 0.2200
vn -0.0338 -0.9881 0.1503
vn -0.0390 -0.9360 0.3497
vn 0.2631 -0.9417 0.2099
vn -0.0350 -0.9907 0.1315
vn 0.2755 -0.9592 0.0631
vn 0.3528 -0.9065 0.2320
vn -0.0405 -0.9245 0.3790
vn -0.4221 -0.8823 0.2083
vn -0.3381 -0.9401 0.0444
vn -0.2493 -0.9678 0.0337
vn -0.3222 -0.9465 0.0148
vn -0.4060 -0.9139 -0.0055
vn -0.4097 -0.9120 -0.0185
vn -0.0337 -0.9990 -0.0278
vn 0.3206 -0.9437 0.0819
vn -0.0343 -0.9950 0.0939
vn -0.0320 -0.9994 0.0152
vn -0.0327 -0.9995 0.0043
vn 0.3547 -0.9350 0.0078
vn 0.3494 -0.9368 0.0195
vn 0.3243 -0.9397 -0.1086
vn 0.2996 -0.9512 -0.0743
vn 0.2609 -0.9648 0.0322
vn 0.2459 -0.9683 -0.0452
vn 0.1859 -0.9814 0.0473
vn -0.0304 -0.9991 -0.0282
vn 0.3618 -0.9277 0.0922
vn 0.3788 -0.9255 0.0043
vn 0.3491 -0.9263 -0.1421
vn 0.3425 -0.9373 -0.0644
vn 0.2786 -0.9604 0.0106
vn 0.2431 -0.9626 0.1197
vn 0.3400 -0.9202 0.1942
vn 0.3177 -0.9219 0.2216
vn 0.4078 -0.9030 0.1355
vn 0.4423 -0.8965 -0.0258
vn 0.5069 -0.8619 -0.0103
vn 0.4711 -0.8820 0.0086
vn 0.4492 -0.8847 0.1246
vn 0.3149 -0.9185 0.2393
vn 0.3791 -0.9009 0.2111
usemtl Birb_base
s 1
f 10/1/1 11/2/2 12/3/3
f 13/4/4 10/1/1 12/3/3
f 14/5/5 13/4/4 12/3/3
f 14/5/5 15/6/6 13/4/4
f 16/7/7 15/6/6 14/5/5
f 17/8/8 15/6/6 16/7/7
f 18/9/9 17/8/8 16/7/7
f 3/10/10 2/11/11 18/9/9
f 18/9/9 2/11/11 17/8/8
f 2/11/11 19/12/12 17/8/8
f 19/12/12 20/13/13 17/8/8
f 17/8/8 20/13/13 15/6/6
f 20/13/13 21/14/14 15/6/6
f 15/6/6 21/14/14 13/4/4
f 21/14/14 22/15/15 13/4/4
f 13/4/4 22/15/15 10/1/1
f 22/15/15 1/16/16 10/1/1
f 1/16/16 23/17/17 10/1/1
f 10/1/1 23/17/17 11/2/2
f 23/17/17 24/18/18 11/2/2
f 11/2/2 24/18/18 25/19/19
f 24/18/18 26/20/20 25/19/19
f 25/19/19 26/20/20 27/21/21
f 26/20/20 28/22/22 27/21/21
f 28/22/22 29/23/23 27/21/21
f 30/24/24 31/25/25 6/26/26
f 30/24/24 6/26/26 5/27/27
f 5/27/27 4/28/28 30/24/24
f 30/24/24 4/28/28 32/29/29
f 4/28/28 3/10/10 32/29/29
f 32/29/29 3/10/10 18/9/9
f 33/30/30 32/29/29 18/9/9
f 33/30/30 18/9/9 16/7/7
f 33/30/30 16/7/7 34/31/31
f 16/7/7 14/5/5 34/31/31
f 34/31/31 14/5/5 35/32/32
f 14/5/5 12/3/3 35/32/32
f 12/3/3 36/33/33 35/32/32
f 12/3/3 11/2/2 36/33/33
f 36/33/33 11/2/2 25/19/19
f 36/33/33 25/19/19 37/34/34
f 25/19/19 27/21/21 37/34/34
f 27/21/21 38/35/35 37/34/34
f 39/36/36 34/31/31 40/37/37
f 34/31/31 35/32/32 40/37/37
f 35/32/32 41/38/38 40/37/37
f 35/32/32 36/33/33 41/38/38
f 36/33/33 37/34/34 41/38/38
f 37/34/34 42/39/39 41/38/38
f 41/38/38 42/39/39 43/40/40
f 42/39/39 44/41/41 43/40/40
f 44/41/41 45/42/42 43/40/40
f 43/40/40 45/42/42 46/43/43
f 45/42/42 47/44/44 46/43/43
f 46/43/43 47/44/44 48/45/45
f 39/36/36 46/43/43 48/45/45
f 39/36/36 48/45/45 49/46/46
f 40/37/37 46/43/43 39/36/36
f 43/40/40 46/43/43 40/37/37
f 41/38/38 43/40/40 40/37/37
f 37/34/34 38/35/35 42/39/39
f 42/39/39 38/35/35 50/47/47
f 42/39/39 50/47/47 44/41/41
f 50/47/47 51/48/48 44/41/41
f 51/48/48 52/49/49 44/41/41
f 44/41/41 52/49/49 45/42/42
f 45/42/42 52/49/49 53/50/50
f 45/42/42 53/50/50 47/44/44
f 53/50/50 54/51/51 47/44/44
f 47/44/44 54/51/51 55/52/52
f 48/45/45 47/44/44 55/52/52
f 31/25/25 48/45/45 55/52/52
f 49/46/46 48/45/45 31/25/25
f 49/46/46 31/25/25 30/24/24
f 30/24/24 32/29/29 49/46/46
f 49/46/46 32/29/29 33/30/30
f 49/46/46 33/30/30 39/36/36
f 39/36/36 33/30/30 34/31/31
f 27/21/21 29/23/23 38/35/35
f 29/23/23 56/53/53 38/35/35
f 38/35/35 56/53/53 50/47/47
f 56/53/53 57/54/54 50/47/47
f 50/47/47 57/54/54 51/48/48
f 57/54/54 7/55/55 51/48/48
f 7/55/55 58/56/56 51/48/48
f 51/48/48 58/56/56 52/49/49
f 58/56/56 59/57/57 52/49/49
f 52/49/49 59/57/57 53/50/50
f 59/57/57 60/58/58 53/50/50
f 53/50/50 60/58/58 54/51/51
f 60/58/58 61/59/59 54/51/51
f 54/51/51 61/59/59 8/60/60
f 55/52/52 54/51/51 8/60/60
f 55/52/52 8/60/60 9/61/61
f 31/25/25 55/52/52 9/61/61
f 31/25/25 9/61/61 6/26/26
